<?xml version="1.0" standalone="no"?>
<!DOCTYPE svg PUBLIC "-//W3C//DTD SVG 1.1//EN" "http://www.w3.org/Graphics/SVG/1.1/DTD/svg11.dtd" >
<svg>
<metadata>
Created by FontForge 20120731 at Wed Jul 24 00:42:07 2019
 By www-data
</metadata>
<defs>
<font id="NotoSansZawgyi" horiz-adv-x="0" >
  <font-face 
    font-family="NotoSansZawgyi"
    font-weight="400"
    font-stretch="normal"
    units-per-em="2048"
    panose-1="0 0 6 3 0 0 0 0 2 3"
    ascent="1638"
    descent="-410"
    x-height="1059"
    cap-height="1466"
    bbox="-2003 -599 4911 2163"
    underline-thickness="130"
    underline-position="-885"
    unicode-range="U+001D-F2B0"
  />
<missing-glyph horiz-adv-x="748" 
d="M68 0v1365h544v-1365h-544zM136 68h408v1229h-408v-1229z" />
    <glyph glyph-name="uni100A" unicode="&#x1009;&#x103f;&#x1009;" horiz-adv-x="2271" 
d="M1051 803q0 108 -45.5 194t-129.5 132t-192 46q-119 0 -211 -58t-143 -172l-144 66q57 139 189.5 219.5t306.5 80.5q169 0 294.5 -67t193 -182.5t67.5 -260.5q0 -67 -18 -135q61 -120 154 -181.5t233 -61.5q110 0 194 47.5t128 134.5t44 198q0 169 -97.5 270.5
t-264.5 101.5q-113 0 -189 -33l-65 121q57 27 123.5 37.5t158.5 10.5q150 0 269 -63t185.5 -179t66.5 -270q0 -143 -68.5 -261t-194 -184.5t-292.5 -66.5q-142 0 -262.5 54t-198.5 163q-66 -94 -178.5 -155.5t-282.5 -61.5q-178 0 -313 85v-563q0 -230 229 -230h1145
q229 0 229 230v30h182q0 -394 -419 -394h-1129q-420 0 -420 394v748l144 66q51 -114 143 -172t211 -58q171 0 269 103t98 277zM1630 1422zM1149 305zM1599 260z" />
    <glyph glyph-name="uni106E" unicode="&#x100d;&#x103f;&#x100d;" horiz-adv-x="1364" 
d="M426 -355q44 -10 117 -10q59 0 124.5 14t116.5 42v-155h119v-91h-229l-2 132q-82 -18 -150 -18q-109 0 -207 27v212l160 -3q109 0 148 15.5t39 35.5q0 59 -166 59q-60 0 -102 -10t-77 -19l-34 90q97 31 225 31q150 0 217.5 -36.5t67.5 -107.5q0 -70 -69.5 -110.5
t-197.5 -40.5q-64 0 -100 4v-61zM995 84q-121 -43 -311 -43q-137 0 -267 29t-233 82l2 435l144 66q51 -114 143 -172t211 -58q172 0 270.5 102.5t98.5 279.5q0 107 -45 193t-129.5 132.5t-194.5 46.5q-119 0 -211 -58t-143 -174l-144 66q57 139 189.5 219.5t306.5 80.5
q169 0 294.5 -67t194 -184t68.5 -257q0 -142 -68.5 -261t-194 -187t-294.5 -68q-182 0 -315 86v-142q125 -53 317 -53q262 0 494 127v-735h258v-125h-441v639zM670 1422zM1780 260z" />
    <glyph glyph-name="uni106F" unicode="&#x100d;&#x103f;&#x100e;" horiz-adv-x="1337" 
d="M1229 817q0 -197 -123 -340.5t-324 -178.5v-728h256v-125h-438v846q-222 14 -344.5 120.5t-122.5 262.5q0 67 18.5 117t47 88t63.5 66.5t70 56.5q39 29 60.5 53t21.5 56q0 26 -19.5 46t-54.5 20q-57 0 -125 -68l-102 92q61 59 111 84.5t128 25.5q74 0 126 -26.5t82 -71.5
t30 -94q0 -61 -24.5 -106t-106.5 -107q-25 -22 -50.5 -44t-45 -48.5t-33 -61t-13.5 -78.5q0 -98 72 -165t211 -82q0 54 -11 76.5t-46 28.5v103q55 -10 100 -10q59 0 98 18t39 58q0 76 -129 76q-46 0 -129 -18l-35 95q82 30 168 30q133 0 192.5 -53t59.5 -126
q0 -140 -178 -170q35 -31 47 -100q121 32 193.5 130.5t72.5 255.5q0 245 -184 372l107 118q120 -73 192 -208t72 -286zM670 1422zM1390 260z" />
    <glyph glyph-name="uni1086" unicode="&#x101e;&#x103f;&#x101e;" horiz-adv-x="3109" 
d="M2075 799q0 -37 -7.5 -74t-11.5 -59q74 -114 164 -177.5t223 -63.5q171 0 269 104.5t98 273.5q0 170 -98 271t-265 101q-112 0 -188 -33l-66 121q58 27 124.5 37.5t158.5 10.5q148 0 267 -62t186 -179t67 -271q0 -144 -68 -261t-192.5 -184t-294.5 -67q-145 0 -263 55
t-198 162q-168 -217 -460 -217q-150 0 -266.5 56t-194.5 161q-168 -217 -461 -217q-174 0 -306.5 80.5t-189.5 219.5l144 66q51 -114 143 -172t211 -58q169 0 268 102t99 278q0 168 -99.5 270t-267.5 102q-119 0 -211 -58t-143 -172l-144 66q57 139 189.5 219.5t306.5 80.5
q170 0 294.5 -67t192.5 -185t68 -262q0 -32 -18 -131q73 -114 163.5 -177.5t223.5 -63.5q170 0 268 104t98 274q0 169 -97.5 270.5t-264.5 101.5q-113 0 -189 -33l-65 121q57 27 123.5 37.5t158.5 10.5q150 0 268.5 -62.5t185.5 -179t67 -270.5zM2470 1422zM1528 305z
M2446 260z" />
    <glyph glyph-name="uni108A" unicode="&#x103c;&#x103d;" 
d="M-1316 -361q-98 0 -186 42.5t-137 143.5l145 65q32 -63 77 -87t109 -24q69 0 127.5 47.5t95.5 137.5q27 70 86 129t142 90.5t183 31.5q135 0 235 -53.5t155 -151t55 -212.5q0 -108 -56 -201t-155 -144.5t-237 -51.5q-167 0 -282.5 91t-142.5 225q-34 -36 -90.5 -57
t-123.5 -21zM-668 89q-126 0 -200 -80.5t-74 -208.5q0 -122 75.5 -201.5t201.5 -79.5q120 0 196 76.5t76 196.5q0 131 -76.5 214t-198.5 83zM-669 260zM-486 260z" />
    <glyph glyph-name="uni108B" unicode="&#x103f;&#x1004;&#x102d;" 
d="M-823 1999q-41 35 -94 35q-39 0 -62.5 -20.5t-23.5 -56.5q0 -52 55 -99h29q74 0 130 -28t83 -81l-117 -54q-12 20 -36.5 32t-53.5 12q-41 0 -65.5 -22t-24.5 -59t23.5 -57.5t64.5 -20.5q62 0 94 43l115 -54q-27 -53 -83 -81.5t-130 -28.5q-102 0 -165.5 52.5t-63.5 146.5
q0 91 67 149q-65 65 -65 150q0 93 62.5 145t164.5 52q125 0 193 -78zM-919 1422zM-656 1422zM-366 2039q-81 0 -126.5 -67.5t-45.5 -164.5q0 -94 46.5 -159t125.5 -65t125.5 64t46.5 154q0 100 -45 169t-127 69zM-368 2163q103 0 179.5 -47t117.5 -128.5t41 -184.5
q0 -93 -41.5 -172.5t-119 -125.5t-179.5 -46q-152 0 -240.5 100t-88.5 252q0 99 39.5 179t115.5 126.5t176 46.5zM-367 1422zM-617 1422z" />
    <glyph glyph-name="uni108C" unicode="&#x103f;&#x1004;&#x102e;" 
d="M-823 1999q-41 35 -94 35q-39 0 -62.5 -20.5t-23.5 -56.5q0 -52 55 -99h29q74 0 130 -28t83 -81l-117 -54q-12 20 -36.5 32t-53.5 12q-41 0 -65.5 -22t-24.5 -59t23.5 -57.5t64.5 -20.5q62 0 94 43l115 -54q-27 -53 -83 -81.5t-130 -28.5q-102 0 -165.5 52.5t-63.5 146.5
q0 91 67 149q-65 65 -65 150q0 93 62.5 145t164.5 52q125 0 193 -78zM-919 1422zM-656 1422zM-323 2152q116 0 200 -46t130.5 -129.5t46.5 -178.5q0 -94 -46.5 -171.5t-133 -122.5t-201.5 -45q-109 0 -192.5 44.5t-130.5 124.5t-47 177q0 94 45 173.5t130 126.5t199 47z
M-321 2029q-100 0 -156.5 -64.5t-56.5 -162.5l3 -25q90 72 210 72q122 0 211 -70v16q0 98 -56 166t-155 68zM-321 1582q109 0 175 87q-88 61 -175 61q-85 0 -174 -63q63 -85 174 -85zM-327 1422zM-547 1422zM-747 1422z" />
    <glyph glyph-name="uni108D" unicode="&#x103f;&#x1004;&#x1036;" 
d="M-584 1999q-41 35 -94 35q-39 0 -62.5 -20.5t-23.5 -56.5q0 -52 55 -99h29q74 0 130 -28t83 -81l-117 -54q-12 20 -36.5 32t-53.5 12q-41 0 -65.5 -22t-24.5 -59t23.5 -57.5t64.5 -20.5q62 0 94 43l115 -54q-27 -53 -83 -81.5t-130 -28.5q-102 0 -165.5 52.5t-63.5 146.5
q0 91 67 149q-65 65 -65 150q0 93 62.5 145t164.5 52q125 0 193 -78zM-680 1422zM-417 1422zM34 1659q0 -93 -64.5 -145t-163.5 -52q-100 0 -161.5 51t-61.5 145q0 92 61.5 143.5t161.5 51.5q99 0 163.5 -51.5t64.5 -142.5zM-83 1658q0 46 -30.5 72t-78.5 26
q-47 0 -77.5 -26t-30.5 -72t27.5 -71.5t80.5 -25.5q48 0 78.5 25.5t30.5 71.5zM-157 1422z" />
    <glyph glyph-name="uni1091" unicode="&#x100f;&#x103f;&#x100d;" horiz-adv-x="2570" 
d="M1284 287q-151 0 -235 64t-84 177q0 50 20 124q21 77 21 138q0 177 -95.5 282t-255.5 105q-158 0 -257 -103t-99 -279q0 -169 101.5 -270.5t261.5 -101.5q71 0 112 11l43 -129q-67 -18 -182 -18q-149 0 -270.5 69.5t-186.5 185.5t-65 259q0 140 66.5 258.5t189 185
t288.5 66.5q219 0 363 -114q49 48 107.5 81t158.5 33q92 0 154.5 -33t109.5 -81q144 114 363 114q167 0 289 -66.5t189 -185t67 -258.5q0 -142 -65.5 -259t-187 -186t-270.5 -69q-117 0 -184 18l41 129q46 -11 115 -11q105 0 188 45t128.5 129.5t45.5 197.5q0 172 -95 277
t-253 105q-165 0 -260.5 -105t-95.5 -282q0 -65 20 -138q21 -78 21 -124q0 -121 -89.5 -181t-232.5 -60zM1378 810q0 159 84 280q-39 39 -80 63t-94 24q-67 0 -106 -26t-74 -61q86 -124 86 -278q0 -81 -21.5 -146.5t-21.5 -122.5q0 -48 34 -83t101 -35q68 0 100.5 35
t32.5 83q0 59 -20.5 122.5t-20.5 144.5zM1904 1422zM1274 305zM1918 260zM1286 1422zM2708 260zM1540 -23q41 -89 41 -190q0 -80 -36 -176t-91 -166h-379l-66 119q91 30 134 91.5t43 133.5q0 99 -79 161.5t-208 62.5q-131 0 -215 -60.5t-84 -169.5q0 -67 42 -127t134 -92
l-66 -119q-116 42 -181.5 133.5t-65.5 197.5q0 119 56.5 205t156 132t219.5 46q119 0 218.5 -46.5t154.5 -129.5t55 -200q0 -55 -18.5 -98.5t-47.5 -91.5h135q54 92 54 194q0 66 -28 153t-110 181h674v108h125v-252h-567zM1315 305zM2207 -23z" />
    <glyph glyph-name="uni1092" unicode="&#x100b;&#x103f;&#x100c;" horiz-adv-x="1350" 
d="M997 71q-88 -32 -172 -38t-143 -6q-152 0 -282 33t-214 92v153q119 -85 248 -113.5t252 -28.5q117 0 245 28.5t247 113.5v-516q0 -344 -430 -344h-203q-197 0 -304.5 63t-107.5 185q0 110 92 174t228 64q106 0 172.5 -28.5t128.5 -72.5l-127 -97q-35 27 -71 44.5
t-93 17.5q-53 0 -99.5 -25.5t-46.5 -78.5t59.5 -83.5t166.5 -30.5h219q235 0 235 195v299zM313 812q0 -175 104 -282t265 -107q119 0 211 58t143 172l144 -66q-58 -142 -194 -221t-320 -79q-158 0 -281.5 65.5t-190.5 184t-67 266.5q0 139 68.5 256.5t193.5 184.5t295 67
q174 0 306.5 -80.5t189.5 -219.5l-144 -66q-51 116 -143 174t-211 58q-111 0 -195.5 -47t-129 -131.5t-44.5 -186.5zM690 1422zM1780 260z" />
    <glyph glyph-name="uni1096" unicode="&#x103f;&#x1010;&#x103c;" 
d="M-855 113q121 107 344 107q188 0 305 -74t117 -186q0 -104 -118 -173.5t-290 -69.5q-125 0 -201 32l62 113q51 -22 127 -22q106 0 181 32.5t75 87.5q0 58 -66.5 96t-189.5 38q-84 0 -158 -29.5t-123 -78.5q12 -24 12 -60q0 -83 -114 -147.5t-312 -64.5q-185 0 -298 74
t-113 178q0 107 113 180.5t303 73.5q217 0 344 -107zM-1384.5 -123.5q68.5 -36.5 187.5 -36.5q109 0 182.5 34.5t73.5 86.5q0 61 -73 98t-183 37q-115 0 -185.5 -35.5t-70.5 -96.5q0 -51 68.5 -87.5zM-468 -291l140 -49q87 -38 87 -92q0 -65 -67.5 -94t-159.5 -29
q-91 0 -157.5 29.5t-66.5 89.5q0 57 89 96zM-466 -378l-61 -23q-47 -16 -47 -36q0 -16 29 -28t79 -12q54 0 82 13.5t28 26.5t-14.5 21t-32.5 15zM-855 305z" />
    <glyph glyph-name="uni1097" unicode="&#x100b;&#x103f;&#x100b;" horiz-adv-x="1364" 
d="M313 812q0 -175 104 -282t265 -107q119 0 211 58t143 172l144 -66q-58 -142 -194 -221t-320 -79q-158 0 -281.5 65.5t-190.5 184t-67 266.5q0 139 68.5 256.5t193.5 184.5t295 67q174 0 306.5 -80.5t189.5 -219.5l-144 -66q-51 116 -143 174t-211 58q-111 0 -195.5 -47
t-129 -131.5t-44.5 -186.5zM1178 -430h258v-125h-439v626q-88 -32 -172 -38t-143 -6q-152 0 -282 33t-214 92v153q119 -85 248 -113.5t252 -28.5q117 0 245 28.5t247 113.5v-735zM735 -187q-73 10 -104 10q-92 0 -131 -14t-39 -46q0 -54 147 -54q66 0 117 10v-149h158v-125
h-295v139h-4q-150 0 -222.5 52t-72.5 125q0 91 86 139.5t248 48.5q90 0 163 -17zM670 1422zM1780 260z" />
    <glyph glyph-name=".notdef" horiz-adv-x="748" 
d="M68 0v1365h544v-1365h-544zM136 68h408v1229h-408v-1229z" />
    <glyph glyph-name="uni001D" 
 />
    <glyph glyph-name="uni001D" 
 />
    <glyph glyph-name="glyph2" horiz-adv-x="682" 
 />
    <glyph glyph-name="space" unicode=" " horiz-adv-x="512" 
 />
    <glyph glyph-name="space" unicode="&#xa0;" horiz-adv-x="512" 
 />
    <glyph glyph-name="exclam" unicode="!" horiz-adv-x="553" 
d="M369 428h-183v1020l183 16v-1036zM371 14q-33 -34 -95 -34q-61 0 -95 34.5t-34 87.5q0 56 34 90.5t95 34.5q62 0 96 -34.5t34 -90.5q0 -53 -35 -88z" />
    <glyph glyph-name="quotedbl" unicode="&#x22;" horiz-adv-x="768" 
d="M274 901h-139l-31 529l199 18zM635 901h-139l-31 529l199 18z" />
    <glyph glyph-name="numbersign" unicode="#" horiz-adv-x="1556" 
d="M1358 375h-330l-84 -375h-172l84 375h-305l-84 -375h-172l84 375h-279l15 153h299l80 353h-310l15 153h329l84 373h174l-86 -373h306l84 373h174l-86 -373h278l-14 -153h-299l-80 -353h309zM891 528l80 353h-305l-80 -353h305z" />
    <glyph glyph-name="dollar" unicode="$" horiz-adv-x="1143" 
d="M647 -244l-151 -14v240q-113 4 -234 36.5t-237 106.5l73 149q107 -61 209.5 -91.5t188.5 -37.5v508q-82 31 -158 64t-134.5 78t-94 107.5t-35.5 152.5q0 88 33.5 154.5t92 112.5t135.5 71.5t161 31.5v215l151 15v-234q101 -10 199 -40.5t172 -77.5l-72 -150
q-76 37 -151.5 63.5t-147.5 38.5v-464q90 -35 166 -70t131 -80t86 -106.5t31 -147.5q0 -166 -107.5 -272.5t-306.5 -128.5v-230zM496 1260q-41 -5 -83 -17t-77 -34.5t-56.5 -57.5t-21.5 -82q0 -82 68.5 -133t169.5 -90v414zM647 152q105 16 166 70t61 147q0 86 -57 135
t-170 92v-444z" />
    <glyph glyph-name="percent" unicode="%" horiz-adv-x="1849" 
d="M664 0h-172l694 1407h172zM1440 129q78 0 121 72.5t43 201.5q0 132 -43 203.5t-121 71.5t-121 -71.5t-43 -203.5q0 -129 43 -201.5t121 -72.5zM1679 92q-86 -112 -239 -112q-154 0 -241 113.5t-87 309.5q0 197 87 310.5t241 113.5q153 0 240 -113.5t87 -310.5
q0 -196 -88 -311zM410 729q77 0 120 72.5t43 202.5q0 131 -43 202.5t-120 71.5q-78 0 -121 -71.5t-43 -202.5q0 -130 43 -202.5t121 -72.5zM649 692q-86 -112 -239 -112q-154 0 -241 113.5t-87 310.5q0 196 87 309.5t241 113.5q153 0 240 -113.5t87 -309.5q0 -197 -88 -312z
" />
    <glyph glyph-name="ampersand" unicode="&#x26;" horiz-adv-x="1462" 
d="M1262 -20l-201 206q-244 -206 -492 -206q-86 0 -163.5 24.5t-135 70.5t-91.5 113.5t-34 153.5q0 72 25 132.5t69 113.5t104 102t132 101q-86 86 -142.5 166.5t-56.5 183.5q0 63 25 122.5t71 105.5t110.5 72.5t144.5 26.5t144.5 -26.5t110.5 -72.5t71.5 -106.5
t25.5 -125.5q0 -60 -21.5 -110t-56.5 -95t-80 -84t-90 -74l346 -360q45 43 83 85t75 89l108 -105q-73 -94 -157 -182l194 -203zM590 674q-53 -37 -99.5 -74t-82 -77t-56 -85t-20.5 -96q0 -49 19.5 -86t52 -60.5t76.5 -34.5t93 -11q93 0 191 41.5t186 109.5zM618 889
q87 65 131 122.5t44 125.5q0 73 -47.5 120.5t-118.5 47.5q-72 0 -118 -47.5t-46 -120.5q0 -33 14.5 -66t37 -64.5t50 -61.5t53.5 -56z" />
    <glyph glyph-name="quotesingle" unicode="'" horiz-adv-x="408" 
d="M274 901h-139l-31 529l199 18z" />
    <glyph glyph-name="parenleft" unicode="(" horiz-adv-x="645" 
d="M428 -485q-66 114 -116 241t-82.5 257t-49 260t-16.5 251q0 123 16.5 252t49 259t82.5 256t116 241l154 -47q-60 -103 -102 -220.5t-69.5 -241.5t-41 -250t-13.5 -249q0 -121 13.5 -247.5t41 -251.5t69.5 -243t102 -220z" />
    <glyph glyph-name="parenright" unicode=")" horiz-adv-x="645" 
d="M63 -438q58 102 101 220t70.5 243t41 251.5t13.5 247.5q0 123 -13.5 249t-41 250t-70.5 241.5t-101 220.5l154 47q66 -115 116 -241t83 -256t49 -259t16 -252q0 -121 -16 -251t-49 -260t-83 -257t-116 -241z" />
    <glyph glyph-name="asterisk" unicode="*" horiz-adv-x="1176" 
d="M950 694l-104 -76l-258 295l-258 -295l-105 76l211 316l-313 123l39 127l338 -86l24 362h127l25 -362l338 86l39 -127l-314 -123z" />
    <glyph glyph-name="plus" unicode="+" horiz-adv-x="1143" 
d="M1001 623h-350v-351h-159v351h-351v159h351v351h159v-351h350v-159z" />
    <glyph glyph-name="comma" unicode="," horiz-adv-x="508" 
d="M23 -254q32 59 57.5 113.5t42 110t27 118t12.5 139.5l207 -16q0 -43 -13.5 -109.5t-40 -140.5t-67.5 -148.5t-94 -131.5z" />
    <glyph glyph-name="hyphen" unicode="-" horiz-adv-x="864" 
d="M760 451h-656v155h656v-155z" />
    <glyph glyph-name="hyphen" unicode="&#xad;" horiz-adv-x="864" 
d="M760 451h-656v155h656v-155z" />
    <glyph glyph-name="period" unicode="." horiz-adv-x="508" 
d="M350 14q-33 -34 -96 -34q-61 0 -95 34.5t-34 87.5q0 56 34 90.5t95 34.5q63 0 96 -34.5t33 -90.5q0 -53 -33 -88z" />
    <glyph glyph-name="slash" unicode="/" horiz-adv-x="938" 
d="M195 -207h-189l737 1835h189z" />
    <glyph glyph-name="zero" unicode="0" horiz-adv-x="1143" 
d="M717 195q59 45 95 121.5t50.5 177t14.5 208.5q0 111 -14.5 211.5t-50.5 177t-94.5 121.5t-146.5 45t-146 -45t-94 -121.5t-50.5 -177t-14.5 -211.5q0 -108 14.5 -208.5t50.5 -177t94 -121.5t146 -45t146 45zM956 199q-59 -99 -153 -159t-232 -60q-137 0 -231 60
t-153.5 159.5t-86 230.5t-26.5 272q0 142 26.5 273t86 231.5t153.5 160.5t231 60q138 0 232 -60t153.5 -160.5t86 -231.5t26.5 -273q0 -141 -26.5 -272t-86.5 -231z" />
    <glyph glyph-name="one" unicode="1" horiz-adv-x="1143" 
d="M805 0h-187v1214l-364 -135l-53 158l430 170h174v-1407z" />
    <glyph glyph-name="two" unicode="2" horiz-adv-x="1143" 
d="M977 0h-866q-5 27 -7 52.5t-2 47.5q0 113 36 200t94.5 155.5t129 123t142.5 103.5q57 39 110.5 77t93.5 80t63.5 89t23.5 104q0 101 -71 163t-185 62q-90 0 -172 -38.5t-158 -108.5l-96 137q100 94 208.5 137t221.5 43q94 0 175 -27.5t140.5 -79.5t94 -125t34.5 -165
q0 -86 -29.5 -153.5t-79 -123t-111.5 -101.5t-126 -91q-57 -41 -113.5 -82t-102.5 -87t-79 -101t-45 -123h676v-168z" />
    <glyph glyph-name="three" unicode="3" horiz-adv-x="1143" 
d="M143 297q31 -31 74 -57.5t92 -46t103.5 -31.5t107.5 -12q60 0 114 15t95 46t64.5 75t23.5 103q0 62 -26.5 109t-70.5 80.5t-103.5 51t-124.5 17.5h-119v166h96q57 0 109.5 14.5t91.5 43t61.5 71.5t22.5 98q0 105 -71 161t-169 56q-82 0 -165 -37.5t-161 -109.5l-96 137
q98 94 207 137t219 43q98 0 178 -30.5t135.5 -82.5t85 -120t29.5 -141q0 -111 -62.5 -189t-170.5 -127q59 -22 112.5 -55t94.5 -77t65.5 -100t24.5 -126q0 -78 -33 -150.5t-95.5 -128t-153.5 -88t-208 -32.5q-55 0 -116.5 9t-123 30.5t-122 56.5t-111.5 84z" />
    <glyph glyph-name="four" unicode="4" horiz-adv-x="1143" 
d="M905 0h-178v326h-655l-11 98l666 983h178v-922h166v-159h-166v-326zM727 485v648l-436 -648h436z" />
    <glyph glyph-name="five" unicode="5" horiz-adv-x="1143" 
d="M190 295q74 -68 157 -106.5t188 -38.5q133 0 218 68.5t85 207.5q0 74 -26 129t-69 90t-98 52.5t-117 17.5q-53 0 -125.5 -15.5t-148.5 -58.5l-80 59l27 707h735v-168h-559l-17 -405q48 20 105 31.5t113 11.5q88 0 169.5 -31t145 -88.5t100.5 -140t37 -187.5
q0 -100 -34.5 -183t-98 -142.5t-155 -92t-201.5 -32.5q-121 0 -229.5 41.5t-211.5 138.5z" />
    <glyph glyph-name="six" unicode="6" horiz-adv-x="1143" 
d="M899 1167q-61 43 -135 66.5t-137 23.5q-88 0 -149.5 -43t-100.5 -114.5t-58.5 -165.5t-23.5 -195q70 70 158 110t188 40q92 0 169 -34t132 -94.5t86 -143t31 -179.5q0 -102 -35 -187t-96.5 -145.5t-145.5 -93t-182 -32.5q-133 0 -226 58t-152.5 154.5t-87.5 222.5
t-28 261q0 67 8.5 149t29 166t56.5 162t93 139.5t137 98t188 36.5q84 0 172.5 -24.5t178.5 -83.5zM432 680q-76 -39 -133 -102q16 -203 96 -315.5t215 -112.5q58 0 105 20q49 23 81.5 60.5t51 91t18.5 116.5q0 127 -69.5 204t-194.5 77q-92 0 -170 -39z" />
    <glyph glyph-name="seven" unicode="7" horiz-adv-x="1143" 
d="M371 0q0 174 39 345t100 330t135 301t141 263h-677v168h897l10 -119q-84 -145 -167 -296.5t-147.5 -311.5t-104.5 -330t-40 -350h-186z" />
    <glyph glyph-name="eight" unicode="8" horiz-adv-x="1143" 
d="M952 870q-55 -84 -161 -131q55 -22 102 -56t83 -78t56.5 -100t20.5 -126q0 -90 -36 -163t-100.5 -126t-152.5 -81.5t-193 -28.5q-104 0 -192 28.5t-152.5 81.5t-100.5 126t-36 163q0 70 20.5 126t56.5 100t83 77q47 35 102 57q-106 47 -162.5 132t-56.5 188
q0 74 31 140.5t87 116.5t137 80.5t183 30.5q101 0 183 -30.5t138 -80.5t87 -116.5t31 -140.5q0 -103 -58 -189zM786 215q80 70 80 180q0 113 -78.5 186.5t-216.5 73.5q-137 0 -216 -73.5t-79 -186.5q0 -110 79 -180t216 -70q138 0 215 70zM754 881q69 65 69 161q0 39 -13 79
t-44 71t-79 50.5t-116 19.5q-69 0 -117 -19.5t-78 -50.5t-43.5 -71t-13.5 -81q0 -94 69 -158.5t183 -64.5q115 0 183 64z" />
    <glyph glyph-name="nine" unicode="9" horiz-adv-x="1143" 
d="M170 262q70 -41 154 -76.5t178 -35.5t158.5 41.5t105.5 113.5t59.5 166t22.5 201q-70 -68 -156 -109t-186 -41q-90 0 -167 33t-133 92.5t-89 141t-33 180.5q0 92 29.5 175t88 145.5t143.5 100t196 37.5q135 0 229 -57t153.5 -154.5t86 -225.5t26.5 -269
q0 -135 -25.5 -268.5t-87 -237.5t-164 -169.5t-253.5 -65.5q-107 0 -210 33.5t-194 97.5zM707 731q77 39 135 100q-11 121 -41.5 203t-72.5 131t-93 70.5t-105 21.5q-61 0 -108 -22.5t-79 -62t-49.5 -92t-17.5 -111.5q0 -133 75 -205t192 -72q88 0 164 39z" />
    <glyph glyph-name="colon" unicode=":" horiz-adv-x="508" 
d="M350 14q-33 -34 -96 -34q-61 0 -95 34.5t-34 87.5q0 56 34 90.5t95 34.5q63 0 96 -34.5t33 -90.5q0 -53 -33 -88zM350 825q-33 -34 -96 -34q-61 0 -95 34.5t-34 87.5q0 56 34 90.5t95 34.5q63 0 96 -34.5t33 -90.5q0 -53 -33 -88z" />
    <glyph glyph-name="semicolon" unicode=";" horiz-adv-x="508" 
d="M23 -254q32 59 57.5 113.5t42 110t27 118t12.5 139.5l207 -16q0 -43 -13.5 -109.5t-40 -140.5t-67.5 -148.5t-94 -131.5zM350 825q-33 -34 -96 -34q-61 0 -95 34.5t-34 87.5q0 56 34 90.5t95 34.5q63 0 96 -34.5t33 -90.5q0 -53 -33 -88z" />
    <glyph glyph-name="semicolon" unicode="&#x37e;" horiz-adv-x="508" 
d="M23 -254q32 59 57.5 113.5t42 110t27 118t12.5 139.5l207 -16q0 -43 -13.5 -109.5t-40 -140.5t-67.5 -148.5t-94 -131.5zM350 825q-33 -34 -96 -34q-61 0 -95 34.5t-34 87.5q0 56 34 90.5t95 34.5q63 0 96 -34.5t33 -90.5q0 -53 -33 -88z" />
    <glyph glyph-name="less" unicode="&#x3c;" horiz-adv-x="1143" 
d="M952 258l-788 338v213l788 338l27 -170l-672 -275l672 -274z" />
    <glyph glyph-name="equal" unicode="=" horiz-adv-x="1143" 
d="M1001 410h-860v159h860v-159zM1001 838h-860v159h860v-159z" />
    <glyph glyph-name="greater" unicode="&#x3e;" horiz-adv-x="1143" 
d="M979 596l-789 -338l-26 170l672 274l-672 275l26 170l789 -338v-213z" />
    <glyph glyph-name="question" unicode="?" horiz-adv-x="1038" 
d="M336 428q0 76 20.5 136.5t53 110.5t72.5 93t81 82q62 59 109 118.5t47 137.5q0 49 -19.5 84t-53.5 58.5t-78 34.5t-93 11q-88 0 -174 -32.5t-162 -85.5l-78 135q27 24 69 53t94 51.5t115.5 37.5t135.5 15q90 0 170 -25.5t140.5 -73.5t95 -115.5t34.5 -151.5
q0 -58 -17 -104t-45 -87t-63.5 -76.5t-72.5 -70.5q-72 -66 -130.5 -142.5t-68.5 -193.5h-182zM524 14q-32 -34 -96 -34q-61 0 -95 34.5t-34 87.5q0 56 34 90.5t95 34.5q64 0 96.5 -34.5t32.5 -90.5q0 -53 -33 -88z" />
    <glyph glyph-name="at" unicode="@" horiz-adv-x="2064" 
d="M1470 -395q-106 -49 -211.5 -75t-234.5 -26q-209 0 -379 68t-291 189.5t-187.5 293.5t-66.5 381q0 221 74 405.5t206 316.5t315.5 206t400.5 74q198 0 358 -60.5t273.5 -169t175 -260t61.5 -336.5q0 -131 -30.5 -243.5t-86 -194.5t-133.5 -128t-172 -46q-86 0 -155.5 37
t-110.5 104q-78 -73 -160 -107t-162 -34q-86 0 -154.5 34t-115.5 92t-71.5 137t-24.5 167q0 96 29.5 185.5t86 158t136.5 109.5t178 41q78 0 143.5 -27t122.5 -74l19 80l147 15q-10 -168 -17.5 -312.5t-7.5 -279.5q0 -80 30 -124t89 -44q51 0 95 32.5t75 91t48.5 139.5
t17.5 177q0 156 -47 283t-136.5 215t-216.5 136t-284 48q-189 0 -339.5 -66.5t-255 -181t-160.5 -268.5t-56 -328q0 -164 50 -305t143 -245.5t228.5 -164t305.5 -59.5q98 0 195.5 21.5t209.5 66.5zM1241 481q4 80 10 224q-104 63 -207 63q-129 0 -200.5 -87t-71.5 -235
q0 -59 13.5 -112t41 -92t70.5 -61.5t102 -22.5q70 0 131.5 27.5t106.5 68.5q-2 10 -2 19.5v19.5v17.5t2 51t4 119.5z" />
    <glyph glyph-name="A" unicode="A" horiz-adv-x="1382" 
d="M1356 0h-207l-162 424h-602l-162 -424h-196l575 1448h178zM926 586l-240 631l-240 -631h480z" />
    <glyph glyph-name="B" unicode="B" horiz-adv-x="1303" 
d="M186 0v1448h504q107 0 193 -25.5t147.5 -74t94 -116t32.5 -151.5q0 -123 -65.5 -201.5t-163.5 -125.5q139 -49 218 -140.5t79 -226.5q0 -94 -39 -167t-103.5 -122t-150.5 -73.5t-180 -24.5h-566zM750 166q129 0 203.5 62.5t74.5 172.5q0 58 -20.5 105t-57.5 81t-88 53
t-112 19h-371v-493h371zM680 819q133 0 207 63.5t74 172.5q0 102 -71 164.5t-210 62.5h-301v-463h301z" />
    <glyph glyph-name="C" unicode="C" horiz-adv-x="1315" 
d="M1262 106q-43 -26 -99.5 -49.5t-120 -40t-132 -26.5t-138.5 -10q-172 0 -296 60t-206 163.5t-120.5 237.5t-38.5 282q0 147 39.5 282.5t122.5 239t209 163.5t298 60q140 0 263.5 -35.5t218.5 -91.5l-70 -155q-129 63 -235.5 85.5t-180.5 22.5q-125 0 -214 -47
t-145.5 -127t-83 -183t-26.5 -214t26.5 -213t83 -182t145.5 -127t214 -47q74 0 180.5 22.5t235.5 85.5z" />
    <glyph glyph-name="D" unicode="D" horiz-adv-x="1448" 
d="M641 168q117 0 210 42t157.5 115.5t98.5 175t34 222.5t-34 223.5t-98.5 176t-157.5 115.5t-210 42h-262v-1112h262zM186 0v1448h467q156 0 283 -53.5t216 -148.5t137 -229t48 -294t-48 -293t-137 -228.5t-216 -148.5t-283 -53h-467z" />
    <glyph glyph-name="E" unicode="E" horiz-adv-x="1182" 
d="M1087 0h-901v1448h901v-168h-708v-469h577v-168h-577v-475h708v-168z" />
    <glyph glyph-name="F" unicode="F" horiz-adv-x="1139" 
d="M379 0h-193v1448h901v-168h-708v-489h577v-168h-577v-623z" />
    <glyph glyph-name="G" unicode="G" horiz-adv-x="1425" 
d="M1276 86q-43 -23 -99.5 -42t-120 -33.5t-131 -22.5t-132.5 -8q-179 0 -308 60t-212 161.5t-122.5 236.5t-39.5 283q0 149 39.5 284.5t122.5 238t209 163.5t298 61q140 0 263.5 -35.5t218.5 -91.5l-70 -155q-129 63 -235.5 85.5t-180.5 22.5q-125 0 -214 -47t-145.5 -127
t-83 -184.5t-26.5 -218.5q0 -109 24.5 -210t83 -180t154 -126t236.5 -47q45 0 117.5 8t164.5 37v405h-329v164h518v-682z" />
    <glyph glyph-name="H" unicode="H" horiz-adv-x="1470" 
d="M1284 0h-192v643h-713v-643h-193v1448h193v-637h713v637h192v-1448z" />
    <glyph glyph-name="I" unicode="I" horiz-adv-x="586" 
d="M389 0h-192v1448h192v-1448z" />
    <glyph glyph-name="J" unicode="J" horiz-adv-x="891" 
d="M711 514q0 -111 -14.5 -208t-56.5 -170t-120 -114.5t-207 -41.5q-77 0 -158 15t-139 42l35 166q53 -21 120 -35t126 -14q78 0 123 29.5t66.5 78.5t26.5 114.5t5 137.5v934h193v-934z" />
    <glyph glyph-name="K" unicode="K" horiz-adv-x="1257" 
d="M1100 -20q-68 69 -143.5 158t-149.5 182.5t-140.5 184.5t-115.5 165l-172 -213v-457h-193v1448h193v-741l590 741h211l-514 -635q59 -88 132.5 -186.5t150.5 -193.5t153 -182t141 -151z" />
    <glyph glyph-name="L" unicode="L" horiz-adv-x="1110" 
d="M1087 0h-901v1448h193v-1280h708v-168z" />
    <glyph glyph-name="M" unicode="M" horiz-adv-x="1737" 
d="M1550 0h-190v1137l-442 -682h-101l-442 682v-1137h-189v1448h207l481 -754l482 754h194v-1448z" />
    <glyph glyph-name="N" unicode="N" horiz-adv-x="1477" 
d="M1290 0h-188l-727 1126v-1126h-189v1448h189l727 -1126v1126h188v-1448z" />
    <glyph glyph-name="O" unicode="O" horiz-adv-x="1524" 
d="M958 199q86 45 143.5 122.5t86.5 181t29 220.5t-29 221.5t-86.5 182t-142.5 122.5t-197 45q-113 0 -198 -45t-142 -122.5t-86 -182t-29 -221.5t29 -220.5t86 -181t142 -122.5t198 -45q112 0 196 45zM1239 193q-84 -101 -205 -157t-272 -56q-152 0 -272.5 56t-204.5 156.5
t-129 236.5t-45 294q0 160 45 296t129 235.5t204.5 156.5t272.5 57q151 0 272 -57t205 -156.5t129 -235.5t45 -296q0 -158 -45 -294t-129 -236z" />
    <glyph glyph-name="P" unicode="P" horiz-adv-x="1225" 
d="M379 0h-193v1448h504q103 0 189 -31t147 -88t96 -139t35 -182q0 -103 -35 -184t-96 -138t-147 -88t-189 -31h-311v-567zM680 735q125 0 203 75t78 198q0 122 -78 197t-203 75h-301v-545h301z" />
    <glyph glyph-name="Q" unicode="Q" horiz-adv-x="1524" 
d="M1233 -358q-176 129 -311 356q-74 -18 -160 -18q-152 0 -272.5 56t-204.5 156.5t-129 236.5t-45 294q0 160 45 296t129 235.5t204.5 156.5t272.5 57q151 0 272 -57t205 -156.5t129 -235.5t45 -296q0 -219 -86 -393t-244 -269q62 -79 126.5 -146t144.5 -126zM958 199
q86 45 143.5 122.5t86.5 181t29 220.5t-29 221.5t-86.5 182t-142.5 122.5t-197 45q-113 0 -198 -45t-142 -122.5t-86 -182t-29 -221.5t29 -220.5t86 -181t142 -122.5t198 -45q112 0 196 45z" />
    <glyph glyph-name="R" unicode="R" horiz-adv-x="1290" 
d="M1114 -20q-147 155 -266 310.5t-223 305.5h-246v-596h-193v1448h504q103 0 189 -29.5t147 -85t96 -135.5t35 -180q0 -170 -92 -269.5t-244 -134.5q107 -143 214.5 -271t221.5 -243zM680 756q125 0 203 69.5t78 192.5t-78 192.5t-203 69.5h-301v-524h301z" />
    <glyph glyph-name="S" unicode="S" horiz-adv-x="1188" 
d="M129 287q125 -74 242.5 -103.5t212.5 -29.5q141 0 230 56t89 165q0 61 -30.5 104t-81 76t-117 56.5t-135.5 47.5q-80 27 -159 58t-142.5 77t-102.5 113.5t-39 169.5q0 105 42 178.5t110.5 121.5t158 69.5t181.5 21.5q127 0 246.5 -34.5t214.5 -94.5l-72 -157
q-103 53 -199 82.5t-188 29.5q-55 0 -108.5 -11t-95.5 -35.5t-67.5 -63.5t-25.5 -94q0 -54 25.5 -91.5t68.5 -66.5t101.5 -51.5t123.5 -44.5q82 -29 168 -62t157 -84t117 -124.5t46 -182.5q0 -98 -40 -174t-109.5 -126t-166 -76.5t-209.5 -26.5q-124 0 -257.5 33.5
t-262.5 115.5z" />
    <glyph glyph-name="T" unicode="T" horiz-adv-x="1163" 
d="M678 0h-193v1280h-452v168h1097v-168h-452v-1280z" />
    <glyph glyph-name="U" unicode="U" horiz-adv-x="1452" 
d="M1272 553q0 -133 -36 -238.5t-105.5 -180.5t-171 -114.5t-232.5 -39.5q-133 0 -234.5 39.5t-171 114.5t-105.5 180.5t-36 238.5v895h193v-889q0 -190 81 -297.5t273 -107.5q188 0 270 106.5t82 298.5v889h193v-895z" />
    <glyph glyph-name="V" unicode="V" horiz-adv-x="1286" 
d="M739 0h-190l-522 1448h206l414 -1210l416 1210h197z" />
    <glyph glyph-name="W" unicode="W" horiz-adv-x="1948" 
d="M1520 0h-199l-358 1069l-336 -1069h-199l-377 1448h201l289 -1184l331 1059h193l350 -1063l285 1188h196z" />
    <glyph glyph-name="X" unicode="X" horiz-adv-x="1300" 
d="M1266 0h-226l-395 586l-399 -586h-211l508 731l-492 717h225l386 -571l389 571h211l-496 -717z" />
    <glyph glyph-name="Y" unicode="Y" horiz-adv-x="1253" 
d="M723 0h-193v535l-507 913h217l387 -737l397 737h207l-508 -913v-535z" />
    <glyph glyph-name="Z" unicode="Z" horiz-adv-x="1128" 
d="M1053 0h-985l-13 119l760 1161h-739v168h975l12 -119l-760 -1161h750v-168z" />
    <glyph glyph-name="bracketleft" unicode="[" horiz-adv-x="819" 
d="M782 -455h-589v1956h589v-158h-403v-1640h403v-158z" />
    <glyph glyph-name="backslash" unicode="\" horiz-adv-x="938" 
d="M932 -207h-189l-737 1835h189z" />
    <glyph glyph-name="bracketright" unicode="]" horiz-adv-x="819" 
d="M627 -455h-590v158h403v1640h-403v158h590v-1956z" />
    <glyph glyph-name="asciicircum" unicode="^" horiz-adv-x="1143" 
d="M1057 659l-170 -26l-316 672l-315 -672l-170 26l379 789h213z" />
    <glyph glyph-name="underscore" unicode="_" horiz-adv-x="963" 
d="M963 -317h-963v159h963v-159z" />
    <glyph glyph-name="grave" unicode="`" horiz-adv-x="1024" 
d="M647 1202q-35 27 -85 68t-102 87t-100.5 92t-76.5 81l133 123q65 -82 152 -177.5t173 -181.5z" />
    <glyph glyph-name="a" unicode="a" horiz-adv-x="1049" 
d="M741 0q-6 29 -10 69t-6 68q-63 -67 -155.5 -107t-184.5 -40q-68 0 -124 23.5t-96 65.5t-62.5 100.5t-22.5 127.5q0 160 111.5 246t297.5 86q56 0 116.5 -6t119.5 -17v33q0 131 -63.5 203t-182.5 72q-71 0 -146 -25t-140 -61l-60 141q66 45 159 72.5t197 27.5
q199 0 305.5 -106.5t106.5 -306.5v-414q0 -68 5 -139.5t16 -112.5h-181zM725 483q-43 9 -91 12t-85 3q-289 0 -289 -189q0 -78 46 -121t126 -43q72 0 149.5 33t143.5 86v219z" />
    <glyph glyph-name="b" unicode="b" horiz-adv-x="1200" 
d="M322 0h-156v1526l182 16v-596q78 62 162 97.5t176 35.5q102 0 181 -45t132.5 -119.5t81 -171t27.5 -198.5q0 -115 -32 -217.5t-93 -180t-150.5 -122.5t-203.5 -45q-78 0 -154 23.5t-133 70.5zM348 219q55 -37 122 -59.5t136 -22.5q82 0 142.5 33t99.5 90t57.5 131
t18.5 158q0 76 -16.5 144.5t-50.5 118.5t-87 80t-125 30q-78 0 -158.5 -33t-138.5 -74v-596z" />
    <glyph glyph-name="c" unicode="c" horiz-adv-x="1012" 
d="M961 80q-76 -51 -173.5 -75.5t-195.5 -24.5q-121 0 -214 39.5t-156.5 112.5t-96.5 174.5t-33 223.5q0 119 32 219.5t95.5 174t157.5 114.5t219 41q106 0 194.5 -28.5t155.5 -71.5l-61 -143q-82 43 -151.5 64.5t-135.5 21.5q-152 0 -237 -101.5t-85 -290.5
q0 -84 19.5 -156.5t60.5 -124.5t103.5 -82t146.5 -30q78 0 151.5 23.5t141.5 62.5z" />
    <glyph glyph-name="d" unicode="d" horiz-adv-x="1192" 
d="M864 0q-10 41 -16 94q-66 -49 -153 -81.5t-179 -32.5q-102 0 -181 44t-133.5 117.5t-82 171t-27.5 205.5q0 117 32 218.5t93.5 178t150.5 120.5t205 44q66 0 135.5 -18.5t135.5 -65.5v531l182 16v-1290q0 -59 3 -126t18 -126h-183zM844 846q-60 39 -126.5 57.5
t-125.5 18.5q-84 0 -143.5 -33t-98.5 -88.5t-56.5 -130t-17.5 -158.5q0 -78 15.5 -146.5t50.5 -118.5t89 -80t132 -30q60 0 135.5 19.5t145.5 64.5v625z" />
    <glyph glyph-name="e" unicode="e" horiz-adv-x="1073" 
d="M961 80q-76 -51 -174.5 -75.5t-190.5 -24.5q-125 0 -219 40.5t-157.5 115.5t-95.5 178.5t-32 226.5q0 108 25.5 206.5t81 172t140.5 116.5t204 43q106 0 188 -35.5t137.5 -99t84 -153t28.5 -193.5q0 -76 -12 -133h-693q17 -152 97 -240t231 -88q78 0 152.5 23.5
t142.5 62.5zM801 610q-2 68 -18.5 126.5t-47 100.5t-78 65.5t-112.5 23.5q-68 0 -116 -24.5t-80 -67.5t-50 -100.5t-25 -123.5h527z" />
    <glyph glyph-name="f" unicode="f" horiz-adv-x="770" 
d="M440 0h-182v909h-231v150h231v76q0 202 88 308.5t289 106.5q53 0 97 -7t97 -21l-30 -152q-47 12 -83 17.5t-71 5.5q-70 0 -110.5 -19.5t-61 -57.5t-27 -93.5t-6.5 -126.5v-37h283v-150h-283v-909z" />
    <glyph glyph-name="g" unicode="g" horiz-adv-x="1188" 
d="M1026 47q0 -127 -26.5 -227.5t-84 -171t-148.5 -107.5t-218 -37q-107 0 -196 25t-181 76l61 143q80 -41 154 -64.5t150 -23.5q88 0 146 26.5t94 77t51.5 121t15.5 158.5v57q-66 -47 -151 -78.5t-177 -31.5q-102 0 -181 44t-133.5 117.5t-82 170t-27.5 198.5
q0 113 32 215.5t93.5 178t150.5 120.5t203 45q68 0 138.5 -19.5t138.5 -66.5l10 62l168 16v-1024zM844 846q-60 39 -126.5 57.5t-125.5 18.5q-84 0 -143.5 -33t-98.5 -89.5t-56.5 -131t-17.5 -158.5q0 -72 16.5 -137.5t52.5 -115.5t90 -80t128 -30q60 0 135.5 19.5
t145.5 64.5v615z" />
    <glyph glyph-name="h" unicode="h" horiz-adv-x="1186" 
d="M872 0q-14 59 -17 126t-3 126v403q0 56 -9 105t-30.5 85t-59.5 56.5t-94 20.5q-71 0 -153 -35t-158 -92v-795h-182v1526l182 16v-612q176 149 359 149q88 0 149.5 -32.5t101 -89t58 -132t18.5 -161.5v-412q0 -59 3 -126t18 -126h-183z" />
    <glyph glyph-name="i" unicode="i" horiz-adv-x="514" 
d="M348 0h-182v1055l182 16v-1071zM375 1425q0 -49 -33 -81.5t-86 -32.5t-86 32.5t-33 81.5q0 52 33 82.5t86 30.5t86 -30.5t33 -82.5z" />
    <glyph glyph-name="j" unicode="j" horiz-adv-x="506" 
d="M344 -80q0 -192 -84 -304t-240 -112q-92 0 -180 39l35 138q23 -11 52.5 -16t58.5 -5q106 0 141 84t35 264v1047l182 16v-1151zM371 1425q0 -49 -33 -81.5t-86 -32.5t-86 32.5t-33 81.5q0 52 33 82.5t86 30.5t86 -30.5t33 -82.5z" />
    <glyph glyph-name="k" unicode="k" horiz-adv-x="1059" 
d="M909 -20q-86 73 -189.5 203t-227.5 319l-144 -156v-346h-182v1526l182 16v-975l440 492h216l-394 -428q101 -158 201 -287t231 -252z" />
    <glyph glyph-name="l" unicode="l" horiz-adv-x="514" 
d="M348 0h-182v1526l182 16v-1542z" />
    <glyph glyph-name="m" unicode="m" horiz-adv-x="1774" 
d="M1460 0q-14 59 -17 126t-3 126v403q0 117 -42 192t-151 75q-65 0 -140 -30t-140 -77q8 -35 12 -72.5t4 -78.5v-412q0 -59 3 -126t18 -126h-183q-14 59 -17 126t-3 126v403q0 56 -9.5 105t-31 85t-57 56.5t-89.5 20.5q-65 0 -134.5 -30t-135.5 -79v-813h-182v1055l164 16
l14 -129q68 55 147.5 96t178.5 41q96 0 160.5 -43t101.5 -116q174 159 366 159q86 0 148.5 -32.5t102.5 -89t58.5 -132t18.5 -161.5v-412q0 -59 3 -126t17 -126h-182z" />
    <glyph glyph-name="n" unicode="n" horiz-adv-x="1182" 
d="M868 0q-14 59 -17 126t-3 126v403q0 56 -9.5 105t-31 85t-59 56.5t-93.5 20.5q-71 0 -153 -35t-158 -92v-795h-182v1055l164 16l16 -141q176 149 360 149q89 0 150 -32.5t101 -89t58.5 -132t18.5 -161.5v-412q0 -59 3 -126t18 -126h-183z" />
    <glyph glyph-name="o" unicode="o" horiz-adv-x="1188" 
d="M737 168q60 31 98.5 83t57 123.5t18.5 155.5q0 82 -18.5 154t-57 124t-98 83t-141.5 31q-84 0 -143.5 -31t-99.5 -83t-58.5 -124t-18.5 -154q0 -84 18.5 -155.5t58.5 -123.5t99.5 -83t143.5 -31q82 0 141 31zM967 131q-62 -72 -155 -111.5t-216 -39.5t-216 39.5
t-157.5 112.5t-97.5 174.5t-33 223.5q0 121 33 222.5t97.5 174t157.5 112.5t216 40q121 0 214 -40t156.5 -112.5t96.5 -174t33 -222.5q0 -122 -33 -223.5t-96 -175.5z" />
    <glyph glyph-name="p" unicode="p" horiz-adv-x="1196" 
d="M344 -475h-182v1530l164 16l14 -127q80 64 165 99.5t177 35.5q102 0 181 -45t132.5 -119.5t81 -171t27.5 -198.5q0 -115 -33 -217.5t-94.5 -180t-150.5 -122.5t-201 -45q-156 0 -281 90v-545zM344 219q55 -37 121.5 -59.5t136.5 -22.5q82 0 142.5 33t99.5 90t57.5 131
t18.5 158q0 76 -16.5 144.5t-50.5 118.5t-87 80t-125 30q-78 0 -159 -33t-138 -74v-596z" />
    <glyph glyph-name="q" unicode="q" horiz-adv-x="1188" 
d="M1026 -475h-182v565q-66 -47 -151 -78.5t-177 -31.5q-102 0 -181 44t-133.5 117.5t-82 172t-27.5 208.5q0 113 32 214.5t93.5 178t150.5 120.5t203 44q68 0 139.5 -19.5t137.5 -66.5l10 62l168 16v-1546zM844 846q-60 39 -126.5 57.5t-125.5 18.5q-84 0 -143.5 -33
t-98.5 -88.5t-56.5 -130t-17.5 -158.5q0 -78 15.5 -146.5t50.5 -118.5t89 -80t132 -30q60 0 135.5 19.5t145.5 64.5v625z" />
    <glyph glyph-name="r" unicode="r" horiz-adv-x="776" 
d="M344 0h-182v1055l164 16l18 -162q66 80 136.5 125t150.5 45q55 0 123 -22l-43 -176q-31 10 -58.5 13t-50.5 3q-80 0 -139.5 -30.5t-118.5 -84.5v-782z" />
    <glyph glyph-name="s" unicode="s" horiz-adv-x="952" 
d="M782 836q-82 41 -157.5 65.5t-149.5 24.5q-39 0 -74.5 -8.5t-63.5 -24.5t-44.5 -40t-16.5 -56q0 -35 19.5 -62.5t52.5 -49t78 -39t94 -34.5q62 -20 123.5 -44.5t112.5 -62.5t82.5 -93.5t31.5 -135.5q0 -83 -33.5 -139.5t-90 -91.5t-130 -50t-153.5 -15q-101 0 -199 23.5
t-182 76.5l63 143q80 -41 167 -65.5t167 -24.5q39 0 77 7t67.5 22.5t47 42t17.5 63.5t-20.5 65.5t-55 50.5t-84 41t-104.5 38q-59 20 -118.5 46t-106.5 62.5t-76 89t-29 123.5q0 74 31 129.5t83 92t121.5 55t149.5 18.5q90 0 186.5 -23.5t178.5 -76.5z" />
    <glyph glyph-name="t" unicode="t" horiz-adv-x="797" 
d="M760 18q-53 -22 -92 -30t-84 -8q-92 0 -154.5 29.5t-100.5 83.5t-54.5 131t-16.5 169v516h-231v150h231v262l182 16v-278h277v-150h-277v-493q0 -49 4.5 -99.5t19.5 -90.5t46 -64.5t84 -24.5q63 0 131 23z" />
    <glyph glyph-name="u" unicode="u" horiz-adv-x="1128" 
d="M805 0q-12 51 -17 102q-165 -122 -331 -122q-86 0 -148.5 32.5t-101.5 89t-57.5 132t-18.5 161.5v660l182 16v-668q0 -55 9.5 -104t31 -85t59.5 -56.5t93 -20.5q61 0 134 28t144 75v815l183 16v-819q0 -59 3 -126t17 -126h-182z" />
    <glyph glyph-name="v" unicode="v" horiz-adv-x="1008" 
d="M606 0h-205l-385 1059h201l285 -862l301 862h188z" />
    <glyph glyph-name="w" unicode="w" horiz-adv-x="1532" 
d="M1202 0h-207l-235 692l-221 -692h-207l-289 1059h182l213 -860l252 776h152l252 -780l225 864h170z" />
    <glyph glyph-name="x" unicode="x" horiz-adv-x="1001" 
d="M979 0h-201l-282 408l-281 -408h-192l376 547l-354 512h201l260 -379l258 379h192l-354 -514z" />
    <glyph glyph-name="y" unicode="y" horiz-adv-x="1008" 
d="M160 -391q94 104 151.5 191t106.5 184l-402 1075h201l287 -862l299 862h188l-348 -967q-68 -188 -159 -340.5t-199 -263.5z" />
    <glyph glyph-name="z" unicode="z" horiz-adv-x="944" 
d="M864 0h-794l-13 129l580 776h-541v154h756l12 -129l-579 -776h579v-154z" />
    <glyph glyph-name="braceleft" unicode="{" horiz-adv-x="895" 
d="M862 -459q-22 -6 -67 -11t-95 -5q-102 0 -171.5 26.5t-111.5 74.5t-60.5 116t-18.5 152q0 77 9 156t9 140q0 78 -21.5 127.5t-58 77t-87 36.5t-105.5 9v166q55 0 105.5 9.5t87 37t58 76.5t21.5 127q0 62 -9 140.5t-9 156.5q0 84 18.5 152.5t60.5 116.5t111.5 74t171.5 26
q50 0 95 -5.5t67 -11.5l-24 -155q-35 6 -62.5 8t-50.5 2q-107 0 -154 -46t-47 -161q0 -63 9.5 -140t9.5 -141q0 -135 -56.5 -220t-154.5 -130q98 -43 154.5 -128t56.5 -220q0 -65 -9.5 -141t-9.5 -139q0 -113 47 -160t156 -47q21 0 48.5 2t62.5 8z" />
    <glyph glyph-name="bar" unicode="|" horiz-adv-x="682" 
d="M434 -475l-186 -17v2018l186 16v-2017z" />
    <glyph glyph-name="braceright" unicode="}" horiz-adv-x="895" 
d="M811 440q-55 0 -105.5 -9t-87 -36.5t-58 -77t-21.5 -127.5q0 -61 9 -140t9 -156q0 -84 -18.5 -152t-60.5 -116t-111.5 -74.5t-171.5 -26.5q-50 0 -95 5t-67 11l24 156q35 -6 62.5 -8t48.5 -2q108 0 155.5 47t47.5 160q0 63 -9.5 139t-9.5 141q0 135 56.5 220t154.5 128
q-98 45 -154.5 130t-56.5 220q0 64 9.5 141t9.5 140q0 115 -47.5 161t-153.5 46q-23 0 -50.5 -2t-62.5 -8l-24 155q22 6 67 11.5t95 5.5q102 0 171.5 -26t111.5 -74t60.5 -116.5t18.5 -152.5q0 -78 -9 -156.5t-9 -140.5q0 -78 21.5 -127t58 -76.5t87 -37t105.5 -9.5v-166z
" />
    <glyph glyph-name="asciitilde" unicode="~" horiz-adv-x="1143" 
d="M1063 782q-29 -55 -59.5 -98t-66.5 -73.5t-80 -47t-101 -16.5q-54 0 -108 23.5t-103 52.5q-47 26 -88 46.5t-76 20.5q-62 0 -101.5 -44t-76.5 -111l-123 88q29 55 59.5 98t66.5 73.5t80 47t101 16.5q53 0 107.5 -23.5t103.5 -52.5q47 -26 88 -46.5t76 -20.5q61 0 101 44
t77 111z" />
    <glyph glyph-name="exclamdown" unicode="&#xa1;" horiz-adv-x="553" 
d="M369 -389l-183 -17v1037h183v-1020zM371 866q-33 -35 -95 -35q-63 0 -96 35t-33 90q0 54 33 88.5t96 34.5q62 0 96 -34.5t34 -88.5q0 -55 -35 -90z" />
    <glyph glyph-name="cent" unicode="&#xa2;" horiz-adv-x="1143" 
d="M727 -244l-152 -14v303q-102 14 -180 59.5t-130 117t-79.5 165.5t-27.5 205q0 108 26.5 201.5t78.5 164t130 116.5t182 61v290l152 15v-303q86 -9 156.5 -35.5t128.5 -61.5l-62 -143q-63 33 -117.5 53.5t-105.5 28.5v-778q64 8 123 29.5t115 54.5l61 -144
q-63 -41 -140 -65.5t-159 -32.5v-287zM575 973q-110 -29 -171.5 -125t-61.5 -256q0 -143 56.5 -246.5t176.5 -136.5v764z" />
    <glyph glyph-name="sterling" unicode="&#xa3;" horiz-adv-x="1143" 
d="M1087 0h-903l-12 119q51 49 83 101t48 104.5t21.5 100.5t5.5 87q0 33 -2 64.5t-6 62.5h-199v154h174q-8 47 -13 95t-5 99q0 84 20 164t68.5 141.5t128 98t198.5 36.5q133 0 229.5 -45t178.5 -110l-92 -137q-80 59 -148.5 90.5t-161.5 31.5q-53 0 -95 -12t-71.5 -43
t-46 -83t-16.5 -132q0 -51 5 -99t13 -95h332v-154h-307q4 -33 6 -63.5t2 -63.5q0 -92 -22.5 -177t-69.5 -167h657v-168z" />
    <glyph glyph-name="currency" unicode="&#xa4;" horiz-adv-x="1143" 
d="M1073 307l-106 -106l-154 151q-51 -30 -111.5 -47.5t-130.5 -17.5q-69 0 -130.5 17.5t-112.5 47.5l-152 -151l-106 106l147 148q-35 51 -54.5 113.5t-19.5 133.5q0 144 76 248l-149 150l106 106l152 -153q51 32 112.5 49.5t130.5 17.5q68 0 129.5 -17.5t112.5 -49.5
l154 153l106 -106l-149 -150q34 -51 54.5 -113.5t20.5 -134.5q0 -143 -75 -247zM571 451q121 0 187.5 71.5t66.5 182.5q0 108 -66.5 179.5t-187.5 71.5q-120 0 -187 -71.5t-67 -179.5q0 -111 67 -182.5t187 -71.5z" />
    <glyph glyph-name="yen" unicode="&#xa5;" horiz-adv-x="1143" 
d="M973 240h-307v-240h-187v240h-307v147h307v162h-307v147h262l-366 711h206l297 -637l306 637h198l-366 -711h264v-147h-307v-162h307v-147z" />
    <glyph glyph-name="brokenbar" unicode="&#xa6;" horiz-adv-x="682" 
d="M434 -475l-186 -17v842l186 17v-842zM434 700l-186 -16v842l186 16v-842z" />
    <glyph glyph-name="section" unicode="&#xa7;" horiz-adv-x="1245" 
d="M311 43q82 -41 158 -65.5t149 -24.5q39 0 75 7t63.5 24.5t44 43t16.5 62.5q0 43 -22.5 75t-57.5 54.5t-78 38.5t-86 31q-61 20 -126.5 45.5t-120 62.5t-89 90.5t-34.5 128.5q0 99 57 171.5t148 119.5q-70 39 -116 100.5t-46 159.5q0 78 30.5 134.5t84 93.5t123 55
t149.5 18q88 0 184 -23.5t178 -76.5l-61 -143q-82 41 -158 65.5t-149 24.5q-39 0 -75 -7.5t-63.5 -24.5t-44 -43t-16.5 -62q0 -43 22.5 -75t57.5 -54.5t78 -39t86 -30.5q61 -23 126.5 -47.5t120 -61t89 -90t34.5 -129.5q0 -98 -57 -170.5t-147 -120.5q69 -38 115 -99.5
t46 -160.5q0 -77 -30.5 -133.5t-84 -93.5t-123 -55.5t-149.5 -18.5q-88 0 -184 23.5t-178 77.5zM717 416q80 47 111.5 95t31.5 99q0 41 -17.5 71t-53 54.5t-89 47t-125.5 51.5l-47 18q-79 -47 -111 -95t-32 -100q0 -41 17.5 -70.5t53.5 -54t89 -48t125 -50.5z" />
    <glyph glyph-name="dieresis" unicode="&#xa8;" horiz-adv-x="1024" 
d="M381 1303q-31 -31 -84 -31t-84 31.5t-31 78.5q0 48 31 78.5t84 30.5t84 -30.5t31 -78.5q0 -47 -31 -79zM811 1303q-31 -31 -84 -31t-84 31.5t-31 78.5q0 48 31 78.5t84 30.5t84 -30.5t31 -78.5q0 -47 -31 -79z" />
    <glyph glyph-name="copyright" unicode="&#xa9;" horiz-adv-x="1710" 
d="M1120 397q-49 -28 -112.5 -46.5t-133.5 -18.5q-90 0 -155.5 31.5t-109.5 86t-65.5 125t-21.5 148.5t21.5 148.5t65.5 125t109.5 87t155.5 32.5q70 0 133.5 -18.5t112.5 -46.5l-57 -131q-105 43 -184 43q-56 0 -92.5 -20.5t-59 -54.5t-32 -77t-9.5 -88t9.5 -88t32 -76
t59 -53.5t92.5 -20.5q79 0 184 43zM1092 178q106 43 183 121t119 185.5t42 236.5t-42 236.5t-119 185.5t-183.5 122t-235.5 44t-235.5 -44t-183.5 -122t-120 -185.5t-43 -236.5t43 -236.5t120 -185.5t183.5 -121t235.5 -43t236 43zM1544 424q-55 -135 -154.5 -234.5
t-236.5 -154.5t-299 -55t-298 55t-235.5 154.5t-154.5 235.5t-55 298t55 299t154.5 236.5t235.5 154.5t298 55t299 -55t236.5 -154.5t154.5 -236.5t55 -299t-55 -299z" />
    <glyph glyph-name="ordfeminine" unicode="&#xaa;" horiz-adv-x="741" 
d="M500 768q-4 10 -6 27.5t-5 29.5q-47 -32 -99 -47.5t-105 -15.5q-109 0 -164 59.5t-55 153.5q0 117 77.5 173t200.5 56q21 0 61.5 -2t83.5 -12v31q0 63 -38.5 89.5t-102.5 26.5q-53 0 -102 -15t-82 -36l-58 117q41 27 112 46t149 19q129 0 200.5 -64.5t71.5 -195.5v-260
q0 -37 2 -82t16 -98h-157zM489 1079q-30 4 -63 5t-49 1q-31 0 -59.5 -6t-51 -18t-36 -31.5t-13.5 -46.5q0 -43 29.5 -67.5t77 -24.5t92.5 19.5t73 41.5v127z" />
    <glyph glyph-name="guillemotleft" unicode="&#xab;" horiz-adv-x="1130" 
d="M600 104h-201l-297 400v49l297 399h201l-305 -424zM1028 104h-201l-297 400v49l297 399h201l-305 -424z" />
    <glyph glyph-name="logicalnot" unicode="&#xac;" horiz-adv-x="1143" 
d="M1001 475h-159v297h-701v160h860v-457z" />
    <glyph glyph-name="registered" unicode="&#xae;" horiz-adv-x="1710" 
d="M1092 178q159 66 251.5 207t92.5 336q0 129 -42 236.5t-119 185.5t-183.5 122t-235.5 44t-235.5 -44t-183.5 -122t-120 -185.5t-43 -236.5t43 -236.5t120 -185.5t183.5 -121t234.5 -43t237 43zM1544 424q-41 -100 -108.5 -182t-155.5 -140.5t-195.5 -90t-230.5 -31.5
q-162 0 -298 55t-235.5 154.5t-154.5 235.5t-55 298t55 299t154.5 236.5t235.5 154.5t298 55t299 -55t236.5 -154.5t154.5 -236.5t55 -299t-55 -299zM1065 346q-74 78 -130 145.5t-108 143.5h-71v-279h-152v746h291q104 0 174 -55.5t70 -178.5q0 -176 -156 -215
q53 -73 101.5 -124.5t99.5 -98.5zM879 764q41 0 75.5 21.5t34.5 83t-34.5 81t-75.5 19.5h-123v-205h123z" />
    <glyph glyph-name="macron" unicode="&#xaf;" horiz-adv-x="1024" 
d="M844 1309h-664v149h664v-149z" />
    <glyph glyph-name="degree" unicode="&#xb0;" horiz-adv-x="745" 
d="M487 1016q43 39 43 110q0 72 -43 112t-114 40q-72 0 -115 -40t-43 -112q0 -71 43 -110t115 -39q71 0 114 39zM694 1126q0 -143 -89 -221t-232 -78q-144 0 -233 78t-89 221q0 144 89 222.5t233 78.5q143 0 232 -78.5t89 -222.5z" />
    <glyph glyph-name="plusminus" unicode="&#xb1;" horiz-adv-x="1143" 
d="M1001 2h-860v160h860v-160zM1001 684h-350v-350h-159v350h-351v160h351v350h159v-350h350v-160z" />
    <glyph glyph-name="uni00B2" unicode="&#xb2;" horiz-adv-x="819" 
d="M686 600h-557q-4 21 -4 53q0 74 25.5 130.5t64.5 101.5t84 77.5t86 61.5q55 39 94 77t39 85q0 43 -32.5 67.5t-86.5 24.5q-53 0 -105 -22.5t-91 -57.5l-84 117q57 53 135 82.5t156 29.5q57 0 106 -16t86 -47t57.5 -75t20.5 -97q0 -49 -17.5 -89t-47 -72t-66.5 -59.5
t-74 -51.5q-57 -39 -104 -82t-70 -97h385v-141z" />
    <glyph glyph-name="uni00B3" unicode="&#xb3;" horiz-adv-x="819" 
d="M162 809q47 -41 101 -60.5t108 -19.5q61 0 111 26.5t50 86.5q0 51 -36.5 75.5t-94.5 24.5h-110v137h86q51 0 88 24.5t37 76.5q0 49 -35 73.5t-86 24.5q-96 0 -195 -80l-84 117q58 51 134.5 81.5t158.5 30.5q51 0 100.5 -14t86 -42t59.5 -68.5t23 -92.5q0 -65 -35 -111
t-94 -83q75 -27 117 -79t42 -124q0 -59 -26.5 -102t-71.5 -73t-101.5 -44t-113.5 -14q-80 0 -157 26.5t-146 85.5z" />
    <glyph glyph-name="acute" unicode="&#xb4;" horiz-adv-x="1024" 
d="M741 1530q-28 -35 -76.5 -81t-100.5 -92t-102 -87t-85 -68l-94 92q86 86 173 181.5t152 177.5z" />
    <glyph glyph-name="uni00B5" unicode="&#xb5;" horiz-adv-x="1204" 
d="M1184 18q-105 -38 -176 -38q-72 0 -113 32.5t-61 96.5q-78 -80 -155 -104.5t-130 -24.5q-66 0 -117 21.5t-88 53.5v-530h-182v1530l182 16v-729q0 -55 17.5 -94t47 -63.5t69.5 -36t83 -11.5q70 0 131.5 28t126.5 93v797l182 16v-821q0 -47 11.5 -80t52.5 -33q29 0 86 23z
" />
    <glyph glyph-name="paragraph" unicode="&#xb6;" horiz-adv-x="1280" 
d="M1094 -311l-176 -17v1626h-195v-1609l-176 -17v1088h-96q-101 0 -173.5 27.5t-118.5 74.5t-68.5 109.5t-22.5 132.5t22.5 132t68.5 109.5t118.5 75t173.5 27.5h643v-1759z" />
    <glyph glyph-name="periodcentered" unicode="&#xb7;" horiz-adv-x="508" 
d="M350 440q-33 -34 -96 -34q-61 0 -95 34.5t-34 87.5q0 56 34 90.5t95 34.5q63 0 96 -34.5t33 -90.5q0 -53 -33 -88z" />
    <glyph glyph-name="cedilla" unicode="&#xb8;" horiz-adv-x="1024" 
d="M352 -352q17 -4 39.5 -8.5t44.5 -4.5q43 0 74 16.5t31 53.5q0 41 -37 60.5t-78 19.5q-18 0 -33.5 -2t-27.5 -6l32 274h138l-21 -170q82 -12 136.5 -61t54.5 -127q0 -82 -60.5 -135.5t-175.5 -53.5q-45 0 -83 8.5t-67 20.5z" />
    <glyph glyph-name="uni00B9" unicode="&#xb9;" horiz-adv-x="819" 
d="M565 600h-159v645l-209 -74l-52 127l297 109h123v-807z" />
    <glyph glyph-name="ordmasculine" unicode="&#xba;" horiz-adv-x="821" 
d="M412 907q86 0 124.5 58.5t38.5 148.5q0 86 -38.5 145.5t-124.5 59.5q-90 0 -128 -59.5t-38 -145.5q0 -90 38 -148.5t128 -58.5zM653 854q-82 -96 -242.5 -96t-242.5 97t-82 258t82 258t242.5 97t242.5 -97t82 -258t-82 -259z" />
    <glyph glyph-name="guillemotright" unicode="&#xbb;" horiz-adv-x="1130" 
d="M303 104h-201l306 424l-306 424h201l297 -399v-49zM731 104h-201l306 424l-306 424h201l297 -399v-49z" />
    <glyph glyph-name="onequarter" unicode="&#xbc;" horiz-adv-x="1849" 
d="M618 0h-172l695 1407h172zM1542 0h-149v166h-402l-12 100l360 541h203v-508h115v-133h-115v-166zM1393 299v346l-234 -346h234zM565 600h-159v645l-209 -74l-52 127l297 109h123v-807z" />
    <glyph glyph-name="onehalf" unicode="&#xbd;" horiz-adv-x="1849" 
d="M575 0h-172l695 1407h172zM1669 0h-557q-4 20 -4 53q0 74 25.5 130.5t64.5 101.5t84 77.5t86 61.5q55 39 94 77t39 85q0 43 -32.5 67.5t-86.5 24.5q-53 0 -105 -22.5t-91 -57.5l-84 117q57 53 135 82.5t156 29.5q57 0 106 -16t86 -47t57.5 -75t20.5 -97q0 -49 -17.5 -89
t-47 -72t-66.5 -59.5t-74 -52.5q-57 -38 -104 -81t-70 -97h385v-141zM524 600h-159v645l-209 -74l-52 127l297 109h123v-807z" />
    <glyph glyph-name="threequarters" unicode="&#xbe;" horiz-adv-x="1849" 
d="M707 0h-172l694 1407h172zM1630 0h-149v166h-402l-12 100l360 541h203v-508h115v-133h-115v-166zM1481 299v346l-234 -346h234zM188 809q48 -41 102 -60.5t107 -19.5q62 0 112 26.5t50 86.5q0 51 -37 75.5t-94 24.5h-111v137h86q52 0 88.5 24.5t36.5 76.5
q0 49 -34.5 73.5t-85.5 24.5q-97 0 -195 -80l-84 117q57 51 134 81.5t159 30.5q51 0 100 -14t86 -42t59.5 -68.5t22.5 -92.5q0 -65 -34.5 -111t-94.5 -83q76 -27 118 -79t42 -124q0 -59 -26.5 -102t-71.5 -73t-101.5 -44t-113.5 -14q-80 0 -157 26.5t-147 85.5z" />
    <glyph glyph-name="questiondown" unicode="&#xbf;" horiz-adv-x="1038" 
d="M977 -252q-29 -24 -70 -53t-93 -51.5t-115.5 -38t-135.5 -15.5q-90 0 -170 26t-140 74t-95 115.5t-35 151.5q0 57 17.5 103t45 87t63.5 77t73 71q71 65 129.5 142t68.5 194h182q0 -76 -20 -136.5t-53 -110.5t-74 -93t-80 -82q-61 -59 -108.5 -118.5t-47.5 -137.5
q0 -49 19.5 -84t53.5 -58.5t78 -35t93 -11.5q88 0 174 33t162 86zM705 866q-33 -35 -95 -35q-63 0 -96 35t-33 90q0 54 33 88.5t96 34.5q62 0 95.5 -34.5t33.5 -88.5q0 -55 -34 -90z" />
    <glyph glyph-name="Agrave" unicode="&#xc0;" horiz-adv-x="1382" 
d="M1356 0h-207l-162 424h-602l-162 -424h-196l575 1448h178zM926 586l-240 631l-240 -631h480zM903 1587q-43 8 -106.5 23.5t-130 35t-129 41t-103.5 39.5l66 168q98 -45 214.5 -93t231.5 -89z" />
    <glyph glyph-name="Aacute" unicode="&#xc1;" horiz-adv-x="1382" 
d="M1356 0h-207l-162 424h-602l-162 -424h-196l575 1448h178zM926 586l-240 631l-240 -631h480zM946 1726q-41 -18 -103.5 -39.5t-129 -41t-130 -35t-106.5 -23.5l-43 125q115 41 231.5 89t215.5 93z" />
    <glyph glyph-name="Acircumflex" unicode="&#xc2;" horiz-adv-x="1382" 
d="M1356 0h-207l-162 424h-602l-162 -424h-196l575 1448h178zM926 586l-240 631l-240 -631h480zM1008 1591q-107 37 -179.5 66t-138.5 57q-65 -28 -138 -57t-179 -66l-41 119q102 51 183 96t149 86h53q67 -41 148 -86t184 -96z" />
    <glyph glyph-name="Atilde" unicode="&#xc3;" horiz-adv-x="1382" 
d="M1356 0h-207l-162 424h-602l-162 -424h-196l575 1448h178zM926 586l-240 631l-240 -631h480zM1040 1825q2 -10 2 -20.5v-20.5q0 -96 -56 -152.5t-155 -56.5q-49 0 -91 17.5t-70 39.5q-27 21 -51.5 36t-59.5 15q-74 0 -74 -88l-145 -12q-2 10 -2 20.5v20.5
q0 96 56.5 152.5t154.5 56.5q49 0 91 -17.5t71 -39.5q26 -21 50.5 -36.5t59.5 -15.5q74 0 74 88z" />
    <glyph glyph-name="Adieresis" unicode="&#xc4;" horiz-adv-x="1382" 
d="M1356 0h-207l-162 424h-602l-162 -424h-196l575 1448h178zM926 586l-240 631l-240 -631h480zM559 1632q-31 -30 -84 -30t-84 31.5t-31 78.5t31 78t84 31t84 -31t31 -78t-31 -80zM989 1632q-31 -30 -84 -30t-83.5 31.5t-30.5 78.5t30.5 78t83.5 31t84 -31t31 -78t-31 -80z
" />
    <glyph glyph-name="Aring" unicode="&#xc5;" horiz-adv-x="1382" 
d="M1356 0h-207l-162 424h-602l-162 -424h-196l536 1350q-125 57 -125 206q0 105 65.5 168.5t182.5 63.5t182.5 -63.5t65.5 -168.5q0 -69 -30 -122.5t-87 -81.5zM926 586l-240 631l-240 -631h480zM686 1446q57 0 87 31.5t30 78.5q0 48 -30 78.5t-87 30.5t-87 -30.5
t-30 -78.5q0 -47 30 -78.5t87 -31.5z" />
    <glyph glyph-name="AE" unicode="&#xc6;" horiz-adv-x="1933" 
d="M1839 0h-901v424h-481l-234 -424h-207l820 1448h1003v-168h-709v-469h578v-168h-578v-475h709v-168zM938 586v706l-391 -706h391z" />
    <glyph glyph-name="Ccedilla" unicode="&#xc7;" horiz-adv-x="1315" 
d="M1262 106q-80 -49 -198 -83.5t-247 -40.5l-10 -93q82 -12 138 -62t56 -130q0 -82 -63.5 -137.5t-175.5 -55.5q-45 0 -83 8.5t-67 20.5l33 123q17 -4 39.5 -8t48.5 -4q39 0 67.5 14t28.5 51q0 41 -32.5 58.5t-75.5 17.5q-19 0 -35 -2t-29 -6l25 209q-147 14 -255 80.5
t-178.5 166t-104 226.5t-33.5 264q0 147 39.5 282.5t122.5 239t209 163.5t298 60q140 0 263.5 -35.5t218.5 -91.5l-70 -155q-129 63 -235.5 85.5t-180.5 22.5q-125 0 -214 -47t-145.5 -127t-83 -183t-26.5 -214t26.5 -213t83 -182t145.5 -127t214 -47q74 0 180.5 22.5
t235.5 85.5z" />
    <glyph glyph-name="Egrave" unicode="&#xc8;" horiz-adv-x="1182" 
d="M1087 0h-901v1448h901v-168h-708v-469h577v-168h-577v-475h708v-168zM823 1587q-43 8 -106.5 23.5t-130 35t-129 41t-103.5 39.5l66 168q98 -45 215 -93t231 -89z" />
    <glyph glyph-name="Eacute" unicode="&#xc9;" horiz-adv-x="1182" 
d="M1087 0h-901v1448h901v-168h-708v-469h577v-168h-577v-475h708v-168zM891 1726q-41 -18 -103.5 -39.5t-129 -41t-130 -35t-106.5 -23.5l-43 125q115 41 231.5 89t214.5 93z" />
    <glyph glyph-name="Ecircumflex" unicode="&#xca;" horiz-adv-x="1182" 
d="M1087 0h-901v1448h901v-168h-708v-469h577v-168h-577v-475h708v-168zM952 1591q-106 37 -179 66t-138 57q-66 -28 -138.5 -57t-179.5 -66l-41 119q103 51 184 96t148 86h54q67 -41 148 -86t183 -96z" />
    <glyph glyph-name="Edieresis" unicode="&#xcb;" horiz-adv-x="1182" 
d="M1087 0h-901v1448h901v-168h-708v-469h577v-168h-577v-475h708v-168zM504 1632q-31 -30 -84 -30t-84 31.5t-31 78.5t31 78t84 31t84 -31t31 -78t-31 -80zM934 1632q-31 -30 -84 -30t-84 31.5t-31 78.5t31 78t84 31t84 -31t31 -78t-31 -80z" />
    <glyph glyph-name="Igrave" unicode="&#xcc;" horiz-adv-x="586" 
d="M389 0h-192v1448h192v-1448zM526 1587q-43 8 -106.5 23.5t-130 35t-129 41t-103.5 39.5l66 168q98 -45 215 -93t231 -89z" />
    <glyph glyph-name="Iacute" unicode="&#xcd;" horiz-adv-x="586" 
d="M389 0h-192v1448h192v-1448zM549 1726q-41 -18 -103.5 -39.5t-129 -41t-130 -35t-106.5 -23.5l-43 125q115 41 231.5 89t214.5 93z" />
    <glyph glyph-name="Icircumflex" unicode="&#xce;" horiz-adv-x="586" 
d="M389 0h-192v1448h192v-1448zM610 1591q-106 37 -179 66t-138 57q-66 -28 -138.5 -57t-179.5 -66l-41 119q103 51 184 96t148 86h53q68 -41 149 -86t183 -96z" />
    <glyph glyph-name="Idieresis" unicode="&#xcf;" horiz-adv-x="586" 
d="M389 0h-192v1448h192v-1448zM213 1632q-31 -30 -84 -30t-84 31.5t-31 78.5t31 78t84 31t84 -31t31 -78t-31 -80zM541 1632q-31 -30 -84 -30q-54 0 -84.5 31.5t-30.5 78.5t30.5 78t84.5 31q53 0 83.5 -31t30.5 -78t-30 -80z" />
    <glyph glyph-name="Eth" unicode="&#xd0;" horiz-adv-x="1448" 
d="M641 168q117 0 210 42t157.5 115.5t98.5 175t34 222.5t-34 223.5t-98.5 176t-157.5 115.5t-210 42h-262v-461h287v-149h-287v-502h262zM186 0v670h-155v149h155v629h467q156 0 283 -53.5t216 -148.5t137 -229t48 -294t-48 -293t-137 -228.5t-216 -148.5t-283 -53h-467z
" />
    <glyph glyph-name="Ntilde" unicode="&#xd1;" horiz-adv-x="1477" 
d="M1290 0h-188l-727 1126v-1126h-189v1448h189l727 -1126v1126h188v-1448zM1090 1825q2 -10 2 -20.5v-20.5q0 -96 -56.5 -152.5t-154.5 -56.5q-50 0 -91.5 17.5t-70.5 39.5q-27 21 -51.5 36t-59.5 15q-73 0 -73 -88l-146 -12q-2 10 -2 20.5v20.5q0 96 56.5 152.5
t154.5 56.5q49 0 91 -17.5t71 -39.5q26 -21 51 -36.5t59 -15.5q74 0 74 88z" />
    <glyph glyph-name="Ograve" unicode="&#xd2;" horiz-adv-x="1524" 
d="M958 199q86 45 143.5 122.5t86.5 181t29 220.5t-29 221.5t-86.5 182t-142.5 122.5t-197 45q-113 0 -198 -45t-142 -122.5t-86 -182t-29 -221.5t29 -220.5t86 -181t142 -122.5t198 -45q112 0 196 45zM1239 193q-84 -101 -205 -157t-272 -56q-152 0 -272.5 56t-204.5 156.5
t-129 236.5t-45 294q0 160 45 296t129 235.5t204.5 156.5t272.5 57q151 0 272 -57t205 -156.5t129 -235.5t45 -296q0 -158 -45 -294t-129 -236zM975 1587q-43 8 -106.5 23.5t-130 35t-129 41t-103.5 39.5l65 168q99 -45 215.5 -93t231.5 -89z" />
    <glyph glyph-name="Oacute" unicode="&#xd3;" horiz-adv-x="1524" 
d="M958 199q86 45 143.5 122.5t86.5 181t29 220.5t-29 221.5t-86.5 182t-142.5 122.5t-197 45q-113 0 -198 -45t-142 -122.5t-86 -182t-29 -221.5t29 -220.5t86 -181t142 -122.5t198 -45q112 0 196 45zM1239 193q-84 -101 -205 -157t-272 -56q-152 0 -272.5 56t-204.5 156.5
t-129 236.5t-45 294q0 160 45 296t129 235.5t204.5 156.5t272.5 57q151 0 272 -57t205 -156.5t129 -235.5t45 -296q0 -158 -45 -294t-129 -236zM1018 1726q-41 -18 -103.5 -39.5t-129 -41t-130 -35t-106.5 -23.5l-43 125q115 41 231.5 89t214.5 93z" />
    <glyph glyph-name="Ocircumflex" unicode="&#xd4;" horiz-adv-x="1524" 
d="M958 199q86 45 143.5 122.5t86.5 181t29 220.5t-29 221.5t-86.5 182t-142.5 122.5t-197 45q-113 0 -198 -45t-142 -122.5t-86 -182t-29 -221.5t29 -220.5t86 -181t142 -122.5t198 -45q112 0 196 45zM1239 193q-84 -101 -205 -157t-272 -56q-152 0 -272.5 56t-204.5 156.5
t-129 236.5t-45 294q0 160 45 296t129 235.5t204.5 156.5t272.5 57q151 0 272 -57t205 -156.5t129 -235.5t45 -296q0 -158 -45 -294t-129 -236zM1079 1591q-106 37 -179 66t-138 57q-66 -28 -138.5 -57t-179.5 -66l-41 119q103 51 184 96t148 86h53q68 -41 149 -86t183 -96z
" />
    <glyph glyph-name="Otilde" unicode="&#xd5;" horiz-adv-x="1524" 
d="M958 199q86 45 143.5 122.5t86.5 181t29 220.5t-29 221.5t-86.5 182t-142.5 122.5t-197 45q-113 0 -198 -45t-142 -122.5t-86 -182t-29 -221.5t29 -220.5t86 -181t142 -122.5t198 -45q112 0 196 45zM1239 193q-84 -101 -205 -157t-272 -56q-152 0 -272.5 56t-204.5 156.5
t-129 236.5t-45 294q0 160 45 296t129 235.5t204.5 156.5t272.5 57q151 0 272 -57t205 -156.5t129 -235.5t45 -296q0 -158 -45 -294t-129 -236zM1112 1825q2 -10 2 -20.5v-20.5q0 -96 -56.5 -152.5t-154.5 -56.5q-49 0 -91 17.5t-71 39.5q-26 21 -50.5 36t-59.5 15
q-74 0 -74 -88l-145 -12q-2 10 -2 20.5v20.5q0 96 56 152.5t155 56.5q49 0 91 -17.5t70 -39.5q27 -21 51.5 -36.5t59.5 -15.5q74 0 74 88z" />
    <glyph glyph-name="Odieresis" unicode="&#xd6;" horiz-adv-x="1524" 
d="M958 199q86 45 143.5 122.5t86.5 181t29 220.5t-29 221.5t-86.5 182t-142.5 122.5t-197 45q-113 0 -198 -45t-142 -122.5t-86 -182t-29 -221.5t29 -220.5t86 -181t142 -122.5t198 -45q112 0 196 45zM1239 193q-84 -101 -205 -157t-272 -56q-152 0 -272.5 56t-204.5 156.5
t-129 236.5t-45 294q0 160 45 296t129 235.5t204.5 156.5t272.5 57q151 0 272 -57t205 -156.5t129 -235.5t45 -296q0 -158 -45 -294t-129 -236zM631 1632q-31 -30 -84 -30t-84 31.5t-31 78.5t31 78t84 31t84 -31t31 -78t-31 -80zM1061 1632q-31 -30 -84 -30t-84 31.5
t-31 78.5t31 78t84 31t84 -31t31 -78t-31 -80z" />
    <glyph glyph-name="multiply" unicode="&#xd7;" horiz-adv-x="1143" 
d="M954 432l-112 -113l-271 271l-270 -271l-113 113l271 270l-271 271l113 112l270 -270l271 270l112 -112l-270 -271z" />
    <glyph glyph-name="Oslash" unicode="&#xd8;" horiz-adv-x="1524" 
d="M184 -20l-114 104l163 178q-59 94 -90.5 211t-31.5 250q0 160 45 296t129 235.5t204.5 156.5t272.5 57q131 0 238.5 -43t189.5 -120l149 163l115 -104l-164 -180q60 -94 91.5 -211t31.5 -250q0 -158 -45 -294t-129 -236.5t-205 -156.5t-272 -56q-133 0 -240.5 41.5
t-189.5 119.5zM1065 1169q-55 60 -131 92.5t-172 32.5q-113 0 -198 -45t-142 -122.5t-86 -182t-29 -221.5q0 -86 15.5 -166t46.5 -147zM457 279q57 -60 132 -92.5t173 -32.5q112 0 197 45t142.5 122.5t86.5 181t29 220.5q0 86 -15.5 166t-48.5 147z" />
    <glyph glyph-name="Ugrave" unicode="&#xd9;" horiz-adv-x="1452" 
d="M1272 553q0 -133 -36 -238.5t-105.5 -180.5t-171 -114.5t-232.5 -39.5q-133 0 -234.5 39.5t-171 114.5t-105.5 180.5t-36 238.5v895h193v-889q0 -190 81 -297.5t273 -107.5q188 0 270 106.5t82 298.5v889h193v-895zM893 1587q-43 8 -106.5 23.5t-130 35t-129 41
t-103.5 39.5l65 168q99 -45 215.5 -93t231.5 -89z" />
    <glyph glyph-name="Uacute" unicode="&#xda;" horiz-adv-x="1452" 
d="M1272 553q0 -133 -36 -238.5t-105.5 -180.5t-171 -114.5t-232.5 -39.5q-133 0 -234.5 39.5t-171 114.5t-105.5 180.5t-36 238.5v895h193v-889q0 -190 81 -297.5t273 -107.5q188 0 270 106.5t82 298.5v889h193v-895zM1018 1726q-41 -18 -103.5 -39.5t-129 -41t-130 -35
t-106.5 -23.5l-43 125q115 41 231.5 89t214.5 93z" />
    <glyph glyph-name="Ucircumflex" unicode="&#xdb;" horiz-adv-x="1452" 
d="M1272 553q0 -133 -36 -238.5t-105.5 -180.5t-171 -114.5t-232.5 -39.5q-133 0 -234.5 39.5t-171 114.5t-105.5 180.5t-36 238.5v895h193v-889q0 -190 81 -297.5t273 -107.5q188 0 270 106.5t82 298.5v889h193v-895zM1042 1591q-106 37 -178.5 66t-138.5 57
q-66 -28 -138.5 -57t-178.5 -66l-41 119q102 51 183 96t148 86h54q67 -41 148 -86t183 -96z" />
    <glyph glyph-name="Udieresis" unicode="&#xdc;" horiz-adv-x="1452" 
d="M1272 553q0 -133 -36 -238.5t-105.5 -180.5t-171 -114.5t-232.5 -39.5q-133 0 -234.5 39.5t-171 114.5t-105.5 180.5t-36 238.5v895h193v-889q0 -190 81 -297.5t273 -107.5q188 0 270 106.5t82 298.5v889h193v-895zM594 1632q-31 -30 -84 -30t-84 31.5t-31 78.5t31 78
t84 31t84 -31t31 -78t-31 -80zM1024 1632q-31 -30 -84 -30t-84 31.5t-31 78.5t31 78t84 31t84 -31t31 -78t-31 -80z" />
    <glyph glyph-name="Yacute" unicode="&#xdd;" horiz-adv-x="1253" 
d="M723 0h-193v535l-507 913h217l387 -737l397 737h207l-508 -913v-535zM944 1726q-41 -18 -103.5 -39.5t-129 -41t-130 -35t-106.5 -23.5l-43 125q115 41 231.5 89t215.5 93z" />
    <glyph glyph-name="Thorn" unicode="&#xde;" horiz-adv-x="1225" 
d="M379 0h-193v1448h193v-277h311q103 0 189 -30.5t147 -88t96 -139.5t35 -182q0 -102 -35 -183t-96 -138.5t-147 -88t-189 -30.5h-311v-291zM680 459q125 0 203 74.5t78 197.5t-78 198t-203 75h-301v-545h301z" />
    <glyph glyph-name="germandbls" unicode="&#xdf;" horiz-adv-x="1167" 
d="M557 201q68 -35 112 -51.5t87 -16.5q73 0 115 41t42 113q0 37 -11 65.5t-32.5 53t-51.5 47t-66 45.5q-43 26 -79 50.5t-61.5 51.5t-39 58.5t-13.5 72.5q0 62 25.5 108t60.5 93q64 86 90.5 141t26.5 113q0 88 -54.5 147.5t-154.5 59.5q-72 0 -113 -30t-61.5 -73t-25.5 -89
t-5 -79v-1122h-182v1137q0 114 31.5 193t84 128t122 70.5t145.5 21.5q88 0 160.5 -25.5t125 -72.5t81 -112.5t28.5 -145.5q0 -41 -7 -75t-23.5 -68.5t-41 -72.5t-59.5 -87t-53.5 -79t-18.5 -56q0 -35 28 -58.5t75 -54.5q49 -33 95 -64.5t81 -70.5t55.5 -90t20.5 -121
q0 -154 -94.5 -235.5t-245.5 -81.5q-62 0 -128.5 16t-133.5 61z" />
    <glyph glyph-name="agrave" unicode="&#xe0;" horiz-adv-x="1049" 
d="M741 0q-6 29 -10 69t-6 68q-63 -67 -155.5 -107t-184.5 -40q-68 0 -124 23.5t-96 65.5t-62.5 100.5t-22.5 127.5q0 160 111.5 246t297.5 86q56 0 116.5 -6t119.5 -17v33q0 131 -63.5 203t-182.5 72q-71 0 -146 -25t-140 -61l-60 141q66 45 159 72.5t197 27.5
q199 0 305.5 -106.5t106.5 -306.5v-414q0 -68 5 -139.5t16 -112.5h-181zM725 483q-43 9 -91 12t-85 3q-289 0 -289 -189q0 -78 46 -121t126 -43q72 0 149.5 33t143.5 86v219zM604 1202q-35 27 -85 68t-102 87t-100.5 92t-76.5 81l133 123q65 -82 152 -177.5t173 -181.5z" />
    <glyph glyph-name="aacute" unicode="&#xe1;" horiz-adv-x="1049" 
d="M741 0q-6 29 -10 69t-6 68q-63 -67 -155.5 -107t-184.5 -40q-68 0 -124 23.5t-96 65.5t-62.5 100.5t-22.5 127.5q0 160 111.5 246t297.5 86q56 0 116.5 -6t119.5 -17v33q0 131 -63.5 203t-182.5 72q-71 0 -146 -25t-140 -61l-60 141q66 45 159 72.5t197 27.5
q199 0 305.5 -106.5t106.5 -306.5v-414q0 -68 5 -139.5t16 -112.5h-181zM725 483q-43 9 -91 12t-85 3q-289 0 -289 -189q0 -78 46 -121t126 -43q72 0 149.5 33t143.5 86v219zM735 1530q-28 -35 -76.5 -81t-100.5 -92t-102 -87t-85 -68l-95 92q86 86 173.5 181.5t152.5 177.5
z" />
    <glyph glyph-name="acircumflex" unicode="&#xe2;" horiz-adv-x="1049" 
d="M741 0q-6 29 -10 69t-6 68q-63 -67 -155.5 -107t-184.5 -40q-68 0 -124 23.5t-96 65.5t-62.5 100.5t-22.5 127.5q0 160 111.5 246t297.5 86q56 0 116.5 -6t119.5 -17v33q0 131 -63.5 203t-182.5 72q-71 0 -146 -25t-140 -61l-60 141q66 45 159 72.5t197 27.5
q199 0 305.5 -106.5t106.5 -306.5v-414q0 -68 5 -139.5t16 -112.5h-181zM725 483q-43 9 -91 12t-85 3q-289 0 -289 -189q0 -78 46 -121t126 -43q72 0 149.5 33t143.5 86v219zM760 1202q-25 19 -57.5 44.5t-68.5 55t-74 60.5t-71 59q-32 -28 -70 -59t-74 -60.5t-68.5 -55
t-57.5 -44.5l-92 92q51 47 96 89t85 81t78 77t77 79h53q76 -82 154 -156.5t182 -169.5z" />
    <glyph glyph-name="atilde" unicode="&#xe3;" horiz-adv-x="1049" 
d="M741 0q-6 29 -10 69t-6 68q-63 -67 -155.5 -107t-184.5 -40q-68 0 -124 23.5t-96 65.5t-62.5 100.5t-22.5 127.5q0 160 111.5 246t297.5 86q56 0 116.5 -6t119.5 -17v33q0 131 -63.5 203t-182.5 72q-71 0 -146 -25t-140 -61l-60 141q66 45 159 72.5t197 27.5
q199 0 305.5 -106.5t106.5 -306.5v-414q0 -68 5 -139.5t16 -112.5h-181zM725 483q-43 9 -91 12t-85 3q-289 0 -289 -189q0 -78 46 -121t126 -43q72 0 149.5 33t143.5 86v219zM838 1511q2 -10 3 -24t1 -31q0 -92 -58.5 -151.5t-150.5 -59.5q-60 0 -100.5 22.5t-71.5 49.5
q-25 22 -47.5 37.5t-48.5 15.5q-39 0 -58.5 -31.5t-19.5 -72.5l-146 -13q-2 11 -3 25t-1 31q0 92 58.5 151.5t150.5 59.5q60 0 100.5 -22.5t71.5 -49.5q25 -23 47.5 -38t48.5 -15q39 0 58.5 31.5t19.5 72.5z" />
    <glyph glyph-name="adieresis" unicode="&#xe4;" horiz-adv-x="1049" 
d="M741 0q-6 29 -10 69t-6 68q-63 -67 -155.5 -107t-184.5 -40q-68 0 -124 23.5t-96 65.5t-62.5 100.5t-22.5 127.5q0 160 111.5 246t297.5 86q56 0 116.5 -6t119.5 -17v33q0 131 -63.5 203t-182.5 72q-71 0 -146 -25t-140 -61l-60 141q66 45 159 72.5t197 27.5
q199 0 305.5 -106.5t106.5 -306.5v-414q0 -68 5 -139.5t16 -112.5h-181zM725 483q-43 9 -91 12t-85 3q-289 0 -289 -189q0 -78 46 -121t126 -43q72 0 149.5 33t143.5 86v219zM358 1303q-30 -31 -84 -31q-53 0 -83.5 31.5t-30.5 78.5q0 48 30.5 78.5t83.5 30.5
q54 0 84.5 -30.5t30.5 -78.5q0 -47 -31 -79zM788 1303q-30 -31 -83 -31q-54 0 -84.5 31.5t-30.5 78.5q0 48 30.5 78.5t84.5 30.5q53 0 83.5 -30.5t30.5 -78.5q0 -47 -31 -79z" />
    <glyph glyph-name="aring" unicode="&#xe5;" horiz-adv-x="1049" 
d="M741 0q-6 29 -10 69t-6 68q-63 -67 -155.5 -107t-184.5 -40q-68 0 -124 23.5t-96 65.5t-62.5 100.5t-22.5 127.5q0 160 111.5 246t297.5 86q56 0 116.5 -6t119.5 -17v33q0 131 -63.5 203t-182.5 72q-71 0 -146 -25t-140 -61l-60 141q66 45 159 72.5t197 27.5
q199 0 305.5 -106.5t106.5 -306.5v-414q0 -68 5 -139.5t16 -112.5h-181zM725 483q-43 9 -91 12t-85 3q-289 0 -289 -189q0 -78 46 -121t126 -43q72 0 149.5 33t143.5 86v219zM489 1317q58 0 87.5 30.5t29.5 77.5q0 48 -29.5 78.5t-87.5 30.5q-57 0 -86.5 -30.5t-29.5 -78.5
q0 -47 29.5 -77.5t86.5 -30.5zM737 1425q0 -104 -65.5 -167.5t-182.5 -63.5q-116 0 -181.5 63.5t-65.5 167.5q0 105 65.5 168.5t181.5 63.5q117 0 182.5 -63.5t65.5 -168.5z" />
    <glyph glyph-name="ae" unicode="&#xe6;" horiz-adv-x="1700" 
d="M1587 80q-76 -51 -174 -75.5t-188 -24.5q-140 0 -240 54t-162 150q-55 -59 -112.5 -97t-111.5 -59.5t-103.5 -29.5t-92.5 -8q-84 0 -145 25.5t-101 69.5t-58.5 101.5t-18.5 120.5q0 86 31.5 149.5t88 103.5t132.5 59.5t164 19.5q51 0 106 -6t123 -17v33q0 125 -60.5 200
t-185.5 75q-71 0 -146 -25t-140 -61l-60 141q68 45 160 72.5t188 27.5q123 0 207 -48t137 -134q58 86 144 134t209 48q104 0 184 -35.5t134 -100t83 -153t29 -194.5q0 -74 -13 -131h-692q17 -152 96.5 -240t231.5 -88q78 0 152.5 23.5t142.5 62.5zM600 186q90 43 166 111
q-16 51 -27 94q-8 45 -12 92q-59 11 -100 13t-70 2q-61 0 -115.5 -8.5t-94.5 -30t-63.5 -57t-23.5 -91.5q0 -80 47 -123t125 -43q80 0 168 41zM1427 610q-2 68 -18 126.5t-47 100.5t-78 65.5t-113 23.5q-67 0 -115 -24.5t-80 -67.5t-50.5 -100.5t-24.5 -123.5h526z" />
    <glyph glyph-name="ccedilla" unicode="&#xe7;" horiz-adv-x="1012" 
d="M961 80q-68 -47 -154 -70.5t-176 -27.5l-13 -101q82 -12 136.5 -61t54.5 -127q0 -82 -60.5 -135.5t-175.5 -53.5q-45 0 -82.5 8.5t-66.5 20.5l33 115q16 -4 38.5 -8.5t45.5 -4.5q43 0 73.5 16.5t30.5 53.5q0 41 -37 60.5t-78 19.5q-18 0 -33.5 -2t-27.5 -6l25 211
q-99 14 -173.5 60t-125 117t-77 164t-26.5 201q0 119 32 219.5t95.5 174t157.5 114.5t219 41q106 0 194.5 -28.5t155.5 -71.5l-61 -143q-82 43 -151.5 64.5t-135.5 21.5q-152 0 -237 -101.5t-85 -290.5q0 -84 19.5 -156.5t60.5 -124.5t103.5 -82t146.5 -30q78 0 151.5 23.5
t141.5 62.5z" />
    <glyph glyph-name="egrave" unicode="&#xe8;" horiz-adv-x="1073" 
d="M961 80q-76 -51 -174.5 -75.5t-190.5 -24.5q-125 0 -219 40.5t-157.5 115.5t-95.5 178.5t-32 226.5q0 108 25.5 206.5t81 172t140.5 116.5t204 43q106 0 188 -35.5t137.5 -99t84 -153t28.5 -193.5q0 -76 -12 -133h-693q17 -152 97 -240t231 -88q78 0 152.5 23.5
t142.5 62.5zM801 610q-2 68 -18.5 126.5t-47 100.5t-78 65.5t-112.5 23.5q-68 0 -116 -24.5t-80 -67.5t-50 -100.5t-25 -123.5h527zM647 1202q-35 27 -85 68t-102 87t-100.5 92t-76.5 81l133 123q65 -82 152 -177.5t173 -181.5z" />
    <glyph glyph-name="eacute" unicode="&#xe9;" horiz-adv-x="1073" 
d="M961 80q-76 -51 -174.5 -75.5t-190.5 -24.5q-125 0 -219 40.5t-157.5 115.5t-95.5 178.5t-32 226.5q0 108 25.5 206.5t81 172t140.5 116.5t204 43q106 0 188 -35.5t137.5 -99t84 -153t28.5 -193.5q0 -76 -12 -133h-693q17 -152 97 -240t231 -88q78 0 152.5 23.5
t142.5 62.5zM801 610q-2 68 -18.5 126.5t-47 100.5t-78 65.5t-112.5 23.5q-68 0 -116 -24.5t-80 -67.5t-50 -100.5t-25 -123.5h527zM821 1530q-28 -35 -76.5 -81t-100.5 -92t-102 -87t-85 -68l-95 92q87 86 174 181.5t152 177.5z" />
    <glyph glyph-name="ecircumflex" unicode="&#xea;" horiz-adv-x="1073" 
d="M961 80q-76 -51 -174.5 -75.5t-190.5 -24.5q-125 0 -219 40.5t-157.5 115.5t-95.5 178.5t-32 226.5q0 108 25.5 206.5t81 172t140.5 116.5t204 43q106 0 188 -35.5t137.5 -99t84 -153t28.5 -193.5q0 -76 -12 -133h-693q17 -152 97 -240t231 -88q78 0 152.5 23.5
t142.5 62.5zM801 610q-2 68 -18.5 126.5t-47 100.5t-78 65.5t-112.5 23.5q-68 0 -116 -24.5t-80 -67.5t-50 -100.5t-25 -123.5h527zM807 1202q-25 19 -57.5 44.5t-68.5 55t-74 60.5t-70 59q-33 -28 -71 -59t-74 -60.5t-68.5 -55t-57.5 -44.5l-92 92q51 47 96 89t85 81t78 77
t77 79h53q76 -82 154 -156.5t182 -169.5z" />
    <glyph glyph-name="edieresis" unicode="&#xeb;" horiz-adv-x="1073" 
d="M961 80q-76 -51 -174.5 -75.5t-190.5 -24.5q-125 0 -219 40.5t-157.5 115.5t-95.5 178.5t-32 226.5q0 108 25.5 206.5t81 172t140.5 116.5t204 43q106 0 188 -35.5t137.5 -99t84 -153t28.5 -193.5q0 -76 -12 -133h-693q17 -152 97 -240t231 -88q78 0 152.5 23.5
t142.5 62.5zM801 610q-2 68 -18.5 126.5t-47 100.5t-78 65.5t-112.5 23.5q-68 0 -116 -24.5t-80 -67.5t-50 -100.5t-25 -123.5h527zM406 1303q-31 -31 -84 -31q-54 0 -84.5 31.5t-30.5 78.5q0 48 30.5 78.5t84.5 30.5q53 0 83.5 -30.5t30.5 -78.5q0 -47 -30 -79zM836 1303
q-31 -31 -84 -31q-54 0 -84.5 31.5t-30.5 78.5q0 48 30.5 78.5t84.5 30.5q53 0 83.5 -30.5t30.5 -78.5q0 -47 -30 -79z" />
    <glyph glyph-name="igrave" unicode="&#xec;" horiz-adv-x="514" 
d="M348 0h-182v1055l182 16v-1071zM399 1202q-34 27 -84.5 68t-102.5 87t-100.5 92t-76.5 81l133 123q65 -82 152.5 -177.5t173.5 -181.5z" />
    <glyph glyph-name="iacute" unicode="&#xed;" horiz-adv-x="514" 
d="M348 0h-182v1055l182 16v-1071zM475 1530q-29 -35 -77 -81t-100 -92t-102.5 -87t-84.5 -68l-95 92q86 86 173 181.5t153 177.5z" />
    <glyph glyph-name="icircumflex" unicode="&#xee;" horiz-adv-x="514" 
d="M348 0h-182v1055l182 16v-1071zM526 1202q-24 19 -57 44.5t-68.5 55t-73.5 60.5t-71 59q-33 -28 -71 -59t-73.5 -60.5t-68.5 -55t-57 -44.5l-92 92q51 47 96 89t85 81t77.5 77t76.5 79h54q75 -82 153 -156.5t182 -169.5z" />
    <glyph glyph-name="idieresis" unicode="&#xef;" horiz-adv-x="514" 
d="M348 0h-182v1055l182 16v-1071zM176 1303q-31 -31 -84 -31t-84 31.5t-31 78.5q0 48 31 78.5t84 30.5t84 -30.5t31 -78.5q0 -47 -31 -79zM504 1303q-31 -31 -84 -31t-84 31.5t-31 78.5q0 48 31 78.5t84 30.5t84 -30.5t31 -78.5q0 -47 -31 -79z" />
    <glyph glyph-name="eth" unicode="&#xf0;" horiz-adv-x="1163" 
d="M854 1483l-164 -146q193 -174 287 -383t94 -405q0 -121 -30.5 -224.5t-92 -180t-152.5 -120.5t-212 -44q-113 0 -204 37.5t-154.5 107.5t-98.5 164t-35 209q0 116 36 213.5t99.5 167t150.5 107.5t189 38q62 0 115 -14.5t100 -38.5q-77 145 -211 262l-165 -146l-89 105
l146 129q-39 29 -81 53.5t-87 48.5l80 127q57 -28 108.5 -59t98.5 -66l184 162zM879 678q-9 59 -25 115q-66 41 -129 57t-123 16q-80 0 -140.5 -26.5t-102.5 -74.5t-62.5 -113.5t-20.5 -145.5q0 -78 19.5 -144.5t57.5 -116.5t95.5 -79t133.5 -29q82 0 139 35q59 35 96 93.5
t53.5 135t16.5 160.5q0 60 -8 117z" />
    <glyph glyph-name="ntilde" unicode="&#xf1;" horiz-adv-x="1182" 
d="M868 0q-14 59 -17 126t-3 126v403q0 56 -9.5 105t-31 85t-59 56.5t-93.5 20.5q-71 0 -153 -35t-158 -92v-795h-182v1055l164 16l16 -141q176 149 360 149q89 0 150 -32.5t101 -89t58.5 -132t18.5 -161.5v-412q0 -59 3 -126t18 -126h-183zM952 1511q2 -10 3 -24t1 -31
q0 -92 -58 -151.5t-150 -59.5q-60 0 -101 22.5t-72 49.5q-24 22 -46.5 37.5t-49.5 15.5q-39 0 -58.5 -31.5t-19.5 -72.5l-145 -13q-2 11 -3 25t-1 31q0 92 58.5 151.5t150.5 59.5q59 0 100 -22.5t72 -49.5q24 -23 46.5 -38t49.5 -15q39 0 58.5 31.5t19.5 72.5z" />
    <glyph glyph-name="ograve" unicode="&#xf2;" horiz-adv-x="1188" 
d="M737 168q60 31 98.5 83t57 123.5t18.5 155.5q0 82 -18.5 154t-57 124t-98 83t-141.5 31q-84 0 -143.5 -31t-99.5 -83t-58.5 -124t-18.5 -154q0 -84 18.5 -155.5t58.5 -123.5t99.5 -83t143.5 -31q82 0 141 31zM967 131q-62 -72 -155 -111.5t-216 -39.5t-216 39.5
t-157.5 112.5t-97.5 174.5t-33 223.5q0 121 33 222.5t97.5 174t157.5 112.5t216 40q121 0 214 -40t156.5 -112.5t96.5 -174t33 -222.5q0 -122 -33 -223.5t-96 -175.5zM731 1202q-35 27 -85 68t-102 87t-100.5 92t-76.5 81l133 123q65 -82 152 -177.5t173 -181.5z" />
    <glyph glyph-name="oacute" unicode="&#xf3;" horiz-adv-x="1188" 
d="M737 168q60 31 98.5 83t57 123.5t18.5 155.5q0 82 -18.5 154t-57 124t-98 83t-141.5 31q-84 0 -143.5 -31t-99.5 -83t-58.5 -124t-18.5 -154q0 -84 18.5 -155.5t58.5 -123.5t99.5 -83t143.5 -31q82 0 141 31zM967 131q-62 -72 -155 -111.5t-216 -39.5t-216 39.5
t-157.5 112.5t-97.5 174.5t-33 223.5q0 121 33 222.5t97.5 174t157.5 112.5t216 40q121 0 214 -40t156.5 -112.5t96.5 -174t33 -222.5q0 -122 -33 -223.5t-96 -175.5zM825 1530q-28 -35 -76.5 -81t-100.5 -92t-102 -87t-85 -68l-94 92q86 86 173 181.5t152 177.5z" />
    <glyph glyph-name="ocircumflex" unicode="&#xf4;" horiz-adv-x="1188" 
d="M737 168q60 31 98.5 83t57 123.5t18.5 155.5q0 82 -18.5 154t-57 124t-98 83t-141.5 31q-84 0 -143.5 -31t-99.5 -83t-58.5 -124t-18.5 -154q0 -84 18.5 -155.5t58.5 -123.5t99.5 -83t143.5 -31q82 0 141 31zM967 131q-62 -72 -155 -111.5t-216 -39.5t-216 39.5
t-157.5 112.5t-97.5 174.5t-33 223.5q0 121 33 222.5t97.5 174t157.5 112.5t216 40q121 0 214 -40t156.5 -112.5t96.5 -174t33 -222.5q0 -122 -33 -223.5t-96 -175.5zM866 1202q-24 19 -57 44.5t-68.5 55t-73.5 60.5t-71 59q-33 -28 -71 -59t-73.5 -60.5t-68.5 -55
t-57 -44.5l-93 92q52 47 97 89t85 81t77.5 77t76.5 79h54q75 -82 153 -156.5t182 -169.5z" />
    <glyph glyph-name="otilde" unicode="&#xf5;" horiz-adv-x="1188" 
d="M737 168q60 31 98.5 83t57 123.5t18.5 155.5q0 82 -18.5 154t-57 124t-98 83t-141.5 31q-84 0 -143.5 -31t-99.5 -83t-58.5 -124t-18.5 -154q0 -84 18.5 -155.5t58.5 -123.5t99.5 -83t143.5 -31q82 0 141 31zM967 131q-62 -72 -155 -111.5t-216 -39.5t-216 39.5
t-157.5 112.5t-97.5 174.5t-33 223.5q0 121 33 222.5t97.5 174t157.5 112.5t216 40q121 0 214 -40t156.5 -112.5t96.5 -174t33 -222.5q0 -122 -33 -223.5t-96 -175.5zM944 1511q2 -10 3 -24t1 -31q0 -92 -58.5 -151.5t-150.5 -59.5q-59 0 -100 22.5t-72 49.5
q-24 22 -46.5 37.5t-49.5 15.5q-39 0 -58.5 -31.5t-19.5 -72.5l-145 -13q-2 11 -3 25t-1 31q0 92 58 151.5t151 59.5q59 0 100 -22.5t72 -49.5q24 -23 46.5 -38t49.5 -15q39 0 58.5 31.5t19.5 72.5z" />
    <glyph glyph-name="odieresis" unicode="&#xf6;" horiz-adv-x="1188" 
d="M737 168q60 31 98.5 83t57 123.5t18.5 155.5q0 82 -18.5 154t-57 124t-98 83t-141.5 31q-84 0 -143.5 -31t-99.5 -83t-58.5 -124t-18.5 -154q0 -84 18.5 -155.5t58.5 -123.5t99.5 -83t143.5 -31q82 0 141 31zM967 131q-62 -72 -155 -111.5t-216 -39.5t-216 39.5
t-157.5 112.5t-97.5 174.5t-33 223.5q0 121 33 222.5t97.5 174t157.5 112.5t216 40q121 0 214 -40t156.5 -112.5t96.5 -174t33 -222.5q0 -122 -33 -223.5t-96 -175.5zM465 1303q-31 -31 -84 -31t-84 31.5t-31 78.5q0 48 31 78.5t84 30.5t84 -30.5t31 -78.5q0 -47 -31 -79z
M895 1303q-31 -31 -84 -31t-84 31.5t-31 78.5q0 48 31 78.5t84 30.5t84 -30.5t31 -78.5q0 -47 -31 -79z" />
    <glyph glyph-name="divide" unicode="&#xf7;" horiz-adv-x="1143" 
d="M668 270q-33 -34 -97 -34q-61 0 -95 34.5t-34 87.5q0 56 34 90.5t95 34.5q64 0 96.5 -34.5t32.5 -90.5q0 -53 -32 -88zM1001 623h-860v159h860v-159zM668 958q-33 -34 -97 -34q-61 0 -95 34.5t-34 88.5q0 55 34 89.5t95 34.5q64 0 96.5 -34.5t32.5 -89.5q0 -54 -32 -89z
" />
    <glyph glyph-name="oslash" unicode="&#xf8;" horiz-adv-x="1188" 
d="M1153 981l-133 -131q76 -135 76 -320q0 -122 -33 -223.5t-95.5 -174.5t-155.5 -112.5t-216 -39.5q-111 0 -196 31.5t-148 90.5l-125 -122l-92 98l133 131q-76 135 -76 321q0 121 33 222.5t97.5 174t157.5 112.5t216 40q109 0 193.5 -31.5t146.5 -89.5l125 121zM811 836
q-39 41 -91 63.5t-124 22.5q-84 0 -143.5 -31t-99.5 -83t-58.5 -124t-18.5 -154q0 -53 6.5 -100t22.5 -88zM377 223q80 -86 219 -86q82 0 141.5 31t98 83t57 123.5t18.5 155.5q0 101 -28 187z" />
    <glyph glyph-name="ugrave" unicode="&#xf9;" horiz-adv-x="1128" 
d="M805 0q-12 51 -17 102q-165 -122 -331 -122q-86 0 -148.5 32.5t-101.5 89t-57.5 132t-18.5 161.5v660l182 16v-668q0 -55 9.5 -104t31 -85t59.5 -56.5t93 -20.5q61 0 134 28t144 75v815l183 16v-819q0 -59 3 -126t17 -126h-182zM582 1202q-35 27 -85.5 68t-102.5 87
t-100 92t-77 81l133 123q66 -82 153 -177.5t173 -181.5z" />
    <glyph glyph-name="uacute" unicode="&#xfa;" horiz-adv-x="1128" 
d="M805 0q-12 51 -17 102q-165 -122 -331 -122q-86 0 -148.5 32.5t-101.5 89t-57.5 132t-18.5 161.5v660l182 16v-668q0 -55 9.5 -104t31 -85t59.5 -56.5t93 -20.5q61 0 134 28t144 75v815l183 16v-819q0 -59 3 -126t17 -126h-182zM889 1530q-29 -35 -77 -81t-100.5 -92
t-102.5 -87t-85 -68l-94 92q86 86 173 181.5t153 177.5z" />
    <glyph glyph-name="ucircumflex" unicode="&#xfb;" horiz-adv-x="1128" 
d="M805 0q-12 51 -17 102q-165 -122 -331 -122q-86 0 -148.5 32.5t-101.5 89t-57.5 132t-18.5 161.5v660l182 16v-668q0 -55 9.5 -104t31 -85t59.5 -56.5t93 -20.5q61 0 134 28t144 75v815l183 16v-819q0 -59 3 -126t17 -126h-182zM823 1202q-24 19 -57 44.5t-68.5 55
t-73.5 60.5t-71 59q-33 -28 -71 -59t-73.5 -60.5t-68.5 -55t-57 -44.5l-93 92q52 47 97 89t85 81t77.5 77t76.5 79h54q75 -82 153 -156.5t182 -169.5z" />
    <glyph glyph-name="udieresis" unicode="&#xfc;" horiz-adv-x="1128" 
d="M805 0q-12 51 -17 102q-165 -122 -331 -122q-86 0 -148.5 32.5t-101.5 89t-57.5 132t-18.5 161.5v660l182 16v-668q0 -55 9.5 -104t31 -85t59.5 -56.5t93 -20.5q61 0 134 28t144 75v815l183 16v-819q0 -59 3 -126t17 -126h-182zM422 1303q-31 -31 -84 -31t-84 31.5
t-31 78.5q0 48 31 78.5t84 30.5t84 -30.5t31 -78.5q0 -47 -31 -79zM852 1303q-31 -31 -84 -31t-84 31.5t-31 78.5q0 48 31 78.5t84 30.5t84 -30.5t31 -78.5q0 -47 -31 -79z" />
    <glyph glyph-name="yacute" unicode="&#xfd;" horiz-adv-x="1008" 
d="M160 -391q94 104 151.5 191t106.5 184l-402 1075h201l287 -862l299 862h188l-348 -967q-68 -188 -159 -340.5t-199 -263.5zM827 1530q-28 -35 -76.5 -81t-100.5 -92t-102 -87t-85 -68l-94 92q86 86 173 181.5t152 177.5z" />
    <glyph glyph-name="thorn" unicode="&#xfe;" horiz-adv-x="1200" 
d="M348 -475h-182v2001l182 16v-596q78 62 163 97.5t175 35.5q102 0 181 -45t132.5 -119.5t81 -171t27.5 -198.5q0 -115 -33 -217.5t-94 -180t-150.5 -122.5t-201.5 -45q-156 0 -281 90v-545zM348 219q55 -37 122 -59.5t136 -22.5q82 0 142.5 33t99.5 90t57.5 131t18.5 158
q0 76 -16.5 144.5t-50.5 118.5t-87 80t-125 30q-78 0 -158.5 -33t-138.5 -74v-596z" />
    <glyph glyph-name="ydieresis" unicode="&#xff;" horiz-adv-x="1008" 
d="M160 -391q94 104 151.5 191t106.5 184l-402 1075h201l287 -862l299 862h188l-348 -967q-68 -188 -159 -340.5t-199 -263.5zM379 1303q-31 -31 -84 -31t-84 31.5t-31 78.5q0 48 31 78.5t84 30.5t84 -30.5t31 -78.5q0 -47 -31 -79zM809 1303q-31 -31 -84 -31t-84 31.5
t-31 78.5q0 48 31 78.5t84 30.5t84 -30.5t31 -78.5q0 -47 -31 -79z" />
    <glyph glyph-name="Amacron" unicode="&#x100;" horiz-adv-x="1382" 
d="M1356 0h-207l-162 424h-602l-162 -424h-196l575 1448h178zM926 586l-240 631l-240 -631h480zM1022 1636h-664v150h664v-150z" />
    <glyph glyph-name="amacron" unicode="&#x101;" horiz-adv-x="1049" 
d="M741 0q-6 29 -10 69t-6 68q-63 -67 -155.5 -107t-184.5 -40q-68 0 -124 23.5t-96 65.5t-62.5 100.5t-22.5 127.5q0 160 111.5 246t297.5 86q56 0 116.5 -6t119.5 -17v33q0 131 -63.5 203t-182.5 72q-71 0 -146 -25t-140 -61l-60 141q66 45 159 72.5t197 27.5
q199 0 305.5 -106.5t106.5 -306.5v-414q0 -68 5 -139.5t16 -112.5h-181zM725 483q-43 9 -91 12t-85 3q-289 0 -289 -189q0 -78 46 -121t126 -43q72 0 149.5 33t143.5 86v219zM821 1309h-663v149h663v-149z" />
    <glyph glyph-name="Abreve" unicode="&#x102;" horiz-adv-x="1382" 
d="M1356 0h-207l-162 424h-602l-162 -424h-196l575 1448h178zM926 586l-240 631l-240 -631h480zM991 1827q-12 -121 -95 -188.5t-206 -67.5t-206 67.5t-95 188.5h148q10 -47 52 -77t101 -30q60 0 102 30t52 77h147z" />
    <glyph glyph-name="abreve" unicode="&#x103;" horiz-adv-x="1049" 
d="M741 0q-6 29 -10 69t-6 68q-63 -67 -155.5 -107t-184.5 -40q-68 0 -124 23.5t-96 65.5t-62.5 100.5t-22.5 127.5q0 160 111.5 246t297.5 86q56 0 116.5 -6t119.5 -17v33q0 131 -63.5 203t-182.5 72q-71 0 -146 -25t-140 -61l-60 141q66 45 159 72.5t197 27.5
q199 0 305.5 -106.5t106.5 -306.5v-414q0 -68 5 -139.5t16 -112.5h-181zM725 483q-43 9 -91 12t-85 3q-289 0 -289 -189q0 -78 46 -121t126 -43q72 0 149.5 33t143.5 86v219zM791 1524q-7 -60 -29.5 -112t-60 -90t-91 -59.5t-121.5 -21.5q-67 0 -120.5 21.5t-91 59.5t-60 90
t-29.5 112h148q14 -62 53 -97.5t100 -35.5q62 0 101 35.5t53 97.5h148z" />
    <glyph glyph-name="Aogonek" unicode="&#x104;" horiz-adv-x="1382" 
d="M1370 -467q-74 -29 -158 -29q-118 0 -180.5 58.5t-62.5 148.5q0 80 49 158t131 131l-162 424h-602l-162 -424h-196l575 1448h178l576 -1448q-129 -61 -176 -130t-47 -122q0 -47 32.5 -70.5t81.5 -23.5q21 0 46.5 4t41.5 12zM926 586l-240 631l-240 -631h480z" />
    <glyph glyph-name="aogonek" unicode="&#x105;" horiz-adv-x="1049" 
d="M963 -467q-74 -29 -158 -29q-119 0 -181.5 58.5t-62.5 148.5q0 80 49 158t131 131q-8 39 -11 70.5t-5 66.5q-23 -24 -58.5 -51t-79.5 -48.5t-96.5 -34.5t-107.5 -13q-68 0 -124 23.5t-96 66.5t-61.5 100.5t-21.5 124.5q0 88 31.5 150.5t88 103.5t132.5 60.5t162 19.5
q53 0 108 -6t123 -17v33q0 125 -60.5 200t-185.5 75q-71 0 -146 -25t-140 -61l-60 141q68 45 160 72.5t192 27.5q201 0 308.5 -105.5t107.5 -307.5v-414q0 -59 3 -126t18 -126q-80 -47 -138.5 -111.5t-58.5 -134.5q0 -53 33 -76.5t80 -23.5q22 0 47.5 4t42.5 12zM725 483
q-66 11 -113 13t-71 2q-56 0 -107 -9.5t-89 -31t-61.5 -57t-23.5 -91.5q0 -78 47 -121t125 -43q80 0 159 37t134 82v219z" />
    <glyph glyph-name="Cacute" unicode="&#x106;" horiz-adv-x="1315" 
d="M1262 106q-43 -26 -99.5 -49.5t-120 -40t-132 -26.5t-138.5 -10q-172 0 -296 60t-206 163.5t-120.5 237.5t-38.5 282q0 147 39.5 282.5t122.5 239t209 163.5t298 60q140 0 263.5 -35.5t218.5 -91.5l-70 -155q-129 63 -235.5 85.5t-180.5 22.5q-125 0 -214 -47
t-145.5 -127t-83 -183t-26.5 -214t26.5 -213t83 -182t145.5 -127t214 -47q74 0 180.5 22.5t235.5 85.5zM1040 1726q-41 -18 -103.5 -39.5t-129 -41t-130 -35t-106.5 -23.5l-43 125q115 41 232 89t215 93z" />
    <glyph glyph-name="cacute" unicode="&#x107;" horiz-adv-x="1012" 
d="M961 80q-76 -51 -173.5 -75.5t-195.5 -24.5q-121 0 -214 39.5t-156.5 112.5t-96.5 174.5t-33 223.5q0 119 32 219.5t95.5 174t157.5 114.5t219 41q106 0 194.5 -28.5t155.5 -71.5l-61 -143q-82 43 -151.5 64.5t-135.5 21.5q-152 0 -237 -101.5t-85 -290.5
q0 -84 19.5 -156.5t60.5 -124.5t103.5 -82t146.5 -30q78 0 151.5 23.5t141.5 62.5zM764 1530q-29 -35 -77 -81t-100 -92t-102.5 -87t-85.5 -68l-94 92q86 86 173 181.5t153 177.5z" />
    <glyph glyph-name="Ccircumflex" unicode="&#x108;" horiz-adv-x="1315" 
d="M1262 106q-43 -26 -99.5 -49.5t-120 -40t-132 -26.5t-138.5 -10q-172 0 -296 60t-206 163.5t-120.5 237.5t-38.5 282q0 147 39.5 282.5t122.5 239t209 163.5t298 60q140 0 263.5 -35.5t218.5 -91.5l-70 -155q-129 63 -235.5 85.5t-180.5 22.5q-125 0 -214 -47
t-145.5 -127t-83 -183t-26.5 -214t26.5 -213t83 -182t145.5 -127t214 -47q74 0 180.5 22.5t235.5 85.5zM1087 1591q-106 37 -178.5 66t-138.5 57q-65 -28 -138 -57t-179 -66l-41 119q102 51 183 96t148 86h54q67 -41 148 -86t183 -96z" />
    <glyph glyph-name="ccircumflex" unicode="&#x109;" horiz-adv-x="1012" 
d="M961 80q-76 -51 -173.5 -75.5t-195.5 -24.5q-121 0 -214 39.5t-156.5 112.5t-96.5 174.5t-33 223.5q0 119 32 219.5t95.5 174t157.5 114.5t219 41q106 0 194.5 -28.5t155.5 -71.5l-61 -143q-82 43 -151.5 64.5t-135.5 21.5q-152 0 -237 -101.5t-85 -290.5
q0 -84 19.5 -156.5t60.5 -124.5t103.5 -82t146.5 -30q78 0 151.5 23.5t141.5 62.5zM848 1202q-25 19 -57.5 44.5t-68.5 55t-74 60.5t-70 59q-33 -28 -71 -59t-74 -60.5t-68.5 -55t-57.5 -44.5l-92 92q51 47 96 89t85 81t78 77t77 79h53q76 -82 154 -156.5t182 -169.5z" />
    <glyph glyph-name="Cdotaccent" unicode="&#x10a;" horiz-adv-x="1315" 
d="M1262 106q-43 -26 -99.5 -49.5t-120 -40t-132 -26.5t-138.5 -10q-172 0 -296 60t-206 163.5t-120.5 237.5t-38.5 282q0 147 39.5 282.5t122.5 239t209 163.5t298 60q140 0 263.5 -35.5t218.5 -91.5l-70 -155q-129 63 -235.5 85.5t-180.5 22.5q-125 0 -214 -47
t-145.5 -127t-83 -183t-26.5 -214t26.5 -213t83 -182t145.5 -127t214 -47q74 0 180.5 22.5t235.5 85.5zM825 1663q-30 -33 -86 -33q-55 0 -86.5 33t-31.5 82t31.5 81t86.5 32q56 0 87.5 -32t31.5 -81t-33 -82z" />
    <glyph glyph-name="cdotaccent" unicode="&#x10b;" horiz-adv-x="1012" 
d="M961 80q-76 -51 -173.5 -75.5t-195.5 -24.5q-121 0 -214 39.5t-156.5 112.5t-96.5 174.5t-33 223.5q0 119 32 219.5t95.5 174t157.5 114.5t219 41q106 0 194.5 -28.5t155.5 -71.5l-61 -143q-82 43 -151.5 64.5t-135.5 21.5q-152 0 -237 -101.5t-85 -290.5
q0 -84 19.5 -156.5t60.5 -124.5t103.5 -82t146.5 -30q78 0 151.5 23.5t141.5 62.5zM639 1343q-31 -32 -86 -32t-87 32.5t-32 81.5q0 50 32 81.5t87 31.5t87 -31.5t32 -81.5q0 -49 -33 -82z" />
    <glyph glyph-name="Ccaron" unicode="&#x10c;" horiz-adv-x="1315" 
d="M1262 106q-43 -26 -99.5 -49.5t-120 -40t-132 -26.5t-138.5 -10q-172 0 -296 60t-206 163.5t-120.5 237.5t-38.5 282q0 147 39.5 282.5t122.5 239t209 163.5t298 60q140 0 263.5 -35.5t218.5 -91.5l-70 -155q-129 63 -235.5 85.5t-180.5 22.5q-125 0 -214 -47
t-145.5 -127t-83 -183t-26.5 -214t26.5 -213t83 -182t145.5 -127t214 -47q74 0 180.5 22.5t235.5 85.5zM1128 1774q-102 -52 -183 -97t-148 -86h-54q-67 41 -148 86t-183 97l41 118q106 -37 179 -65.5t138 -57.5q66 29 138.5 57.5t178.5 65.5z" />
    <glyph glyph-name="ccaron" unicode="&#x10d;" horiz-adv-x="1012" 
d="M961 80q-76 -51 -173.5 -75.5t-195.5 -24.5q-121 0 -214 39.5t-156.5 112.5t-96.5 174.5t-33 223.5q0 119 32 219.5t95.5 174t157.5 114.5t219 41q106 0 194.5 -28.5t155.5 -71.5l-61 -143q-82 43 -151.5 64.5t-135.5 21.5q-152 0 -237 -101.5t-85 -290.5
q0 -84 19.5 -156.5t60.5 -124.5t103.5 -82t146.5 -30q78 0 151.5 23.5t141.5 62.5zM940 1544q-53 -47 -97 -89t-84 -81t-78 -76.5t-77 -78.5h-53q-39 41 -77 78.5t-78 76.5t-85 81t-96 89l92 92q25 -18 57.5 -43.5t68.5 -55.5t74 -61.5t71 -58.5q32 27 70 58.5t74 61.5
t68.5 55.5t57.5 43.5z" />
    <glyph glyph-name="Dcaron" unicode="&#x10e;" horiz-adv-x="1448" 
d="M641 168q117 0 210 42t157.5 115.5t98.5 175t34 222.5t-34 223.5t-98.5 176t-157.5 115.5t-210 42h-262v-1112h262zM186 0v1448h467q156 0 283 -53.5t216 -148.5t137 -229t48 -294t-48 -293t-137 -228.5t-216 -148.5t-283 -53h-467zM999 1774q-102 -52 -183 -97t-148 -86
h-54q-67 41 -148 86t-183 97l41 118q106 -37 178.5 -65.5t138.5 -57.5q66 29 138.5 57.5t178.5 65.5z" />
    <glyph glyph-name="dcaron" unicode="&#x10f;" horiz-adv-x="1262" 
d="M864 0q-10 41 -16 94q-66 -49 -153 -81.5t-179 -32.5q-102 0 -181 44t-133.5 117.5t-82 171t-27.5 205.5q0 117 32 218.5t93.5 178t150.5 120.5t205 44q66 0 135.5 -18.5t135.5 -65.5v531l182 16v-1290q0 -59 3 -126t18 -126h-183zM844 846q-60 39 -126.5 57.5
t-125.5 18.5q-84 0 -143.5 -33t-98.5 -88.5t-56.5 -130t-17.5 -158.5q0 -78 15.5 -146.5t50.5 -118.5t89 -80t132 -30q60 0 135.5 19.5t145.5 64.5v625zM1165 1151q41 86 70 186.5t29 204.5l172 -16q0 -49 -11.5 -108.5t-32 -119t-50 -115t-68.5 -98.5z" />
    <glyph glyph-name="Dcroat" unicode="&#x110;" horiz-adv-x="1448" 
d="M641 168q117 0 210 42t157.5 115.5t98.5 175t34 222.5t-34 223.5t-98.5 176t-157.5 115.5t-210 42h-262v-461h287v-149h-287v-502h262zM186 0v670h-155v149h155v629h467q156 0 283 -53.5t216 -148.5t137 -229t48 -294t-48 -293t-137 -228.5t-216 -148.5t-283 -53h-467z
" />
    <glyph glyph-name="dcroat" unicode="&#x111;" horiz-adv-x="1192" 
d="M864 0q-10 41 -16 94q-66 -49 -153 -81.5t-179 -32.5q-102 0 -181 44t-133.5 117.5t-82 171t-27.5 205.5q0 117 32 218.5t93.5 178t150.5 120.5t205 44q66 0 135.5 -18.5t135.5 -65.5v226h-334v137h334v168l182 16v-184h180v-137h-180v-969q0 -59 3 -126t18 -126h-183z
M844 846q-60 39 -126.5 57.5t-125.5 18.5q-84 0 -143.5 -33t-98.5 -88.5t-56.5 -130t-17.5 -158.5q0 -78 15.5 -146.5t50.5 -118.5t89 -80t132 -30q60 0 135.5 19.5t145.5 64.5v625z" />
    <glyph glyph-name="Emacron" unicode="&#x112;" horiz-adv-x="1182" 
d="M1087 0h-901v1448h901v-168h-708v-469h577v-168h-577v-475h708v-168zM967 1636h-664v150h664v-150z" />
    <glyph glyph-name="emacron" unicode="&#x113;" horiz-adv-x="1073" 
d="M961 80q-76 -51 -174.5 -75.5t-190.5 -24.5q-125 0 -219 40.5t-157.5 115.5t-95.5 178.5t-32 226.5q0 108 25.5 206.5t81 172t140.5 116.5t204 43q106 0 188 -35.5t137.5 -99t84 -153t28.5 -193.5q0 -76 -12 -133h-693q17 -152 97 -240t231 -88q78 0 152.5 23.5
t142.5 62.5zM801 610q-2 68 -18.5 126.5t-47 100.5t-78 65.5t-112.5 23.5q-68 0 -116 -24.5t-80 -67.5t-50 -100.5t-25 -123.5h527zM868 1309h-663v149h663v-149z" />
    <glyph glyph-name="Ebreve" unicode="&#x114;" horiz-adv-x="1182" 
d="M1087 0h-901v1448h901v-168h-708v-469h577v-168h-577v-475h708v-168zM936 1827q-12 -121 -95 -188.5t-206 -67.5t-206 67.5t-95 188.5h147q11 -47 52.5 -77t101.5 -30q59 0 101 30t52 77h148z" />
    <glyph glyph-name="ebreve" unicode="&#x115;" horiz-adv-x="1073" 
d="M961 80q-76 -51 -174.5 -75.5t-190.5 -24.5q-125 0 -219 40.5t-157.5 115.5t-95.5 178.5t-32 226.5q0 108 25.5 206.5t81 172t140.5 116.5t204 43q106 0 188 -35.5t137.5 -99t84 -153t28.5 -193.5q0 -76 -12 -133h-693q17 -152 97 -240t231 -88q78 0 152.5 23.5
t142.5 62.5zM801 610q-2 68 -18.5 126.5t-47 100.5t-78 65.5t-112.5 23.5q-68 0 -116 -24.5t-80 -67.5t-50 -100.5t-25 -123.5h527zM838 1524q-7 -60 -29.5 -112t-60 -90t-91 -59.5t-120.5 -21.5q-68 0 -121.5 21.5t-91 59.5t-60 90t-28.5 112h147q14 -62 53 -97.5
t101 -35.5q61 0 100 35.5t53 97.5h148z" />
    <glyph glyph-name="Edotaccent" unicode="&#x116;" horiz-adv-x="1182" 
d="M1087 0h-901v1448h901v-168h-708v-469h577v-168h-577v-475h708v-168zM721 1663q-31 -33 -86 -33t-87 33t-32 82t32 81t87 32t87 -32t32 -81t-33 -82z" />
    <glyph glyph-name="edotaccent" unicode="&#x117;" horiz-adv-x="1073" 
d="M961 80q-76 -51 -174.5 -75.5t-190.5 -24.5q-125 0 -219 40.5t-157.5 115.5t-95.5 178.5t-32 226.5q0 108 25.5 206.5t81 172t140.5 116.5t204 43q106 0 188 -35.5t137.5 -99t84 -153t28.5 -193.5q0 -76 -12 -133h-693q17 -152 97 -240t231 -88q78 0 152.5 23.5
t142.5 62.5zM801 610q-2 68 -18.5 126.5t-47 100.5t-78 65.5t-112.5 23.5q-68 0 -116 -24.5t-80 -67.5t-50 -100.5t-25 -123.5h527zM639 1343q-31 -32 -86 -32t-87 32.5t-32 81.5q0 50 32 81.5t87 31.5t87 -31.5t32 -81.5q0 -49 -33 -82z" />
    <glyph glyph-name="Eogonek" unicode="&#x118;" horiz-adv-x="1182" 
d="M1126 -467q-73 -29 -157 -29q-119 0 -185.5 58.5t-66.5 150.5q0 78 48 156t130 131h-709v1448h901v-168h-708v-469h577v-168h-577v-475h708v-168q-104 -61 -151 -130t-47 -122q0 -47 32.5 -70.5t82.5 -23.5q20 0 45.5 4t42.5 12z" />
    <glyph glyph-name="eogonek" unicode="&#x119;" horiz-adv-x="1073" 
d="M999 -467q-73 -29 -157 -29q-119 0 -181.5 58.5t-62.5 156.5q0 62 29.5 128.5t105.5 144.5q-67 -12 -137 -12q-125 0 -219 40.5t-157.5 115.5t-95.5 178.5t-32 226.5q0 108 25.5 206.5t81 172t141.5 116.5t205 43q106 0 188 -35.5t137.5 -100t83 -153t27.5 -194.5
q0 -74 -12 -131h-693q17 -152 97 -240t231 -88q78 0 152.5 23.5t142.5 62.5l62 -143q-64 -57 -103 -108.5t-60.5 -93.5t-28.5 -73.5t-7 -52.5q0 -57 37 -77.5t78 -20.5q22 0 46.5 4t41.5 12zM801 610q-2 68 -18.5 126.5t-47 100.5t-78 65.5t-112.5 23.5q-68 0 -116 -24.5
t-80 -67.5t-50 -100.5t-25 -123.5h527z" />
    <glyph glyph-name="Ecaron" unicode="&#x11a;" horiz-adv-x="1182" 
d="M1087 0h-901v1448h901v-168h-708v-469h577v-168h-577v-475h708v-168zM993 1774q-102 -52 -183 -97t-148 -86h-54q-67 41 -148 86t-184 97l41 118q107 -37 179.5 -65.5t138.5 -57.5q65 29 138 57.5t179 65.5z" />
    <glyph glyph-name="ecaron" unicode="&#x11b;" horiz-adv-x="1073" 
d="M961 80q-76 -51 -174.5 -75.5t-190.5 -24.5q-125 0 -219 40.5t-157.5 115.5t-95.5 178.5t-32 226.5q0 108 25.5 206.5t81 172t140.5 116.5t204 43q106 0 188 -35.5t137.5 -99t84 -153t28.5 -193.5q0 -76 -12 -133h-693q17 -152 97 -240t231 -88q78 0 152.5 23.5
t142.5 62.5zM801 610q-2 68 -18.5 126.5t-47 100.5t-78 65.5t-112.5 23.5q-68 0 -116 -24.5t-80 -67.5t-50 -100.5t-25 -123.5h527zM899 1544q-53 -47 -97 -89t-84 -81t-78 -76.5t-77 -78.5h-53q-39 41 -77 78.5t-78 76.5t-85 81t-96 89l92 92q25 -18 57.5 -43.5t68.5 -55.5
t74 -61.5t71 -58.5q32 27 70 58.5t74 61.5t68.5 55.5t57.5 43.5z" />
    <glyph glyph-name="Gcircumflex" unicode="&#x11c;" horiz-adv-x="1425" 
d="M1276 86q-43 -23 -99.5 -42t-120 -33.5t-131 -22.5t-132.5 -8q-179 0 -308 60t-212 161.5t-122.5 236.5t-39.5 283q0 149 39.5 284.5t122.5 238t209 163.5t298 61q140 0 263.5 -35.5t218.5 -91.5l-70 -155q-129 63 -235.5 85.5t-180.5 22.5q-125 0 -214 -47t-145.5 -127
t-83 -184.5t-26.5 -218.5q0 -109 24.5 -210t83 -180t154 -126t236.5 -47q45 0 117.5 8t164.5 37v405h-329v164h518v-682zM1087 1591q-106 37 -178.5 66t-138.5 57q-65 -28 -138 -57t-179 -66l-41 119q102 51 183 96t148 86h54q67 -41 148 -86t183 -96z" />
    <glyph glyph-name="gcircumflex" unicode="&#x11d;" horiz-adv-x="1188" 
d="M1026 47q0 -127 -26.5 -227.5t-84 -171t-148.5 -107.5t-218 -37q-107 0 -196 25t-181 76l61 143q80 -41 154 -64.5t150 -23.5q88 0 146 26.5t94 77t51.5 121t15.5 158.5v57q-66 -47 -151 -78.5t-177 -31.5q-102 0 -181 44t-133.5 117.5t-82 170t-27.5 198.5
q0 113 32 215.5t93.5 178t150.5 120.5t203 45q68 0 138.5 -19.5t138.5 -66.5l10 62l168 16v-1024zM844 846q-60 39 -126.5 57.5t-125.5 18.5q-84 0 -143.5 -33t-98.5 -89.5t-56.5 -131t-17.5 -158.5q0 -72 16.5 -137.5t52.5 -115.5t90 -80t128 -30q60 0 135.5 19.5
t145.5 64.5v615zM850 1202q-25 19 -57.5 44.5t-68.5 55t-74 60.5t-70 59q-33 -28 -71 -59t-74 -60.5t-68.5 -55t-57.5 -44.5l-92 92q51 47 96 89t85 81t78 77t77 79h53q76 -82 154 -156.5t182 -169.5z" />
    <glyph glyph-name="Gbreve" unicode="&#x11e;" horiz-adv-x="1425" 
d="M1276 86q-43 -23 -99.5 -42t-120 -33.5t-131 -22.5t-132.5 -8q-179 0 -308 60t-212 161.5t-122.5 236.5t-39.5 283q0 149 39.5 284.5t122.5 238t209 163.5t298 61q140 0 263.5 -35.5t218.5 -91.5l-70 -155q-129 63 -235.5 85.5t-180.5 22.5q-125 0 -214 -47t-145.5 -127
t-83 -184.5t-26.5 -218.5q0 -109 24.5 -210t83 -180t154 -126t236.5 -47q45 0 117.5 8t164.5 37v405h-329v164h518v-682zM1071 1827q-12 -121 -95 -188.5t-206 -67.5t-206 67.5t-95 188.5h147q11 -47 53 -77t101 -30t101 30t53 77h147z" />
    <glyph glyph-name="gbreve" unicode="&#x11f;" horiz-adv-x="1188" 
d="M1026 47q0 -127 -26.5 -227.5t-84 -171t-148.5 -107.5t-218 -37q-107 0 -196 25t-181 76l61 143q80 -41 154 -64.5t150 -23.5q88 0 146 26.5t94 77t51.5 121t15.5 158.5v57q-66 -47 -151 -78.5t-177 -31.5q-102 0 -181 44t-133.5 117.5t-82 170t-27.5 198.5
q0 113 32 215.5t93.5 178t150.5 120.5t203 45q68 0 138.5 -19.5t138.5 -66.5l10 62l168 16v-1024zM844 846q-60 39 -126.5 57.5t-125.5 18.5q-84 0 -143.5 -33t-98.5 -89.5t-56.5 -131t-17.5 -158.5q0 -72 16.5 -137.5t52.5 -115.5t90 -80t128 -30q60 0 135.5 19.5
t145.5 64.5v615zM881 1524q-7 -60 -29.5 -112t-60 -90t-91 -59.5t-120.5 -21.5q-68 0 -121 21.5t-91 59.5t-60.5 90t-28.5 112h147q14 -62 53 -97.5t101 -35.5q61 0 100 35.5t53 97.5h148z" />
    <glyph glyph-name="Gdotaccent" unicode="&#x120;" horiz-adv-x="1425" 
d="M1276 86q-43 -23 -99.5 -42t-120 -33.5t-131 -22.5t-132.5 -8q-179 0 -308 60t-212 161.5t-122.5 236.5t-39.5 283q0 149 39.5 284.5t122.5 238t209 163.5t298 61q140 0 263.5 -35.5t218.5 -91.5l-70 -155q-129 63 -235.5 85.5t-180.5 22.5q-125 0 -214 -47t-145.5 -127
t-83 -184.5t-26.5 -218.5q0 -109 24.5 -210t83 -180t154 -126t236.5 -47q45 0 117.5 8t164.5 37v405h-329v164h518v-682zM825 1663q-30 -33 -86 -33q-55 0 -86.5 33t-31.5 82t31.5 81t86.5 32q56 0 87.5 -32t31.5 -81t-33 -82z" />
    <glyph glyph-name="gdotaccent" unicode="&#x121;" horiz-adv-x="1188" 
d="M1026 47q0 -127 -26.5 -227.5t-84 -171t-148.5 -107.5t-218 -37q-107 0 -196 25t-181 76l61 143q80 -41 154 -64.5t150 -23.5q88 0 146 26.5t94 77t51.5 121t15.5 158.5v57q-66 -47 -151 -78.5t-177 -31.5q-102 0 -181 44t-133.5 117.5t-82 170t-27.5 198.5
q0 113 32 215.5t93.5 178t150.5 120.5t203 45q68 0 138.5 -19.5t138.5 -66.5l10 62l168 16v-1024zM844 846q-60 39 -126.5 57.5t-125.5 18.5q-84 0 -143.5 -33t-98.5 -89.5t-56.5 -131t-17.5 -158.5q0 -72 16.5 -137.5t52.5 -115.5t90 -80t128 -30q60 0 135.5 19.5
t145.5 64.5v615zM666 1343q-31 -32 -86 -32q-56 0 -87.5 32.5t-31.5 81.5q0 50 31.5 81.5t87.5 31.5q55 0 86.5 -31.5t31.5 -81.5q0 -49 -32 -82z" />
    <glyph glyph-name="Gcommaaccent" unicode="&#x122;" horiz-adv-x="1425" 
d="M1276 86q-43 -23 -99.5 -42t-120 -33.5t-131 -22.5t-132.5 -8q-179 0 -308 60t-212 161.5t-122.5 236.5t-39.5 283q0 149 39.5 284.5t122.5 238t209 163.5t298 61q140 0 263.5 -35.5t218.5 -91.5l-70 -155q-129 63 -235.5 85.5t-180.5 22.5q-125 0 -214 -47t-145.5 -127
t-83 -184.5t-26.5 -218.5q0 -109 24.5 -210t83 -180t154 -126t236.5 -47q45 0 117.5 8t164.5 37v405h-329v164h518v-682zM649 -473q21 43 35 80t23.5 75.5t13.5 80.5t4 96l190 -19q0 -100 -30.5 -195.5t-108.5 -181.5z" />
    <glyph glyph-name="gcommaaccent" unicode="&#x123;" horiz-adv-x="1188" 
d="M1026 47q0 -127 -26.5 -227.5t-84 -171t-148.5 -107.5t-218 -37q-107 0 -196 25t-181 76l61 143q80 -41 154 -64.5t150 -23.5q88 0 146 26.5t94 77t51.5 121t15.5 158.5v57q-66 -47 -151 -78.5t-177 -31.5q-102 0 -181 44t-133.5 117.5t-82 170t-27.5 198.5
q0 113 32 215.5t93.5 178t150.5 120.5t203 45q68 0 138.5 -19.5t138.5 -66.5l10 62l168 16v-1024zM844 846q-60 39 -126.5 57.5t-125.5 18.5q-84 0 -143.5 -33t-98.5 -89.5t-56.5 -131t-17.5 -158.5q0 -72 16.5 -137.5t52.5 -115.5t90 -80t128 -30q60 0 135.5 19.5
t145.5 64.5v615zM487 1237q0 100 31 195.5t109 181.5l118 -64q-20 -43 -34.5 -79.5t-23.5 -75.5t-13 -81t-4 -95z" />
    <glyph glyph-name="Hcircumflex" unicode="&#x124;" horiz-adv-x="1470" 
d="M1284 0h-192v643h-713v-643h-193v1448h193v-637h713v637h192v-1448zM1053 1591q-107 37 -179.5 66t-138.5 57q-65 -28 -138 -57t-179 -66l-41 119q102 51 183 96t149 86h53q67 -41 148 -86t184 -96z" />
    <glyph glyph-name="hcircumflex" unicode="&#x125;" horiz-adv-x="1186" 
d="M872 0q-14 59 -17 126t-3 126v403q0 56 -9 105t-30.5 85t-59.5 56.5t-94 20.5q-71 0 -153 -35t-158 -92v-795h-182v1526l182 16v-612q176 149 359 149q88 0 149.5 -32.5t101 -89t58 -132t18.5 -161.5v-412q0 -59 3 -126t18 -126h-183zM573 1604q-106 36 -178.5 65
t-138.5 57q-66 -28 -138.5 -57t-178.5 -65l-41 118q102 52 183 97t148 86h54q67 -41 148 -86t183 -97z" />
    <glyph glyph-name="Hbar" unicode="&#x126;" horiz-adv-x="1470" 
d="M1284 0h-192v643h-713v-643h-193v1026h-155v150h155v272h193v-272h713v272h192v-272h156v-150h-156v-1026zM1092 811v215h-713v-215h713z" />
    <glyph glyph-name="hbar" unicode="&#x127;" horiz-adv-x="1186" 
d="M872 0q-14 59 -17 126t-3 126v403q0 56 -9 105t-30.5 85t-59.5 56.5t-94 20.5q-71 0 -153 -35t-158 -92v-795h-182v1221h-180v137h180v168l182 16v-184h334v-137h-334v-291q176 149 359 149q88 0 149.5 -32.5t101 -89t58 -132t18.5 -161.5v-412q0 -59 3 -126t18 -126
h-183z" />
    <glyph glyph-name="Itilde" unicode="&#x128;" horiz-adv-x="586" 
d="M389 0h-192v1448h192v-1448zM643 1825q2 -10 2 -20.5v-20.5q0 -96 -56.5 -152.5t-154.5 -56.5q-49 0 -91 17.5t-71 39.5q-26 21 -50.5 36t-59.5 15q-74 0 -74 -88l-145 -12q-2 10 -2 20.5v20.5q0 96 56 152.5t155 56.5q49 0 91 -17.5t70 -39.5q27 -21 51.5 -36.5
t59.5 -15.5q74 0 74 88z" />
    <glyph glyph-name="itilde" unicode="&#x129;" horiz-adv-x="514" 
d="M348 0h-182v1055l182 16v-1071zM604 1511q2 -10 3 -24t1 -31q0 -92 -58 -151.5t-151 -59.5q-59 0 -100 22.5t-72 49.5q-24 22 -46.5 37.5t-49.5 15.5q-39 0 -58.5 -31.5t-19.5 -72.5l-145 -13q-2 11 -3 25t-1 31q0 92 58 151.5t151 59.5q59 0 100 -22.5t72 -49.5
q24 -23 46.5 -38t49.5 -15q39 0 58.5 31.5t19.5 72.5z" />
    <glyph glyph-name="Imacron" unicode="&#x12a;" horiz-adv-x="586" 
d="M389 0h-192v1448h192v-1448zM563 1636h-540v150h540v-150z" />
    <glyph glyph-name="imacron" unicode="&#x12b;" horiz-adv-x="514" 
d="M348 0h-182v1055l182 16v-1071zM526 1309h-540v149h540v-149z" />
    <glyph glyph-name="Ibreve" unicode="&#x12c;" horiz-adv-x="586" 
d="M389 0h-192v1448h192v-1448zM594 1827q-12 -121 -95 -188.5t-206 -67.5t-206 67.5t-95 188.5h147q11 -47 52.5 -77t101.5 -30q59 0 101 30t52 77h148z" />
    <glyph glyph-name="ibreve" unicode="&#x12d;" horiz-adv-x="514" 
d="M348 0h-182v1055l182 16v-1071zM557 1524q-6 -60 -28.5 -112t-60.5 -90t-91 -59.5t-121 -21.5t-121 21.5t-91 59.5t-60.5 90t-28.5 112h147q15 -62 54 -97.5t100 -35.5t100 35.5t54 97.5h147z" />
    <glyph glyph-name="Iogonek" unicode="&#x12e;" horiz-adv-x="586" 
d="M428 -467q-74 -29 -158 -29q-118 0 -185 58.5t-67 150.5q0 78 48.5 156t130.5 131v1448h192v-1448q-104 -61 -151.5 -130t-47.5 -122q0 -47 33 -70.5t82 -23.5q21 0 46.5 4t41.5 12z" />
    <glyph glyph-name="iogonek" unicode="&#x12f;" horiz-adv-x="514" 
d="M387 -467q-74 -29 -158 -29q-118 0 -180.5 58.5t-62.5 148.5q0 80 49 158t131 131v1055l182 16v-1071q-82 -47 -140 -111.5t-58 -134.5q0 -53 32.5 -76.5t79.5 -23.5q23 0 48.5 4t41.5 12zM342 1343q-31 -32 -86 -32t-87 32.5t-32 81.5q0 50 32 81.5t87 31.5t87 -31.5
t32 -81.5q0 -49 -33 -82z" />
    <glyph glyph-name="Idotaccent" unicode="&#x130;" horiz-adv-x="586" 
d="M389 0h-192v1448h192v-1448zM379 1663q-31 -33 -86 -33t-87 33t-32 82t32 81t87 32t87 -32t32 -81t-33 -82z" />
    <glyph glyph-name="dotlessi" unicode="&#x131;" horiz-adv-x="514" 
d="M348 0h-182v1055l182 16v-1071z" />
    <glyph glyph-name="IJ" unicode="&#x132;" horiz-adv-x="1477" 
d="M389 0h-192v1448h192v-1448zM1296 514q0 -111 -14 -208t-56 -170t-120 -114.5t-207 -41.5q-78 0 -159 15t-138 42l35 166q53 -21 119.5 -35t126.5 -14q78 0 123 29.5t66.5 78.5t26.5 114.5t5 137.5v934h192v-934z" />
    <glyph glyph-name="ij" unicode="&#x133;" horiz-adv-x="1020" 
d="M348 0h-182v1055l182 16v-1071zM375 1425q0 -49 -33 -81.5t-86 -32.5t-86 32.5t-33 81.5q0 52 33 82.5t86 30.5t86 -30.5t33 -82.5zM858 -80q0 -192 -84 -304t-239 -112q-93 0 -181 39l35 138q23 -11 52.5 -16t58.5 -5q106 0 141 84t35 264v1047l182 16v-1151zM885 1425
q0 -49 -33 -81.5t-86 -32.5t-86 32.5t-33 81.5q0 52 33 82.5t86 30.5t86 -30.5t33 -82.5z" />
    <glyph glyph-name="Jcircumflex" unicode="&#x134;" horiz-adv-x="891" 
d="M711 514q0 -111 -14.5 -208t-56.5 -170t-120 -114.5t-207 -41.5q-77 0 -158 15t-139 42l35 166q53 -21 120 -35t126 -14q78 0 123 29.5t66.5 78.5t26.5 114.5t5 137.5v934h193v-934zM932 1591q-107 37 -179.5 66t-138.5 57q-65 -28 -138 -57t-179 -66l-41 119
q102 51 183 96t149 86h53q68 -41 148.5 -86t183.5 -96z" />
    <glyph glyph-name="jcircumflex" unicode="&#x135;" horiz-adv-x="506" 
d="M344 -80q0 -86 -18.5 -160.5t-58.5 -132t-100.5 -90.5t-146.5 -33q-94 0 -180 39l35 138q23 -11 55.5 -16t55.5 -5q63 0 99 30.5t52.5 80t20.5 112t4 125.5v1047l182 16v-1151zM522 1202q-24 19 -57 44.5t-69 55t-73.5 60.5t-70.5 59q-33 -28 -71 -59t-73.5 -60.5
t-68.5 -55t-57 -44.5l-93 92q52 47 97 89t85 81t77.5 77t76.5 79h54q75 -82 153 -156.5t182 -169.5z" />
    <glyph glyph-name="Kcommaaccent" unicode="&#x136;" horiz-adv-x="1257" 
d="M1100 -20q-68 69 -143.5 158t-149.5 182.5t-140.5 184.5t-115.5 165l-172 -213v-457h-193v1448h193v-741l590 741h211l-514 -635q59 -88 132.5 -186.5t150.5 -193.5t153 -182t141 -151zM535 -473q20 43 34.5 80t23.5 75.5t13 80.5t4 96l191 -19q0 -100 -31 -195.5
t-108 -181.5z" />
    <glyph glyph-name="kcommaaccent" unicode="&#x137;" horiz-adv-x="1059" 
d="M909 -20q-86 73 -189.5 203t-227.5 319l-144 -156v-346h-182v1526l182 16v-975l440 492h216l-394 -428q101 -158 201 -287t231 -252zM432 -473q21 43 35 80t23.5 75.5t13.5 80.5t4 96l182 -19q0 -100 -30.5 -195.5t-108.5 -181.5z" />
    <glyph glyph-name="kgreenlandic" unicode="&#x138;" horiz-adv-x="1055" 
d="M905 -20q-86 73 -189.5 203t-228.5 319l-143 -156v-346h-182v1055l182 16v-504l440 492h215l-393 -428q101 -158 201 -287t231 -252z" />
    <glyph glyph-name="Lacute" unicode="&#x139;" horiz-adv-x="1110" 
d="M1087 0h-901v1448h193v-1280h708v-168zM539 1726q-41 -18 -103.5 -39.5t-129 -41t-130 -35t-106.5 -23.5l-43 125q114 41 231 89t215 93z" />
    <glyph glyph-name="lacute" unicode="&#x13a;" horiz-adv-x="514" 
d="M348 0h-182v1526l182 16v-1542zM530 1739q-41 -19 -109.5 -42.5t-144 -47t-145.5 -44t-111 -30.5l-38 121q57 22 122.5 47.5t130 53.5t123 55.5t105.5 52.5z" />
    <glyph glyph-name="Lcommaaccent" unicode="&#x13b;" horiz-adv-x="1110" 
d="M1087 0h-901v1448h193v-1280h708v-168zM463 -473q20 43 34.5 80t23.5 75.5t13.5 80.5t4.5 96l190 -19q0 -100 -30.5 -195.5t-108.5 -181.5z" />
    <glyph glyph-name="lcommaaccent" unicode="&#x13c;" horiz-adv-x="514" 
d="M348 0h-182v1526l182 16v-1542zM90 -473q21 43 35 80t23.5 75.5t13.5 80.5t4 96l182 -19q0 -100 -30.5 -195.5t-108.5 -181.5z" />
    <glyph glyph-name="Lcaron" unicode="&#x13d;" horiz-adv-x="1110" 
d="M1087 0h-901v1448h193v-1280h708v-168zM629 1071q41 86 69.5 186.5t28.5 204.5l172 -16q0 -49 -11 -108.5t-31.5 -119t-50.5 -114.5t-69 -98z" />
    <glyph glyph-name="lcaron" unicode="&#x13e;" horiz-adv-x="584" 
d="M348 0h-182v1526l182 16v-1542zM487 1151q41 86 70 186.5t29 204.5l172 -16q0 -49 -11.5 -108.5t-32 -119t-50 -115t-68.5 -98.5z" />
    <glyph glyph-name="Ldot" unicode="&#x13f;" horiz-adv-x="1110" 
d="M1087 0h-901v1448h193v-1280h708v-168zM905 737q-31 -32 -86 -32t-87 32.5t-32 81.5t32 81t87 32t87 -32t32 -81t-33 -82z" />
    <glyph glyph-name="ldot" unicode="&#x140;" horiz-adv-x="696" 
d="M348 0h-182v1526l182 16v-1542zM688 643q-31 -33 -86 -33t-87 33t-32 82t32 81t87 32t87 -32t32 -81t-33 -82z" />
    <glyph glyph-name="Lslash" unicode="&#x141;" horiz-adv-x="1161" 
d="M1139 0h-901v610l-179 -78l-59 138l238 104v674h192v-590l277 123l59 -137l-336 -148v-528h709v-168z" />
    <glyph glyph-name="lslash" unicode="&#x142;" horiz-adv-x="621" 
d="M401 0h-182v764l-162 -72l-57 125l219 98v611l182 16v-547l162 74l58 -125l-220 -98v-846z" />
    <glyph glyph-name="Nacute" unicode="&#x143;" horiz-adv-x="1477" 
d="M1290 0h-188l-727 1126v-1126h-189v1448h189l727 -1126v1126h188v-1448zM1049 1726q-41 -18 -103.5 -39.5t-129 -41t-130 -35t-106.5 -23.5l-43 125q114 41 231 89t215 93z" />
    <glyph glyph-name="nacute" unicode="&#x144;" horiz-adv-x="1182" 
d="M868 0q-14 59 -17 126t-3 126v403q0 56 -9.5 105t-31 85t-59 56.5t-93.5 20.5q-71 0 -153 -35t-158 -92v-795h-182v1055l164 16l16 -141q176 149 360 149q89 0 150 -32.5t101 -89t58.5 -132t18.5 -161.5v-412q0 -59 3 -126t18 -126h-183zM877 1530q-29 -35 -77 -81
t-100.5 -92t-102.5 -87t-85 -68l-94 92q86 86 173 181.5t152 177.5z" />
    <glyph glyph-name="Ncommaaccent" unicode="&#x145;" horiz-adv-x="1477" 
d="M1290 0h-188l-727 1126v-1126h-189v1448h189l727 -1126v1126h188v-1448zM567 -473q21 43 35 80t23.5 75.5t13.5 80.5t4 96l191 -19q0 -100 -31 -195.5t-109 -181.5z" />
    <glyph glyph-name="ncommaaccent" unicode="&#x146;" horiz-adv-x="1182" 
d="M868 0q-14 59 -17 126t-3 126v403q0 56 -9.5 105t-31 85t-59 56.5t-93.5 20.5q-71 0 -153 -35t-158 -92v-795h-182v1055l164 16l16 -141q176 149 360 149q89 0 150 -32.5t101 -89t58.5 -132t18.5 -161.5v-412q0 -59 3 -126t18 -126h-183zM449 -473q20 43 34.5 80
t23.5 75.5t13 80.5t4 96l183 -19q0 -100 -31 -195.5t-109 -181.5z" />
    <glyph glyph-name="Ncaron" unicode="&#x147;" horiz-adv-x="1477" 
d="M1290 0h-188l-727 1126v-1126h-189v1448h189l727 -1126v1126h188v-1448zM1098 1774q-103 -52 -183.5 -97t-148.5 -86h-53q-68 41 -149 86t-183 97l41 118q106 -37 179 -65.5t138 -57.5q66 29 138.5 57.5t179.5 65.5z" />
    <glyph glyph-name="ncaron" unicode="&#x148;" horiz-adv-x="1182" 
d="M868 0q-14 59 -17 126t-3 126v403q0 56 -9.5 105t-31 85t-59 56.5t-93.5 20.5q-71 0 -153 -35t-158 -92v-795h-182v1055l164 16l16 -141q176 149 360 149q89 0 150 -32.5t101 -89t58.5 -132t18.5 -161.5v-412q0 -59 3 -126t18 -126h-183zM967 1544q-54 -47 -98 -89
t-84 -81t-77.5 -76.5t-76.5 -78.5h-53q-39 41 -77 78.5t-78 76.5t-85 81t-96 89l92 92q24 -18 57 -43.5t69 -55.5t73.5 -61.5t70.5 -58.5q33 27 71 58.5t73.5 61.5t68.5 55.5t57 43.5z" />
    <glyph glyph-name="napostrophe" unicode="&#x149;" horiz-adv-x="1415" 
d="M1102 0q-15 59 -18 126t-3 126v403q0 56 -9 105t-30.5 85t-59.5 56.5t-93 20.5q-72 0 -154 -35t-157 -92v-795h-183v1055l164 16l16 -141q177 149 361 149q88 0 149.5 -32.5t101.5 -89t58.5 -132t18.5 -161.5v-412q0 -59 3 -126t17 -126h-182zM104 1171q41 86 69 186.5
t28 205.5l182 -17q0 -49 -10.5 -108.5t-30.5 -118.5t-50 -114.5t-69 -98.5z" />
    <glyph glyph-name="Eng" unicode="&#x14a;" horiz-adv-x="1477" 
d="M1290 39q0 -111 -14 -208t-56 -170t-120 -115t-207 -42q-78 0 -159 15.5t-138 42.5l35 166q53 -21 119.5 -35.5t126.5 -14.5q73 0 116 26t66.5 70t32 102t10.5 124l-727 1126v-1126h-189v1448h189l727 -1126v1126h188v-1409z" />
    <glyph glyph-name="eng" unicode="&#x14b;" horiz-adv-x="1182" 
d="M1030 -80q0 -192 -84 -304t-239 -112q-93 0 -181 39l35 138q23 -11 52.5 -16t58.5 -5q106 0 141 84t35 264v647q0 56 -9.5 105t-31 85t-59 56.5t-93.5 20.5q-71 0 -153 -35t-158 -92v-795h-182v1055l164 16l16 -141q176 149 360 149q89 0 150 -32.5t101 -89t58.5 -132
t18.5 -161.5v-744z" />
    <glyph glyph-name="Omacron" unicode="&#x14c;" horiz-adv-x="1524" 
d="M958 199q86 45 143.5 122.5t86.5 181t29 220.5t-29 221.5t-86.5 182t-142.5 122.5t-197 45q-113 0 -198 -45t-142 -122.5t-86 -182t-29 -221.5t29 -220.5t86 -181t142 -122.5t198 -45q112 0 196 45zM1239 193q-84 -101 -205 -157t-272 -56q-152 0 -272.5 56t-204.5 156.5
t-129 236.5t-45 294q0 160 45 296t129 235.5t204.5 156.5t272.5 57q151 0 272 -57t205 -156.5t129 -235.5t45 -296q0 -158 -45 -294t-129 -236zM1094 1636h-664v150h664v-150z" />
    <glyph glyph-name="omacron" unicode="&#x14d;" horiz-adv-x="1188" 
d="M737 168q60 31 98.5 83t57 123.5t18.5 155.5q0 82 -18.5 154t-57 124t-98 83t-141.5 31q-84 0 -143.5 -31t-99.5 -83t-58.5 -124t-18.5 -154q0 -84 18.5 -155.5t58.5 -123.5t99.5 -83t143.5 -31q82 0 141 31zM967 131q-62 -72 -155 -111.5t-216 -39.5t-216 39.5
t-157.5 112.5t-97.5 174.5t-33 223.5q0 121 33 222.5t97.5 174t157.5 112.5t216 40q121 0 214 -40t156.5 -112.5t96.5 -174t33 -222.5q0 -122 -33 -223.5t-96 -175.5zM928 1309h-664v149h664v-149z" />
    <glyph glyph-name="Obreve" unicode="&#x14e;" horiz-adv-x="1524" 
d="M958 199q86 45 143.5 122.5t86.5 181t29 220.5t-29 221.5t-86.5 182t-142.5 122.5t-197 45q-113 0 -198 -45t-142 -122.5t-86 -182t-29 -221.5t29 -220.5t86 -181t142 -122.5t198 -45q112 0 196 45zM1239 193q-84 -101 -205 -157t-272 -56q-152 0 -272.5 56t-204.5 156.5
t-129 236.5t-45 294q0 160 45 296t129 235.5t204.5 156.5t272.5 57q151 0 272 -57t205 -156.5t129 -235.5t45 -296q0 -158 -45 -294t-129 -236zM1063 1827q-12 -121 -95 -188.5t-206 -67.5t-206 67.5t-95 188.5h147q10 -47 52 -77t102 -30q59 0 101 30t52 77h148z" />
    <glyph glyph-name="obreve" unicode="&#x14f;" horiz-adv-x="1188" 
d="M737 168q60 31 98.5 83t57 123.5t18.5 155.5q0 82 -18.5 154t-57 124t-98 83t-141.5 31q-84 0 -143.5 -31t-99.5 -83t-58.5 -124t-18.5 -154q0 -84 18.5 -155.5t58.5 -123.5t99.5 -83t143.5 -31q82 0 141 31zM967 131q-62 -72 -155 -111.5t-216 -39.5t-216 39.5
t-157.5 112.5t-97.5 174.5t-33 223.5q0 121 33 222.5t97.5 174t157.5 112.5t216 40q121 0 214 -40t156.5 -112.5t96.5 -174t33 -222.5q0 -122 -33 -223.5t-96 -175.5zM897 1524q-6 -60 -28.5 -112t-60.5 -90t-91 -59.5t-121 -21.5t-121 21.5t-91 59.5t-60.5 90t-28.5 112
h147q15 -62 54 -97.5t100 -35.5t100 35.5t54 97.5h147z" />
    <glyph glyph-name="Ohungarumlaut" unicode="&#x150;" horiz-adv-x="1524" 
d="M958 199q86 45 143.5 122.5t86.5 181t29 220.5t-29 221.5t-86.5 182t-142.5 122.5t-197 45q-113 0 -198 -45t-142 -122.5t-86 -182t-29 -221.5t29 -220.5t86 -181t142 -122.5t198 -45q112 0 196 45zM1239 193q-84 -101 -205 -157t-272 -56q-152 0 -272.5 56t-204.5 156.5
t-129 236.5t-45 294q0 160 45 296t129 235.5t204.5 156.5t272.5 57q151 0 272 -57t205 -156.5t129 -235.5t45 -296q0 -158 -45 -294t-129 -236zM811 1741q-37 -25 -85 -49.5t-98 -47t-100.5 -41t-93.5 -30.5l-51 121q90 47 167 96t171 115zM1280 1741q-37 -25 -85 -49.5
t-98 -47t-100.5 -41t-93.5 -30.5l-51 121q90 47 167 96t171 115z" />
    <glyph glyph-name="ohungarumlaut" unicode="&#x151;" horiz-adv-x="1188" 
d="M737 168q60 31 98.5 83t57 123.5t18.5 155.5q0 82 -18.5 154t-57 124t-98 83t-141.5 31q-84 0 -143.5 -31t-99.5 -83t-58.5 -124t-18.5 -154q0 -84 18.5 -155.5t58.5 -123.5t99.5 -83t143.5 -31q82 0 141 31zM967 131q-62 -72 -155 -111.5t-216 -39.5t-216 39.5
t-157.5 112.5t-97.5 174.5t-33 223.5q0 121 33 222.5t97.5 174t157.5 112.5t216 40q121 0 214 -40t156.5 -112.5t96.5 -174t33 -222.5q0 -122 -33 -223.5t-96 -175.5zM684 1548q-53 -86 -124 -177t-142 -169l-105 80q60 92 116 183t103 188zM1051 1542q-58 -84 -131.5 -174
t-149.5 -166l-100 84q63 88 123.5 181.5t111.5 185.5z" />
    <glyph glyph-name="OE" unicode="&#x152;" horiz-adv-x="2064" 
d="M1970 0h-1175q-156 0 -283 53t-216 148.5t-137 228.5t-48 293t48 294t137 229t216 148.5t283 53.5h1175v-168h-708v-469h577v-168h-577v-475h708v-168zM1069 168v1112h-262q-117 0 -210 -42t-157.5 -115.5t-98.5 -176t-34 -223.5t34 -222.5t98.5 -175t157.5 -115.5
t210 -42h262z" />
    <glyph glyph-name="oe" unicode="&#x153;" horiz-adv-x="1882" 
d="M1769 80q-75 -51 -173.5 -75.5t-190.5 -24.5q-148 0 -251 55t-165 153q-59 -98 -154.5 -153t-238.5 -55q-123 0 -216 39.5t-157.5 112.5t-97.5 174.5t-33 223.5q0 121 33 222.5t97.5 174t157.5 112.5t216 40q141 0 234.5 -52t152.5 -146q53 90 144.5 144t226.5 54
q106 0 188 -35.5t137.5 -100t83 -153t27.5 -194.5q0 -74 -12 -131h-693q17 -152 97 -240t231 -88q78 0 152.5 23.5t142.5 62.5zM737 168q60 31 98.5 83t57 123.5t18.5 155.5q0 82 -18.5 154t-57 124t-98 83t-141.5 31q-84 0 -143.5 -31t-99.5 -83t-58.5 -124t-18.5 -154
q0 -84 18.5 -155.5t58.5 -123.5t99.5 -83t143.5 -31q82 0 141 31zM1610 610q-2 68 -18.5 126.5t-47.5 100.5t-78 65.5t-112 23.5q-68 0 -116 -24.5t-80 -67.5t-50 -100.5t-25 -123.5h527z" />
    <glyph glyph-name="Racute" unicode="&#x154;" horiz-adv-x="1290" 
d="M1114 -20q-147 155 -266 310.5t-223 305.5h-246v-596h-193v1448h504q103 0 189 -29.5t147 -85t96 -135.5t35 -180q0 -170 -92 -269.5t-244 -134.5q107 -143 214.5 -271t221.5 -243zM680 756q125 0 203 69.5t78 192.5t-78 192.5t-203 69.5h-301v-524h301zM860 1726
q-41 -18 -103.5 -39.5t-129 -41t-130 -35t-106.5 -23.5l-43 125q115 41 231.5 89t215.5 93z" />
    <glyph glyph-name="racute" unicode="&#x155;" horiz-adv-x="776" 
d="M344 0h-182v1055l164 16l18 -162q66 80 136.5 125t150.5 45q55 0 123 -22l-43 -176q-31 10 -58.5 13t-50.5 3q-80 0 -139.5 -30.5t-118.5 -84.5v-782zM711 1530q-29 -35 -77 -81t-100.5 -92t-102.5 -87t-85 -68l-94 92q86 86 173 181.5t153 177.5z" />
    <glyph glyph-name="Rcommaaccent" unicode="&#x156;" horiz-adv-x="1290" 
d="M1114 -20q-147 155 -266 310.5t-223 305.5h-246v-596h-193v1448h504q103 0 189 -29.5t147 -85t96 -135.5t35 -180q0 -170 -92 -269.5t-244 -134.5q107 -143 214.5 -271t221.5 -243zM680 756q125 0 203 69.5t78 192.5t-78 192.5t-203 69.5h-301v-524h301zM539 -473
q20 43 34.5 80t23.5 75.5t13 80.5t4 96l191 -19q0 -100 -31 -195.5t-108 -181.5z" />
    <glyph glyph-name="rcommaaccent" unicode="&#x157;" horiz-adv-x="776" 
d="M344 0h-182v1055l164 16l18 -162q66 80 136.5 125t150.5 45q55 0 123 -22l-43 -176q-31 10 -58.5 13t-50.5 3q-80 0 -139.5 -30.5t-118.5 -84.5v-782zM86 -473q20 43 34.5 80t24 75.5t13.5 80.5t4 96l182 -19q0 -100 -30.5 -195.5t-108.5 -181.5z" />
    <glyph glyph-name="Rcaron" unicode="&#x158;" horiz-adv-x="1290" 
d="M1114 -20q-147 155 -266 310.5t-223 305.5h-246v-596h-193v1448h504q103 0 189 -29.5t147 -85t96 -135.5t35 -180q0 -170 -92 -269.5t-244 -134.5q107 -143 214.5 -271t221.5 -243zM680 756q125 0 203 69.5t78 192.5t-78 192.5t-203 69.5h-301v-524h301zM942 1774
q-102 -52 -183 -97t-149 -86h-53q-68 41 -148.5 86t-183.5 97l41 118q107 -37 179.5 -65.5t138.5 -57.5q65 29 138 57.5t179 65.5z" />
    <glyph glyph-name="rcaron" unicode="&#x159;" horiz-adv-x="776" 
d="M344 0h-182v1055l164 16l18 -162q66 80 136.5 125t150.5 45q55 0 123 -22l-43 -176q-31 10 -58.5 13t-50.5 3q-80 0 -139.5 -30.5t-118.5 -84.5v-782zM815 1544q-53 -47 -97 -89t-84 -81t-78 -76.5t-77 -78.5h-53q-39 41 -77 78.5t-78 76.5t-85 81t-96 89l92 92
q25 -18 57.5 -43.5t68.5 -55.5t74 -61.5t71 -58.5q32 27 70 58.5t74 61.5t68.5 55.5t57.5 43.5z" />
    <glyph glyph-name="Sacute" unicode="&#x15a;" horiz-adv-x="1188" 
d="M129 287q125 -74 242.5 -103.5t212.5 -29.5q141 0 230 56t89 165q0 61 -30.5 104t-81 76t-117 56.5t-135.5 47.5q-80 27 -159 58t-142.5 77t-102.5 113.5t-39 169.5q0 105 42 178.5t110.5 121.5t158 69.5t181.5 21.5q127 0 246.5 -34.5t214.5 -94.5l-72 -157
q-103 53 -199 82.5t-188 29.5q-55 0 -108.5 -11t-95.5 -35.5t-67.5 -63.5t-25.5 -94q0 -54 25.5 -91.5t68.5 -66.5t101.5 -51.5t123.5 -44.5q82 -29 168 -62t157 -84t117 -124.5t46 -182.5q0 -98 -40 -174t-109.5 -126t-166 -76.5t-209.5 -26.5q-124 0 -257.5 33.5
t-262.5 115.5zM819 1726q-41 -18 -103.5 -39.5t-129 -41t-130 -35t-106.5 -23.5l-43 125q115 41 231.5 89t215.5 93z" />
    <glyph glyph-name="sacute" unicode="&#x15b;" horiz-adv-x="952" 
d="M782 836q-82 41 -157.5 65.5t-149.5 24.5q-39 0 -74.5 -8.5t-63.5 -24.5t-44.5 -40t-16.5 -56q0 -35 19.5 -62.5t52.5 -49t78 -39t94 -34.5q62 -20 123.5 -44.5t112.5 -62.5t82.5 -93.5t31.5 -135.5q0 -83 -33.5 -139.5t-90 -91.5t-130 -50t-153.5 -15q-101 0 -199 23.5
t-182 76.5l63 143q80 -41 167 -65.5t167 -24.5q39 0 77 7t67.5 22.5t47 42t17.5 63.5t-20.5 65.5t-55 50.5t-84 41t-104.5 38q-59 20 -118.5 46t-106.5 62.5t-76 89t-29 123.5q0 74 31 129.5t83 92t121.5 55t149.5 18.5q90 0 186.5 -23.5t178.5 -76.5zM705 1530
q-29 -35 -77 -81t-100.5 -92t-102.5 -87t-85 -68l-94 92q86 86 173 181.5t152 177.5z" />
    <glyph glyph-name="Scircumflex" unicode="&#x15c;" horiz-adv-x="1188" 
d="M129 287q125 -74 242.5 -103.5t212.5 -29.5q141 0 230 56t89 165q0 61 -30.5 104t-81 76t-117 56.5t-135.5 47.5q-80 27 -159 58t-142.5 77t-102.5 113.5t-39 169.5q0 105 42 178.5t110.5 121.5t158 69.5t181.5 21.5q127 0 246.5 -34.5t214.5 -94.5l-72 -157
q-103 53 -199 82.5t-188 29.5q-55 0 -108.5 -11t-95.5 -35.5t-67.5 -63.5t-25.5 -94q0 -54 25.5 -91.5t68.5 -66.5t101.5 -51.5t123.5 -44.5q82 -29 168 -62t157 -84t117 -124.5t46 -182.5q0 -98 -40 -174t-109.5 -126t-166 -76.5t-209.5 -26.5q-124 0 -257.5 33.5
t-262.5 115.5zM918 1591q-107 37 -179.5 66t-138.5 57q-65 -28 -138 -57t-179 -66l-41 119q102 51 183 96t148 86h54q67 -41 148 -86t183 -96z" />
    <glyph glyph-name="scircumflex" unicode="&#x15d;" horiz-adv-x="952" 
d="M782 836q-82 41 -157.5 65.5t-149.5 24.5q-39 0 -74.5 -8.5t-63.5 -24.5t-44.5 -40t-16.5 -56q0 -35 19.5 -62.5t52.5 -49t78 -39t94 -34.5q62 -20 123.5 -44.5t112.5 -62.5t82.5 -93.5t31.5 -135.5q0 -83 -33.5 -139.5t-90 -91.5t-130 -50t-153.5 -15q-101 0 -199 23.5
t-182 76.5l63 143q80 -41 167 -65.5t167 -24.5q39 0 77 7t67.5 22.5t47 42t17.5 63.5t-20.5 65.5t-55 50.5t-84 41t-104.5 38q-59 20 -118.5 46t-106.5 62.5t-76 89t-29 123.5q0 74 31 129.5t83 92t121.5 55t149.5 18.5q90 0 186.5 -23.5t178.5 -76.5zM735 1202
q-24 19 -57 44.5t-69 55t-73.5 60.5t-70.5 59q-33 -28 -71 -59t-73.5 -60.5t-68.5 -55t-57 -44.5l-93 92q52 47 97 89t85 81t77.5 77t76.5 79h54q75 -82 153 -156.5t182 -169.5z" />
    <glyph glyph-name="Scedilla" unicode="&#x15e;" horiz-adv-x="1188" 
d="M475 -344q17 -4 39.5 -8t48.5 -4q39 0 67.5 14t28.5 51q0 41 -32.5 58.5t-75.5 17.5q-19 0 -35 -2t-29 -6l25 205q-113 8 -228.5 41.5t-228.5 105.5l74 158q125 -74 242.5 -103.5t212.5 -29.5q141 0 230 56t89 165q0 61 -30.5 104t-81 76t-117 56.5t-135.5 47.5
q-80 27 -159 58t-142.5 77t-102.5 113.5t-39 169.5q0 105 42 178.5t110.5 121.5t158 69.5t181.5 21.5q127 0 246.5 -34.5t214.5 -94.5l-72 -157q-103 53 -199 82.5t-188 29.5q-55 0 -108.5 -11t-95.5 -35.5t-67.5 -63.5t-25.5 -94q0 -54 25.5 -91.5t68.5 -66.5t101.5 -51.5
t123.5 -44.5q82 -29 168 -62t157 -84t117 -124.5t46 -182.5q0 -90 -34 -160.5t-93.5 -122t-143.5 -80t-182 -36.5l-10 -95q82 -12 138 -62t56 -130q0 -82 -63 -137.5t-176 -55.5q-45 0 -83 8.5t-67 20.5z" />
    <glyph glyph-name="scedilla" unicode="&#x15f;" horiz-adv-x="952" 
d="M356 -352q17 -4 39.5 -8.5t44.5 -4.5q43 0 74 16.5t31 53.5q0 41 -37 60.5t-78 19.5q-18 0 -33.5 -2t-27.5 -6l24 205q-84 6 -163.5 29.5t-147.5 68.5l63 143q80 -41 167 -65.5t167 -24.5q39 0 77 7t67.5 22.5t47 42t17.5 63.5t-20.5 65.5t-55 50.5t-84 41t-104.5 38
q-59 20 -118.5 46t-106.5 62.5t-76 89t-29 123.5q0 74 31 129.5t83 92t121.5 55t149.5 18.5q90 0 186.5 -23.5t178.5 -76.5l-62 -143q-82 41 -157.5 65.5t-149.5 24.5q-39 0 -74.5 -8.5t-63.5 -24.5t-44.5 -40t-16.5 -56q0 -35 19.5 -62.5t52.5 -49t78 -39t94 -34.5
q62 -20 123.5 -44.5t112.5 -62.5t82.5 -93.5t31.5 -135.5q0 -73 -26.5 -126.5t-72.5 -89t-108.5 -54t-132.5 -24.5l-12 -101q82 -12 136.5 -61t54.5 -127q0 -82 -60.5 -135.5t-175.5 -53.5q-45 0 -83 8.5t-66 20.5z" />
    <glyph glyph-name="Scaron" unicode="&#x160;" horiz-adv-x="1188" 
d="M129 287q125 -74 242.5 -103.5t212.5 -29.5q141 0 230 56t89 165q0 61 -30.5 104t-81 76t-117 56.5t-135.5 47.5q-80 27 -159 58t-142.5 77t-102.5 113.5t-39 169.5q0 105 42 178.5t110.5 121.5t158 69.5t181.5 21.5q127 0 246.5 -34.5t214.5 -94.5l-72 -157
q-103 53 -199 82.5t-188 29.5q-55 0 -108.5 -11t-95.5 -35.5t-67.5 -63.5t-25.5 -94q0 -54 25.5 -91.5t68.5 -66.5t101.5 -51.5t123.5 -44.5q82 -29 168 -62t157 -84t117 -124.5t46 -182.5q0 -98 -40 -174t-109.5 -126t-166 -76.5t-209.5 -26.5q-124 0 -257.5 33.5
t-262.5 115.5zM958 1774q-102 -52 -183 -97t-148 -86h-54q-67 41 -148 86t-183 97l41 118q106 -37 179 -65.5t138 -57.5q66 29 138.5 57.5t179.5 65.5z" />
    <glyph glyph-name="scaron" unicode="&#x161;" horiz-adv-x="952" 
d="M782 836q-82 41 -157.5 65.5t-149.5 24.5q-39 0 -74.5 -8.5t-63.5 -24.5t-44.5 -40t-16.5 -56q0 -35 19.5 -62.5t52.5 -49t78 -39t94 -34.5q62 -20 123.5 -44.5t112.5 -62.5t82.5 -93.5t31.5 -135.5q0 -83 -33.5 -139.5t-90 -91.5t-130 -50t-153.5 -15q-101 0 -199 23.5
t-182 76.5l63 143q80 -41 167 -65.5t167 -24.5q39 0 77 7t67.5 22.5t47 42t17.5 63.5t-20.5 65.5t-55 50.5t-84 41t-104.5 38q-59 20 -118.5 46t-106.5 62.5t-76 89t-29 123.5q0 74 31 129.5t83 92t121.5 55t149.5 18.5q90 0 186.5 -23.5t178.5 -76.5zM827 1544
q-53 -47 -97 -89t-84 -81t-78 -76.5t-76 -78.5h-54q-39 41 -76.5 78.5t-77.5 76.5t-85 81t-97 89l93 92q24 -18 57 -43.5t68.5 -55.5t73.5 -61.5t71 -58.5q33 27 70.5 58.5t73.5 61.5t69 55.5t57 43.5z" />
    <glyph glyph-name="Tcommaaccent" unicode="&#x162;" horiz-adv-x="1163" 
d="M475 -344q17 -4 39.5 -8t48.5 -4q39 0 67.5 14t28.5 51q0 41 -32.5 58.5t-75.5 17.5q-19 0 -35 -2t-29 -6l27 223h-29v1280h-452v168h1097v-168h-452v-1280h-27l-14 -111q82 -12 138 -62t56 -130q0 -82 -63 -137.5t-176 -55.5q-45 0 -83 8.5t-67 20.5z" />
    <glyph glyph-name="tcommaaccent" unicode="&#x163;" horiz-adv-x="797" 
d="M760 18q-53 -22 -92 -30t-84 -8q-21 0 -31 2l-12 -101q82 -12 136 -61t54 -127q0 -82 -60.5 -135.5t-174.5 -53.5q-45 0 -83 8.5t-67 20.5l33 115q16 -4 38.5 -8.5t45.5 -4.5q43 0 73.5 16.5t30.5 53.5q0 41 -36.5 60.5t-77.5 19.5q-19 0 -34.5 -2t-27.5 -6l29 237
q-90 45 -126 143.5t-36 235.5v516h-231v150h231v262l182 16v-278h277v-150h-277v-493q0 -49 4.5 -99.5t19.5 -90.5t46 -64.5t84 -24.5q63 0 131 23z" />
    <glyph glyph-name="Tcaron" unicode="&#x164;" horiz-adv-x="1163" 
d="M678 0h-193v1280h-452v168h1097v-168h-452v-1280zM940 1774q-102 -52 -183 -97t-149 -86h-53q-68 41 -148.5 86t-183.5 97l41 118q107 -37 179.5 -65.5t138.5 -57.5q65 29 138 57.5t179 65.5z" />
    <glyph glyph-name="tcaron" unicode="&#x165;" horiz-adv-x="797" 
d="M760 18q-53 -22 -92 -30t-84 -8q-92 0 -154.5 29.5t-100.5 83.5t-54.5 131t-16.5 169v516h-231v150h231v262l182 16v-278h277v-150h-277v-493q0 -49 4.5 -99.5t19.5 -90.5t46 -64.5t84 -24.5q63 0 131 23zM563 1255q35 86 53.5 164t18.5 166l166 -16q0 -86 -33 -189.5
t-102 -189.5z" />
    <glyph glyph-name="Tbar" unicode="&#x166;" horiz-adv-x="1163" 
d="M678 0h-193v670h-297v149h297v461h-452v168h1097v-168h-452v-461h297v-149h-297v-670z" />
    <glyph glyph-name="tbar" unicode="&#x167;" horiz-adv-x="815" 
d="M770 18q-53 -22 -92 -30t-84 -8q-92 0 -154.5 29.5t-100.5 83.5t-54.5 131t-16.5 169v129h-231v137h231v250h-231v150h231v262l183 16v-278h276v-150h-276v-250h276v-137h-276v-106q0 -49 4 -99.5t19 -90.5t46 -64.5t84 -24.5q64 0 131 23z" />
    <glyph glyph-name="Utilde" unicode="&#x168;" horiz-adv-x="1452" 
d="M1272 553q0 -133 -36 -238.5t-105.5 -180.5t-171 -114.5t-232.5 -39.5q-133 0 -234.5 39.5t-171 114.5t-105.5 180.5t-36 238.5v895h193v-889q0 -190 81 -297.5t273 -107.5q188 0 270 106.5t82 298.5v889h193v-895zM1075 1825q2 -10 2 -20.5v-20.5q0 -96 -56 -152.5
t-155 -56.5q-49 0 -91 17.5t-70 39.5q-27 21 -51.5 36t-59.5 15q-74 0 -74 -88l-145 -12q-2 10 -2 20.5v20.5q0 96 56 152.5t155 56.5q49 0 91 -17.5t70 -39.5q27 -21 51.5 -36.5t59.5 -15.5q74 0 74 88z" />
    <glyph glyph-name="utilde" unicode="&#x169;" horiz-adv-x="1128" 
d="M805 0q-12 51 -17 102q-165 -122 -331 -122q-86 0 -148.5 32.5t-101.5 89t-57.5 132t-18.5 161.5v660l182 16v-668q0 -55 9.5 -104t31 -85t59.5 -56.5t93 -20.5q61 0 134 28t144 75v815l183 16v-819q0 -59 3 -126t17 -126h-182zM901 1511q2 -10 3 -24t1 -31
q0 -92 -58.5 -151.5t-150.5 -59.5q-59 0 -100 22.5t-72 49.5q-24 22 -46.5 37.5t-49.5 15.5q-39 0 -58.5 -31.5t-19.5 -72.5l-145 -13q-2 11 -3 25t-1 31q0 92 58 151.5t151 59.5q59 0 100 -22.5t72 -49.5q24 -23 46.5 -38t49.5 -15q39 0 58.5 31.5t19.5 72.5z" />
    <glyph glyph-name="Umacron" unicode="&#x16a;" horiz-adv-x="1452" 
d="M1272 553q0 -133 -36 -238.5t-105.5 -180.5t-171 -114.5t-232.5 -39.5q-133 0 -234.5 39.5t-171 114.5t-105.5 180.5t-36 238.5v895h193v-889q0 -190 81 -297.5t273 -107.5q188 0 270 106.5t82 298.5v889h193v-895zM1057 1636h-664v150h664v-150z" />
    <glyph glyph-name="umacron" unicode="&#x16b;" horiz-adv-x="1128" 
d="M805 0q-12 51 -17 102q-165 -122 -331 -122q-86 0 -148.5 32.5t-101.5 89t-57.5 132t-18.5 161.5v660l182 16v-668q0 -55 9.5 -104t31 -85t59.5 -56.5t93 -20.5q61 0 134 28t144 75v815l183 16v-819q0 -59 3 -126t17 -126h-182zM885 1309h-664v149h664v-149z" />
    <glyph glyph-name="Ubreve" unicode="&#x16c;" horiz-adv-x="1452" 
d="M1272 553q0 -133 -36 -238.5t-105.5 -180.5t-171 -114.5t-232.5 -39.5q-133 0 -234.5 39.5t-171 114.5t-105.5 180.5t-36 238.5v895h193v-889q0 -190 81 -297.5t273 -107.5q188 0 270 106.5t82 298.5v889h193v-895zM1026 1827q-12 -121 -95 -188.5t-206 -67.5t-206 67.5
t-95 188.5h147q11 -47 53 -77t101 -30t101 30t53 77h147z" />
    <glyph glyph-name="ubreve" unicode="&#x16d;" horiz-adv-x="1128" 
d="M805 0q-12 51 -17 102q-165 -122 -331 -122q-86 0 -148.5 32.5t-101.5 89t-57.5 132t-18.5 161.5v660l182 16v-668q0 -55 9.5 -104t31 -85t59.5 -56.5t93 -20.5q61 0 134 28t144 75v815l183 16v-819q0 -59 3 -126t17 -126h-182zM854 1524q-6 -60 -28.5 -112t-60.5 -90
t-91 -59.5t-121 -21.5t-121 21.5t-91 59.5t-60.5 90t-28.5 112h147q15 -62 54 -97.5t100 -35.5t100 35.5t54 97.5h147z" />
    <glyph glyph-name="Uring" unicode="&#x16e;" horiz-adv-x="1452" 
d="M1272 553q0 -133 -36 -238.5t-105.5 -180.5t-171 -114.5t-232.5 -39.5q-133 0 -234.5 39.5t-171 114.5t-105.5 180.5t-36 238.5v895h193v-889q0 -190 81 -297.5t273 -107.5q188 0 270 106.5t82 298.5v889h193v-895zM725 1563q57 0 87 31.5t30 78.5t-30 78t-87 31t-87 -31
t-30 -78t30 -78.5t87 -31.5zM973 1673q0 -104 -65.5 -167.5t-182.5 -63.5t-182.5 63.5t-65.5 167.5q0 105 65.5 168.5t182.5 63.5t182.5 -63.5t65.5 -168.5z" />
    <glyph glyph-name="uring" unicode="&#x16f;" horiz-adv-x="1128" 
d="M805 0q-12 51 -17 102q-165 -122 -331 -122q-86 0 -148.5 32.5t-101.5 89t-57.5 132t-18.5 161.5v660l182 16v-668q0 -55 9.5 -104t31 -85t59.5 -56.5t93 -20.5q61 0 134 28t144 75v815l183 16v-819q0 -59 3 -126t17 -126h-182zM553 1317q57 0 87 30.5t30 77.5
q0 48 -30 78.5t-87 30.5t-87 -30.5t-30 -78.5q0 -47 30 -77.5t87 -30.5zM801 1425q0 -104 -65.5 -167.5t-182.5 -63.5t-182.5 63.5t-65.5 167.5q0 105 65.5 168.5t182.5 63.5t182.5 -63.5t65.5 -168.5z" />
    <glyph glyph-name="Uhungarumlaut" unicode="&#x170;" horiz-adv-x="1452" 
d="M1272 553q0 -133 -36 -238.5t-105.5 -180.5t-171 -114.5t-232.5 -39.5q-133 0 -234.5 39.5t-171 114.5t-105.5 180.5t-36 238.5v895h193v-889q0 -190 81 -297.5t273 -107.5q188 0 270 106.5t82 298.5v889h193v-895zM766 1741q-37 -25 -85 -49.5t-98.5 -47t-100.5 -41
t-93 -30.5l-51 121q90 47 167 96t171 115zM1235 1741q-37 -25 -85 -49.5t-98.5 -47t-100.5 -41t-93 -30.5l-51 121q90 47 167 96t171 115z" />
    <glyph glyph-name="uhungarumlaut" unicode="&#x171;" horiz-adv-x="1128" 
d="M805 0q-12 51 -17 102q-165 -122 -331 -122q-86 0 -148.5 32.5t-101.5 89t-57.5 132t-18.5 161.5v660l182 16v-668q0 -55 9.5 -104t31 -85t59.5 -56.5t93 -20.5q61 0 134 28t144 75v815l183 16v-819q0 -59 3 -126t17 -126h-182zM623 1548q-54 -86 -124.5 -177
t-142.5 -169l-104 80q59 92 115.5 183t103.5 188zM989 1542q-57 -84 -131 -174t-149 -166l-101 84q64 88 124.5 181.5t111.5 185.5z" />
    <glyph glyph-name="Uogonek" unicode="&#x172;" horiz-adv-x="1452" 
d="M975 -467q-74 -29 -158 -29q-119 0 -181.5 58.5t-62.5 148.5q0 74 41 144.5t111 124.5q-266 2 -405.5 154.5t-139.5 418.5v895h193v-889q0 -190 81 -297.5t271 -107.5q188 0 271 106.5t83 298.5v889h193v-895q0 -129 -29 -218t-76 -150.5t-107.5 -103.5t-123.5 -81
q-105 -63 -152 -125.5t-47 -120.5q0 -51 33 -75.5t82 -24.5q20 0 46 4t42 12z" />
    <glyph glyph-name="uogonek" unicode="&#x173;" horiz-adv-x="1128" 
d="M1026 -467q-74 -29 -158 -29q-118 0 -180.5 58.5t-62.5 148.5q0 80 49 158t131 131q-12 51 -17 102q-165 -122 -331 -122q-86 0 -148.5 32.5t-101.5 89t-57.5 132t-18.5 161.5v660l182 16v-668q0 -55 9.5 -103t31 -85t58.5 -57.5t92 -20.5q63 0 136 28t144 75v815l183 16
v-819q0 -59 3 -126t17 -126q-82 -47 -140.5 -111.5t-58.5 -134.5q0 -53 33 -76.5t80 -23.5q23 0 48.5 4t41.5 12z" />
    <glyph glyph-name="Wcircumflex" unicode="&#x174;" horiz-adv-x="1948" 
d="M1520 0h-199l-358 1069l-336 -1069h-199l-377 1448h201l289 -1184l331 1059h193l350 -1063l285 1188h196zM1280 1591q-106 37 -179 66t-138 57q-66 -28 -138.5 -57t-179.5 -66l-41 119q103 51 183.5 96t148.5 86h53q68 -41 149 -86t183 -96z" />
    <glyph glyph-name="wcircumflex" unicode="&#x175;" horiz-adv-x="1532" 
d="M1202 0h-207l-235 692l-221 -692h-207l-289 1059h182l213 -860l252 776h152l252 -780l225 864h170zM1036 1202q-24 19 -57 44.5t-69 55t-73.5 60.5t-70.5 59q-33 -28 -71 -59t-73.5 -60.5t-68.5 -55t-57 -44.5l-93 92q52 47 97 89t85 81t77.5 77t76.5 79h54
q75 -82 153 -156.5t182 -169.5z" />
    <glyph glyph-name="Ycircumflex" unicode="&#x176;" horiz-adv-x="1253" 
d="M723 0h-193v535l-507 913h217l387 -737l397 737h207l-508 -913v-535zM944 1591q-106 37 -179 66t-138 57q-66 -28 -138.5 -57t-179.5 -66l-41 119q103 51 183.5 96t148.5 86h53q68 -41 149 -86t183 -96z" />
    <glyph glyph-name="ycircumflex" unicode="&#x177;" horiz-adv-x="1008" 
d="M160 -391q94 104 151.5 191t106.5 184l-402 1075h201l287 -862l299 862h188l-348 -967q-68 -188 -159 -340.5t-199 -263.5zM780 1202q-24 19 -57 44.5t-69 55t-73.5 60.5t-70.5 59q-33 -28 -71 -59t-73.5 -60.5t-68.5 -55t-57 -44.5l-93 92q52 47 97 89t85 81t77.5 77
t76.5 79h54q75 -82 153 -156.5t182 -169.5z" />
    <glyph glyph-name="Ydieresis" unicode="&#x178;" horiz-adv-x="1253" 
d="M723 0h-193v535l-507 913h217l387 -737l397 737h207l-508 -913v-535zM496 1632q-31 -30 -84 -30q-54 0 -84.5 31.5t-30.5 78.5t30.5 78t84.5 31q53 0 83.5 -31t30.5 -78t-30 -80zM926 1632q-31 -30 -84 -30q-54 0 -84.5 31.5t-30.5 78.5t30.5 78t84.5 31q53 0 83.5 -31
t30.5 -78t-30 -80z" />
    <glyph glyph-name="Zacute" unicode="&#x179;" horiz-adv-x="1128" 
d="M1053 0h-985l-13 119l760 1161h-739v168h975l12 -119l-760 -1161h750v-168zM831 1726q-40 -18 -102.5 -39.5t-129.5 -41t-130 -35t-107 -23.5l-43 125q115 41 232 89t215 93z" />
    <glyph glyph-name="zacute" unicode="&#x17a;" horiz-adv-x="944" 
d="M864 0h-794l-13 129l580 776h-541v154h756l12 -129l-579 -776h579v-154zM719 1530q-29 -35 -77 -81t-100.5 -92t-102.5 -87t-85 -68l-94 92q86 86 173 181.5t153 177.5z" />
    <glyph glyph-name="Zdotaccent" unicode="&#x17b;" horiz-adv-x="1128" 
d="M1053 0h-985l-13 119l760 1161h-739v168h975l12 -119l-760 -1161h750v-168zM645 1663q-31 -33 -86 -33t-87 33t-32 82t32 81t87 32t87 -32t32 -81t-33 -82z" />
    <glyph glyph-name="zdotaccent" unicode="&#x17c;" horiz-adv-x="944" 
d="M864 0h-794l-13 129l580 776h-541v154h756l12 -129l-579 -776h579v-154zM567 1343q-30 -32 -86 -32q-55 0 -87 32.5t-32 81.5q0 50 32 81.5t87 31.5q56 0 87.5 -31.5t31.5 -81.5q0 -49 -33 -82z" />
    <glyph glyph-name="Zcaron" unicode="&#x17d;" horiz-adv-x="1128" 
d="M1053 0h-985l-13 119l760 1161h-739v168h975l12 -119l-760 -1161h750v-168zM918 1774q-103 -52 -184 -97t-148 -86h-54q-67 41 -148 86t-183 97l41 118q106 -37 179 -65.5t138 -57.5q66 29 138.5 57.5t179.5 65.5z" />
    <glyph glyph-name="zcaron" unicode="&#x17e;" horiz-adv-x="944" 
d="M864 0h-794l-13 129l580 776h-541v154h756l12 -129l-579 -776h579v-154zM844 1544q-53 -47 -97.5 -89t-84 -81t-77.5 -76.5t-77 -78.5h-53q-39 41 -77 78.5t-78 76.5t-85 81t-96 89l92 92q25 -18 57.5 -43.5t68.5 -55.5t74 -61.5t70 -58.5q33 27 71 58.5t74 61.5
t68.5 55.5t57.5 43.5z" />
    <glyph glyph-name="longs" unicode="&#x17f;" horiz-adv-x="514" 
d="M348 0h-182v1135q0 202 88 308.5t289 106.5q53 0 97 -7t97 -21l-30 -152q-48 12 -83.5 17.5t-70.5 5.5q-74 0 -116 -22.5t-61.5 -64.5t-23.5 -104.5t-4 -142.5v-1059z" />
    <glyph glyph-name="uni1000" unicode="&#x1000;" horiz-adv-x="2257" 
d="M1407 456q76 -33 188 -33q166 0 264.5 101t98.5 271q0 167 -97 272.5t-270 105.5q-129 0 -220 -63.5t-167 -178.5q19 -100 19 -151q0 -173 -75 -297.5t-190 -195.5l-104 118q182 132 182 372q0 184 -100 290t-268 106q-166 0 -267.5 -105t-101.5 -291q0 -240 182 -372
l-104 -118q-110 65 -187 199.5t-77 293.5q0 156 73 278t201.5 187.5t280.5 65.5q290 0 460 -217q80 107 198 162t263 55q170 0 294 -66t192.5 -183.5t68.5 -262.5q0 -153 -66.5 -270t-185 -179.5t-268.5 -62.5q-176 0 -283 48zM1580 1422zM1145 305zM1628 260z" />
    <glyph glyph-name="uni1001" unicode="&#x1001;" horiz-adv-x="1266" 
d="M977 803q0 167 -99 269.5t-268 102.5q-118 0 -210.5 -58t-143.5 -172l-143 66q54 138 188 219t307 81q170 0 295 -67t192.5 -183.5t67.5 -259.5q0 -145 -67.5 -262.5t-193 -184.5t-294.5 -67q-186 0 -326 94.5t-186 259.5q136 88 247 124t226 36q230 0 392 -125
q16 62 16 127zM571 666q-133 0 -280 -77q53 -83 135 -124.5t184 -41.5q190 0 291 127q-132 116 -330 116zM608 1422zM637 305zM636 260z" />
    <glyph glyph-name="uni1002" unicode="&#x1002;" horiz-adv-x="1335" 
d="M668 1175q-163 0 -266 -105.5t-103 -292.5q0 -240 182 -372l-104 -118q-110 65 -187 199.5t-77 293.5q0 156 73 278t201.5 187.5t280.5 65.5q153 0 282 -66.5t201 -188t72 -276.5q0 -153 -76 -289.5t-189 -203.5l-104 118q182 132 182 372q0 186 -102 292t-266 106z
M670 1422zM672 305zM675 260z" />
    <glyph glyph-name="uni1003" unicode="&#x1003;" horiz-adv-x="2257" 
d="M1341 1263q58 27 124.5 37.5t158.5 10.5q148 0 267 -62t186 -179t67 -271q0 -144 -68 -261t-192.5 -184t-294.5 -67q-145 0 -264 55t-197 162q-94 -122 -213.5 -169.5t-261.5 -47.5q-238 0 -381 107.5t-143 279.5q0 67 18.5 117t47 88t63.5 66.5t70 56.5q39 29 60.5 53
t21.5 56q0 26 -20.5 45t-55.5 19q-31 0 -59.5 -15.5t-63.5 -52.5l-102 94q61 59 111 84.5t128 25.5q74 0 125.5 -26t82 -73t30.5 -93q0 -42 -10.5 -74t-30.5 -56.5t-90 -84.5q-65 -52 -88.5 -81t-38.5 -65.5t-15 -83.5q0 -109 90.5 -180t264.5 -71q104 0 189 48.5t132 138.5
t47 211q0 240 -182 372l104 118q125 -80 195 -214.5t70 -279.5q0 -48 -7.5 -88.5t-11.5 -62.5q70 -116 171.5 -179.5t215.5 -63.5q110 0 194.5 47.5t128.5 135.5t44 197q0 170 -98 271t-265 101q-112 0 -188 -33zM1610 1422zM1128 305zM1631 260z" />
    <glyph glyph-name="uni1004" unicode="&#x1004;" horiz-adv-x="1266" 
d="M299 803q0 -107 47 -195t132 -136.5t188 -48.5q118 0 210.5 58t143.5 172l143 -66q-54 -136 -187 -218t-308 -82q-172 0 -296.5 65.5t-191.5 182.5t-67 266q0 144 67.5 260.5t192.5 183t295 66.5q174 0 307.5 -82t187.5 -218l-143 -66q-51 114 -143.5 172t-210.5 58
q-169 0 -268 -102.5t-99 -269.5zM670 1422zM684 305zM683 260z" />
    <glyph glyph-name="uni1005" unicode="&#x1005;" horiz-adv-x="1335" 
d="M668 1311q169 0 292.5 -66t193 -184t69.5 -262q0 -140 -68 -258t-194.5 -186t-298.5 -68q-165 0 -289 65t-192 182.5t-68 264.5q0 145 68.5 262.5t192.5 183.5t294 66zM670 1175q-85 0 -160 -28q74 -68 121 -153.5t47 -199.5q0 -196 -160 -347q66 -24 150 -24
q111 0 195.5 48t128.5 132.5t44 191.5q0 171 -98 275.5t-268 104.5zM279 795q0 -168 114 -274q119 109 119 273q0 163 -123 278q-53 -51 -81.5 -122.5t-28.5 -154.5zM670 1422zM688 305zM685 260z" />
    <glyph glyph-name="uni1006" unicode="&#x1006;" horiz-adv-x="2198" 
d="M975 803q0 167 -99 269.5t-268 102.5q-119 0 -211 -58t-143 -172l-143 66q54 138 188 219t307 81q140 0 256 -48.5t191 -144.5q90 96 200.5 144.5t276.5 48.5q169 0 292.5 -66t193 -184t69.5 -262q0 -140 -68 -258t-194.5 -186t-298.5 -68q-158 0 -277 52.5t-190 146.5
q-87 -104 -199 -151.5t-252 -47.5q-186 0 -326 94.5t-186 259.5q103 68 222.5 115t269.5 47q219 0 381 -85q8 40 8 85zM592 674q-159 0 -303 -87q109 -164 319 -164q220 0 316 166q-175 85 -332 85zM1532 1175q-135 0 -231.5 -46t-167.5 -157q28 -87 28 -177q0 -35 -7 -83
t-19 -79q51 -96 152.5 -153t232.5 -57q174 0 276 101t102 271q0 180 -98 280t-268 100zM1529 1422zM1073 305zM1528 260z" />
    <glyph glyph-name="uni1007" unicode="&#x1007;" horiz-adv-x="1401" 
d="M684 1002q0 110 92 168q-47 5 -90 5q-175 0 -281 -101t-106 -271q0 -175 98 -277.5t269 -102.5q147 0 252 90l108 -110q-150 -116 -358 -116q-170 0 -295.5 67.5t-192.5 185.5t-67 261q0 141 71.5 260.5t200.5 184.5t303 65q158 0 259.5 -32t160.5 -79t82.5 -101.5
t23.5 -98.5l-4 -90l-4 -69q0 -59 35 -78.5t117 -19.5v-134h-37q-123 0 -188.5 54.5t-65.5 142.5q-50 -24 -123 -24q-111 0 -185.5 62t-74.5 158zM829 1003q0 -42 33 -71t80 -29t80 29t33 71q0 43 -33 72.5t-80 29.5t-80 -29.5t-33 -72.5zM608 1422zM676 305zM675 260z" />
    <glyph glyph-name="uni1008" unicode="&#x1008;" horiz-adv-x="1780" 
d="M1206 -555q-383 0 -383 477v381q-73 -16 -161 -16q-165 0 -289 65t-192 182.5t-68 264.5q0 145 68.5 262.5t192.5 183.5t294 66q169 0 292.5 -66t193 -184t69.5 -262q0 -114 -51.5 -227.5t-165.5 -190.5v-476q0 -326 202 -326q201 0 201 326v1386h182v-1371
q0 -475 -385 -475zM670 1175q-85 0 -160 -28q74 -68 121 -153.5t47 -199.5q0 -196 -160 -347q66 -24 150 -24q111 0 195.5 48t128.5 132.5t44 191.5q0 171 -98 275.5t-268 104.5zM279 795q0 -168 114 -274q119 109 119 273q0 163 -123 278q-53 -51 -81.5 -122.5
t-28.5 -154.5zM649 1422zM213 260zM405 260z" />
    <glyph glyph-name="uni1009" unicode="&#x1009;" horiz-adv-x="1354" 
d="M1743 -421q229 0 229 230v30h182q0 -394 -419 -394h-1129q-420 0 -420 394v748l144 66q51 -114 143 -172t211 -58q171 0 269 103t98 277q0 108 -45.5 194t-129.5 132t-192 46q-119 0 -211 -58t-143 -172l-144 66q57 139 189.5 219.5t306.5 80.5q169 0 294.5 -67
t193 -182.5t67.5 -260.5t-67.5 -262t-193 -184.5t-294.5 -67.5q-178 0 -313 85v-563q0 -230 229 -230h1145zM670 1422zM1210 305zM1649 260z" />
    <glyph glyph-name="uni100B" unicode="&#x100b;" horiz-adv-x="1364" 
d="M186 305l37 -22l53 -35q191 -109 404 -109q171 0 317 76v158q-133 -86 -315 -86q-169 0 -294.5 67.5t-193 184.5t-67.5 262q0 144 67.5 260t192.5 183t295 67q174 0 306.5 -80.5t189.5 -219.5l-144 -66q-51 114 -143 172t-211 58q-110 0 -194.5 -47t-128.5 -132.5
t-44 -192.5q0 -177 99.5 -278.5t267.5 -101.5q119 0 211 58t143 172l144 -66v-435q-101 -67 -231 -108t-267 -41q-170 0 -334 59v-158q141 -49 334 -49q251 0 498 116v-401h256v-125h-437v315q-150 -41 -317 -41q-264 0 -494 97v489zM670 1422zM350 -307zM610 -307z" />
    <glyph glyph-name="uni100C" unicode="&#x100c;" horiz-adv-x="1350" 
d="M754 -371q229 0 229 230v514q-133 -86 -315 -86q-170 0 -295.5 67.5t-192.5 185.5t-67 261q0 144 67.5 260.5t192.5 183t295 66.5q174 0 307.5 -82t187.5 -218l-143 -66q-51 114 -143.5 172t-210.5 58q-169 0 -268 -102.5t-99 -269.5q0 -175 98 -277.5t269 -102.5
q118 0 210.5 58t143.5 172l143 -66v-707q-6 -385 -420 -385h-198q-197 0 -304.5 70.5t-107.5 209.5q0 117 87.5 192t223.5 75q105 0 170.5 -31.5t124.5 -81.5l-112 -96q-37 32 -75 52t-97 20q-49 0 -93.5 -31t-44.5 -101q0 -71 61.5 -107.5t162.5 -36.5h213zM670 1422z
M1764 260zM1764 242z" />
    <glyph glyph-name="uni100D" unicode="&#x100d;" horiz-adv-x="1364" 
d="M999 54q-149 -51 -313 -51q-137 0 -267 41t-231 108v435l144 66q51 -114 143 -172t211 -58q169 0 268 102t99 278q0 168 -99.5 270t-267.5 102q-119 0 -211 -58t-143 -172l-144 66q57 139 189.5 219.5t306.5 80.5q169 0 294.5 -67t193 -182.5t67.5 -260.5t-67.5 -262
t-193 -184.5t-294.5 -67.5q-182 0 -315 86v-158q146 -76 317 -76q200 0 389 101l105 65v-735h256v-125h-437v609zM670 1422zM370 -37zM630 -37z" />
    <glyph glyph-name="uni100E" unicode="&#x100e;" horiz-adv-x="1335" 
d="M662 287q-244 0 -388.5 107t-144.5 280q0 67 18.5 117t47 88t63.5 66.5t70 56.5q39 29 60.5 53t21.5 56q0 26 -20.5 45t-55.5 19q-31 0 -59.5 -15.5t-63.5 -52.5l-102 94q61 59 111 84.5t128 25.5q74 0 125.5 -26t82 -73t30.5 -93q0 -42 -10.5 -74t-30.5 -56.5t-90 -84.5
q-65 -52 -88.5 -81t-38.5 -65.5t-15 -83.5q0 -109 90.5 -180t264.5 -71q167 0 267.5 108t100.5 290q0 240 -182 372l104 118q125 -80 195 -214.5t70 -279.5q0 -153 -74.5 -275t-203 -188.5t-283.5 -66.5zM649 1422zM698 305zM705 260z" />
    <glyph glyph-name="uni100F" unicode="&#x100f;" horiz-adv-x="2570" 
d="M1284 287q-151 0 -235 64t-84 177q0 50 20 124q21 77 21 138q0 177 -95.5 282t-255.5 105q-158 0 -257 -103t-99 -279q0 -169 101.5 -270.5t261.5 -101.5q71 0 112 11l43 -129q-67 -18 -182 -18q-149 0 -270.5 69.5t-186.5 185.5t-65 259q0 140 66.5 258.5t189 185
t288.5 66.5q219 0 363 -114q49 48 107.5 81t158.5 33q92 0 154.5 -33t109.5 -81q144 114 363 114q167 0 289 -66.5t189 -185t67 -258.5q0 -142 -65.5 -259t-187 -186t-270.5 -69q-117 0 -184 18l41 129q46 -11 115 -11q105 0 188 45t128.5 129.5t45.5 197.5q0 172 -95 277
t-253 105q-165 0 -260.5 -105t-95.5 -282q0 -65 20 -138q21 -78 21 -124q0 -121 -89.5 -181t-232.5 -60zM1378 810q0 159 84 280q-39 39 -80 63t-94 24q-67 0 -106 -26t-74 -61q86 -124 86 -278q0 -81 -21.5 -146.5t-21.5 -122.5q0 -48 34 -83t101 -35q68 0 100.5 35
t32.5 83q0 59 -20.5 122.5t-20.5 144.5zM1904 1422zM1274 305zM1918 260zM1286 1422zM2708 260z" />
    <glyph glyph-name="uni1010" unicode="&#x1010;" horiz-adv-x="2257" 
d="M670 1175q-171 0 -271 -103t-100 -277q0 -172 104 -272t265 -100q111 0 195.5 48t128.5 132.5t44 191.5q0 171 -98 275.5t-268 104.5zM668 1311q290 0 460 -217q80 107 198 162t263 55q170 0 294 -66t192.5 -183.5t68.5 -262.5q0 -153 -66.5 -270t-185 -179.5
t-268.5 -62.5q-176 0 -283 48l66 121q76 -33 188 -33q166 0 264.5 101t98.5 271q0 167 -97 272.5t-270 105.5q-133 0 -223 -64.5t-164 -177.5q19 -100 19 -139q0 -141 -69.5 -257t-195.5 -182t-296 -66q-165 0 -289 65t-192 182.5t-68 264.5q0 145 68.5 262.5t192.5 183.5
t294 66zM1580 1422zM1145 305zM1612 260z" />
    <glyph glyph-name="uni1011" unicode="&#x1011;" horiz-adv-x="2259" 
d="M1591 1311q170 0 294 -66t192.5 -183.5t68.5 -262.5q0 -147 -66 -262.5t-193 -182.5t-306 -67q-307 0 -463 199q-89 -106 -202 -152.5t-254 -46.5q-165 0 -289 65t-192 182.5t-68 264.5q0 145 68.5 262.5t192.5 183.5t294 66q138 0 254.5 -48t191.5 -145
q90 96 200.5 144.5t276.5 48.5zM1593 1175q-95 0 -169 -22.5t-126.5 -63t-103.5 -117.5q29 -90 29 -177q0 -35 -7.5 -83t-19.5 -79q56 -100 156.5 -155t228.5 -55q117 0 203 46.5t131 131.5t45 194q0 180 -98 280t-269 100zM670 1175q-171 0 -271 -103t-100 -277
q0 -172 104 -272t265 -100q111 0 195.5 48t128.5 132.5t44 191.5q0 171 -98 275.5t-268 104.5zM1580 1422zM1145 305zM1579 260z" />
    <glyph glyph-name="uni1012" unicode="&#x1012;" horiz-adv-x="1212" 
d="M631 1179q-138 0 -216.5 -36t-78.5 -94q0 -32 26 -58l-141 -70q-24 29 -39.5 60t-15.5 75q0 74 56 131.5t162 90.5t247 33q235 0 353 -68t118 -194q0 -90 -56.5 -140t-148.5 -75v-9q127 -34 185.5 -96t58.5 -155q0 -138 -136.5 -212.5t-390.5 -74.5q-194 0 -327 71.5
t-187 204.5l144 66q47 -110 146 -160t224 -50q182 0 264.5 47t82.5 129q0 62 -60.5 110t-187.5 48h-25v132h10q94 0 163 41t69 111q0 142 -299 142zM629 1422zM612 305zM612 260z" />
    <glyph glyph-name="uni1013" unicode="&#x1013;" horiz-adv-x="1335" 
d="M668 1311q169 0 292.5 -66t193 -184t69.5 -262q0 -140 -68 -258t-194.5 -186t-298.5 -68q-165 0 -289 65t-192 182.5t-68 264.5q0 145 68.5 262.5t192.5 183.5t294 66zM670 1175q-171 0 -271 -103t-100 -277q0 -59 10 -99q164 125 363 125q191 0 354 -122q10 60 10 96
q0 171 -98 275.5t-268 104.5zM668 423q202 0 303 148q-137 119 -299 119q-171 0 -305 -123q101 -144 301 -144zM670 1422zM682 305zM685 260z" />
    <glyph glyph-name="uni1014" unicode="&#x1014;" horiz-adv-x="1167" 
d="M547 287h-70q-192 0 -299.5 67t-107.5 194q0 113 88 182t221 69q157 0 247.5 -92.5t100.5 -283.5q195 17 195 160q0 58 -56.5 100t-203.5 94q-158 49 -221.5 85t-96.5 83.5t-33 115.5q0 106 94.5 178t229.5 72q80 0 136 -11.5t99 -31t76 -45.5t64 -51l-107 -104l-54 43
q-45 35 -93.5 51.5t-112.5 16.5q-67 0 -113.5 -31.5t-46.5 -79.5q0 -37 24 -62t84.5 -51t184.5 -62q186 -64 253 -131.5t67 -174.5q0 -133 -98.5 -208.5t-268.5 -87.5v-846h-182v842zM229 546q0 -60 66.5 -92.5t173.5 -32.5h78v2q0 127 -52.5 183t-129.5 56q-54 0 -95 -27.5
t-41 -88.5zM608 1422zM1049 260z" />
    <glyph glyph-name="uni1015" unicode="&#x1015;" horiz-adv-x="1335" 
d="M668 423q167 0 267.5 108t100.5 290q0 240 -182 372l104 118q125 -80 195 -214.5t70 -279.5q0 -155 -73 -277t-200.5 -187.5t-281.5 -65.5q-155 0 -282 65t-200 188t-73 277q0 153 71 285t193 209l104 -118q-182 -132 -182 -372q0 -183 101.5 -290.5t267.5 -107.5z
M670 1422zM688 305zM685 260z" />
    <glyph glyph-name="uni1016" unicode="&#x1016;" horiz-adv-x="1335" 
d="M668 423q80 0 149 26q-160 162 -160 385q0 312 277 475q138 -81 213.5 -211.5t75.5 -280.5q0 -155 -73 -277t-200.5 -187.5t-281.5 -65.5q-155 0 -282 65t-200 188t-73 277q0 153 71 285t193 209l104 -118q-182 -132 -182 -372q0 -183 101.5 -290.5t267.5 -107.5z
M821 834q0 -89 30 -170t89 -139q117 113 117 296q0 168 -121 300q-62 -58 -88.5 -124.5t-26.5 -162.5zM649 1422zM682 305zM685 260z" />
    <glyph glyph-name="uni1017" unicode="&#x1017;" horiz-adv-x="1335" 
d="M494 1214q-15 -39 -15 -76q0 -71 57 -120.5t134 -49.5q44 0 87.5 21t71 61t27.5 88q0 37 -14 76l116 97q125 -80 195 -214.5t70 -279.5q0 -155 -73 -277t-200.5 -187.5t-281.5 -65.5q-155 0 -282 65t-200 188t-73 277q0 153 71 285t193 209zM354 1042q-28 -49 -41.5 -100
t-13.5 -121q0 -183 101.5 -290.5t267.5 -107.5q167 0 267.5 108t100.5 290q0 128 -55 221q-73 -210 -315 -210q-123 0 -203 57.5t-109 152.5zM670 1422zM682 305zM682 260z" />
    <glyph glyph-name="uni1018" unicode="&#x1018;" horiz-adv-x="2187" 
d="M1135 931q18 -94 18 -136q0 -138 -67.5 -254.5t-192.5 -185t-295 -68.5q-174 0 -306.5 80.5t-189.5 219.5l144 66q51 -114 143 -172t211 -58q169 0 268 102t99 278q0 168 -99.5 270t-267.5 102q-119 0 -211 -58t-143 -172l-144 66q57 139 189.5 219.5t306.5 80.5
q291 0 461 -217q80 107 197.5 162t263.5 55q169 0 292.5 -66t193 -184t69.5 -262q0 -153 -66 -269.5t-186 -179.5t-269 -63q-177 0 -282 48l65 121q76 -33 189 -33q167 0 264.5 101.5t97.5 270.5q0 167 -97 272.5t-269 105.5q-144 0 -235 -62t-152 -180zM1519 1422z
M1118 305zM1562 260z" />
    <glyph glyph-name="uni1019" unicode="&#x1019;" horiz-adv-x="1335" 
d="M672 821q192 0 352 -120q12 56 12 120q0 240 -182 372l104 118q125 -80 195 -214.5t70 -279.5q0 -155 -73 -277t-200.5 -187.5t-281.5 -65.5q-155 0 -282 65t-200 188t-73 277q0 153 71 285t193 209l104 -118q-182 -132 -182 -372q0 -66 12 -124q159 124 361 124z
M668 423q98 0 175 38t126 111q-133 118 -297 118q-84 0 -162 -32.5t-141 -88.5q100 -146 299 -146zM670 1422zM682 305zM685 260z" />
    <glyph glyph-name="uni101A" unicode="&#x101a;" horiz-adv-x="2257" 
d="M1341 1263q58 27 124.5 37.5t158.5 10.5q148 0 267 -62t186 -179t67 -271q0 -144 -68 -261t-192.5 -184t-294.5 -67q-145 0 -263 55t-198 162q-168 -217 -460 -217q-155 0 -282 65t-200 188t-73 277q0 153 71 285t193 209l104 -118q-182 -132 -182 -372q0 -182 100 -289
t269 -107q171 0 269.5 108t98.5 288q0 240 -182 372l104 118q125 -80 195 -214.5t70 -279.5q0 -48 -7.5 -88.5t-11.5 -62.5q78 -110 168 -175.5t219 -65.5q171 0 269 104.5t98 273.5q0 170 -98 271t-265 101q-112 0 -188 -33zM1610 1422zM1106 305zM1598 260z" />
    <glyph glyph-name="uni101B" unicode="&#x101b;" horiz-adv-x="1411" 
d="M1042 795q0 169 -100 274.5t-272 105.5q-142 0 -232 -69t-123 -182q269 -22 419.5 -178.5t150.5 -424.5q-114 -34 -223 -34q-165 0 -289 65t-192 182.5t-68 264.5q0 145 68.5 262.5t192.5 183.5t294 66q169 0 292.5 -66t193 -184t69.5 -262v-1229h256v-125h-437v1350z
M715 425q-8 162 -124 258t-292 111q0 -173 102 -272t267 -99zM649 1422zM370 260zM630 260z" />
    <glyph glyph-name="uni101C" unicode="&#x101c;" horiz-adv-x="2300" 
d="M657 1173q-164 0 -261 -103.5t-97 -274.5q0 -170 98 -271t265 -101q110 0 188 33l65 -121q-105 -48 -282 -48q-149 0 -268 62.5t-185.5 179.5t-66.5 270q0 145 68.5 262.5t192.5 183.5t294 66q217 0 355 -122t210 -355q71 -222 168.5 -315.5t253.5 -93.5q153 0 249.5 105
t96.5 273q0 170 -98 271t-265 101q-112 0 -188 -33l-66 121q58 27 124.5 37.5t158.5 10.5q148 0 267 -62t186 -179t67 -271q0 -142 -67 -259.5t-191 -185t-280 -67.5q-228 0 -363 117t-223 376q-74 216 -172 304.5t-234 88.5zM1661 1422zM1126 305zM1649 260z" />
    <glyph glyph-name="uni101D" unicode="&#x101d;" horiz-adv-x="1335" 
d="M670 1175q-171 0 -271 -103t-100 -277q0 -172 104 -272t265 -100q111 0 195.5 48t128.5 132.5t44 191.5q0 171 -98 275.5t-268 104.5zM668 1311q169 0 292.5 -66t193 -184t69.5 -262q0 -140 -68 -258t-194.5 -186t-298.5 -68q-165 0 -289 65t-192 182.5t-68 264.5
q0 145 68.5 262.5t192.5 183.5t294 66zM670 1422zM682 305zM685 260z" />
    <glyph glyph-name="uni101E" unicode="&#x101e;" horiz-adv-x="2187" 
d="M1153 808q0 -43 -18 -142q67 -105 158 -173t229 -68q170 0 268 104t98 274q0 169 -97.5 270.5t-264.5 101.5q-113 0 -189 -33l-65 121q57 27 123.5 37.5t158.5 10.5q150 0 269 -63t185.5 -179t66.5 -270q0 -143 -68.5 -261t-194 -184.5t-292.5 -66.5q-146 0 -263.5 55
t-197.5 162q-168 -217 -461 -217q-174 0 -306.5 80.5t-189.5 219.5l144 66q51 -114 143 -172t211 -58q108 0 191.5 48.5t129.5 137.5t46 194q0 168 -99.5 270t-267.5 102q-119 0 -211 -58t-143 -172l-144 66q57 139 189.5 219.5t306.5 80.5q170 0 295 -66t192.5 -180
t67.5 -257zM1549 1422zM1114 305zM1526 260z" />
    <glyph glyph-name="uni101F" unicode="&#x101f;" horiz-adv-x="2257" 
d="M1223 795q0 -135 -71.5 -254t-197.5 -186.5t-286 -67.5q-155 0 -282 65t-200 188t-73 277q0 153 71 285t193 209l104 -118q-182 -132 -182 -372q0 -183 101.5 -290.5t267.5 -107.5q167 0 267.5 108t100.5 290q0 240 -182 372l104 118q121 -75 185 -197q76 95 193.5 146
t252.5 51q170 0 294 -66t192.5 -183.5t68.5 -262.5q0 -153 -66.5 -270t-185 -179.5t-268.5 -62.5q-176 0 -283 48l66 121q76 -33 188 -33q166 0 264.5 101t98.5 271q0 167 -97 272.5t-270 105.5q-125 0 -217 -60t-164 -170q13 -114 13 -148zM1581 1422zM1145 305zM1630 260z
" />
    <glyph glyph-name="uni1020" unicode="&#x1020;" horiz-adv-x="1364" 
d="M768 -423q227 0 227 193v25h183q0 -350 -420 -350h-152q-420 0 -420 350v515q121 -64 239 -99t257 -35q164 0 315 64v133q-133 -86 -315 -86q-169 0 -294.5 68.5t-193 186.5t-67.5 261q0 142 67.5 258t192.5 183t295 67q173 0 308.5 -81t187.5 -219l-144 -66
q-51 116 -143 174t-209 58q-112 0 -196 -47t-128.5 -133.5t-44.5 -191.5q0 -176 98.5 -279t270.5 -103q117 0 209 58t143 172l144 -66v-414q-101 -60 -231 -97t-265 -37q-159 0 -313 50v-320q0 -192 229 -192h170zM670 1422zM540 -37zM730 173z" />
    <glyph glyph-name="uni1021" unicode="&#x1021;" horiz-adv-x="2187" 
d="M631 1179q-138 0 -216.5 -36t-78.5 -94q0 -32 26 -58l-141 -70q-24 29 -39.5 60t-15.5 75q0 74 56 131.5t162 90.5t247 33q166 0 269.5 -34t150.5 -87q158 121 428 121q180 0 314 -67.5t208 -186.5t74 -258q0 -145 -68.5 -263t-192 -183.5t-288.5 -65.5q-109 0 -223 34
q0 178 68.5 309.5t194.5 205.5t302 88q-35 111 -133.5 180t-264.5 69q-115 0 -204 -31.5t-164 -95.5q-2 -161 -205 -212v-9q127 -34 185.5 -96t58.5 -155q0 -138 -136.5 -212.5t-390.5 -74.5q-194 0 -327 71.5t-187 204.5l144 66q47 -110 146 -160t224 -50q182 0 264.5 47
t82.5 129q0 62 -60.5 110t-187.5 48h-25v132h10q94 0 163 41t69 111q0 142 -299 142zM1520 423q164 0 266 99t102 272q-178 -14 -294.5 -111t-120.5 -258l22 -2h25zM1470 1422zM1176 305zM1538 260z" />
    <glyph glyph-name="uni1023" unicode="&#x1023;" horiz-adv-x="2253" 
d="M668 1311q149 0 274 -69t184 -193q68 132 192 197t267 65q154 0 282 -66.5t200.5 -187.5t72.5 -277q0 -150 -73.5 -286.5t-190.5 -206.5l-104 118q182 132 182 372q0 184 -102.5 291t-266.5 107q-180 0 -274 -113t-94 -326v-211h-181v200q0 208 -91 329t-277 121
q-163 0 -266 -105.5t-103 -292.5q0 -240 182 -372l-104 -118q-110 65 -187 199.5t-77 293.5q0 156 73 278t201.5 187.5t280.5 65.5zM1044 -217q0 144 -68.5 227t-197.5 83q-112 0 -184 -69t-72 -198q0 -179 129 -281l-92 -100q-86 56 -143.5 157.5t-57.5 227.5
q0 113 54.5 202t152 137t213.5 48q105 0 200 -44.5t146 -143.5q50 93 145 140.5t208 47.5q116 0 213 -50.5t150.5 -140t53.5 -204.5q0 -138 -73 -252h202v-125h-327l-101 100q136 99 136 273q0 133 -72 204t-182 71q-129 0 -199 -79.5t-70 -232.5v-160h-164v162zM1590 1422z
M2985 304z" />
    <glyph glyph-name="uni1024" unicode="&#x1024;" horiz-adv-x="2750" 
d="M113 -283q0 162 170.5 246t484.5 84q231 0 423.5 -39t334.5 -97l-80 -124q-123 54 -295 88t-383 34q-471 0 -471 -184q0 -146 342 -146h1096q225 0 229 225v951q0 200 -97 309t-276 109q-129 0 -220 -63.5t-167 -178.5q19 -100 19 -151q0 -169 -75 -295.5t-190 -197.5
l-104 118q182 132 182 372q0 184 -100 290t-268 106q-166 0 -267.5 -105t-101.5 -291q0 -240 182 -372l-104 -118q-110 65 -187 199.5t-77 293.5q0 156 73 278t201.5 187.5t280.5 65.5q290 0 460 -217q80 107 198 162t263 55q180 0 303.5 -69.5t187.5 -192.5t64 -287v-932
q-6 -385 -420 -385h-1110q-258 0 -379.5 64t-121.5 208zM2384 718q0 159 -34 279t-94 209t-183 181l-116 83q-98 67 -149 149t-51 188q0 92 52.5 173.5t144.5 128t207 46.5q147 0 247.5 -58t147.5 -163l-139 -66q-35 81 -98.5 122.5t-147.5 41.5q-108 0 -174 -64.5
t-66 -160.5q0 -69 36 -122.5t128 -115.5q262 -178 365.5 -370.5t103.5 -492.5v-1261h-180v1273zM670 1422z" />
    <glyph glyph-name="uni1025" unicode="&#x1025;" horiz-adv-x="1354" 
d="M1051 803q0 108 -45.5 194t-129.5 132t-192 46q-119 0 -211 -58t-143 -172l-144 66q57 139 189.5 219.5t306.5 80.5q169 0 294.5 -67t193 -182.5t67.5 -260.5t-67.5 -262t-193 -184.5t-294.5 -67.5q-178 0 -313 85v-563q0 -230 229 -230h231q103 0 163.5 37t60.5 107
t-44 101t-94 31q-59 0 -97 -20t-75 -52l-112 96q59 50 124.5 81.5t170.5 31.5q136 0 223.5 -75t87.5 -192q0 -139 -107.5 -209.5t-304.5 -70.5h-219q-420 0 -420 394v748l144 66q51 -114 143 -172t211 -58q171 0 269 103t98 277zM670 1422z" />
    <glyph glyph-name="uni1026" unicode="&#x1026;" horiz-adv-x="1354" 
d="M1051 803q0 108 -45.5 194t-129.5 132t-192 46q-119 0 -211 -58t-143 -172l-144 66q57 139 189.5 219.5t306.5 80.5q169 0 294.5 -67t193 -182.5t67.5 -260.5t-67.5 -262t-193 -184.5t-294.5 -67.5q-178 0 -313 85v-563q0 -230 229 -230h231q103 0 163.5 37t60.5 107
t-44 101t-94 31q-59 0 -97 -20t-75 -52l-112 96q59 50 124.5 81.5t170.5 31.5q136 0 223.5 -75t87.5 -192q0 -139 -107.5 -209.5t-304.5 -70.5h-219q-420 0 -420 394v748l144 66q51 -114 143 -172t211 -58q171 0 269 103t98 277zM670 1422zM671 2154q116 0 200 -46
t130.5 -129.5t46.5 -178.5q0 -94 -46.5 -171.5t-133 -122.5t-201.5 -45q-109 0 -192.5 44.5t-130.5 124.5t-47 177q0 94 45 173.5t130 126.5t199 47zM673 2031q-100 0 -156.5 -64.5t-56.5 -162.5l3 -25q90 72 210 72q122 0 211 -70v16q0 98 -56 166t-155 68zM673 1584
q109 0 175 87q-88 61 -175 61q-85 0 -174 -63q63 -85 174 -85zM667 1424zM447 1424zM247 1424z" />
    <glyph glyph-name="uni1027" unicode="&#x1027;" horiz-adv-x="1266" 
d="M1180 1009q-249 -148 -482 -148q-212 0 -370 102q-29 -62 -29 -168q0 -91 29 -160q153 101 370 101q239 0 482 -147q-60 -136 -191 -219t-321 -83q-170 0 -295.5 67.5t-192.5 183t-67 259.5q0 145 66.5 262t192.5 184.5t296 67.5q190 0 321 -82.5t191 -219.5zM666 1175
q-183 0 -269 -98q52 -37 121.5 -61.5t186.5 -24.5q147 0 272 70q-105 114 -311 114zM666 423q206 0 311 114q-125 70 -272 70q-117 0 -186.5 -24.5t-121.5 -61.5q86 -98 269 -98zM649 1422zM668 305zM668 260z" />
    <glyph glyph-name="uni1029" unicode="&#x1029;" horiz-adv-x="2804" 
d="M598 2019q-229 0 -229 -230v-1980q0 -230 229 -230h1597q230 0 230 230v577h182v-547q0 -394 -420 -394h-1581q-420 0 -420 394v1920q0 395 420 395h1581q420 0 420 -395v-44h-182v74q0 230 -230 230h-1597zM1690 808q0 -40 -7.5 -80t-11.5 -62q76 -116 167 -178.5
t220 -62.5q171 0 269 104.5t98 273.5q0 168 -98 270t-265 102q-112 0 -188 -33l-66 121q58 27 124.5 37.5t158.5 10.5q148 0 267 -62t186 -179t67 -271q0 -144 -68 -261t-192.5 -184t-294.5 -67q-145 0 -263 55t-198 162q-168 -217 -460 -217q-174 0 -306.5 80.5
t-189.5 219.5l143 66q52 -114 144 -172t211 -58q108 0 190.5 47.5t129 136.5t46.5 196q0 167 -99 269.5t-267 102.5q-119 0 -211 -58t-144 -172l-143 66q57 139 189.5 219.5t306.5 80.5q170 0 295 -65.5t192.5 -181.5t67.5 -256z" />
    <glyph glyph-name="uni102A" unicode="&#x102a;" horiz-adv-x="5022" 
d="M299 803q0 -74 14 -127q163 125 394 125q110 0 217.5 -34t255.5 -126q-46 -165 -186 -259.5t-326 -94.5q-170 0 -295 67t-192.5 185t-67.5 262q0 143 67 259t192 183.5t296 67.5q175 0 308.5 -82t186.5 -218l-143 -66q-51 114 -143.5 172t-210.5 58q-168 0 -267.5 -102
t-99.5 -270zM705 666q-199 0 -330 -116q102 -127 291 -127q100 0 182 41.5t137 124.5q-145 77 -280 77zM1868 2019q-229 0 -229 -230v-1980q0 -230 229 -230h1597q230 0 230 230v577h182v-547q0 -394 -420 -394h-1581q-420 0 -420 394v1920q0 395 420 395h1581
q420 0 420 -395v-44h-182v74q0 230 -230 230h-1597zM2960 808q0 -40 -7.5 -80t-11.5 -62q76 -116 167 -178.5t220 -62.5q171 0 269 104.5t98 273.5q0 168 -98 270t-265 102q-112 0 -188 -33l-66 121q58 27 124.5 37.5t158.5 10.5q148 0 267 -62t186 -179t67 -271
q0 -144 -68 -261t-192.5 -184t-294.5 -67q-145 0 -263 55t-198 162q-168 -217 -460 -217q-174 0 -306.5 80.5t-189.5 219.5l143 66q52 -114 144 -172t211 -58q108 0 190.5 47.5t129 136.5t46.5 196q0 167 -99 269.5t-267 102.5q-119 0 -211 -58t-144 -172l-143 66
q57 139 189.5 219.5t306.5 80.5q170 0 295 -65.5t192.5 -181.5t67.5 -256zM4911 803q0 -147 -68 -265.5t-189 -184.5t-266 -66q-177 0 -282 48l65 121q76 -33 189 -33q168 0 265 103.5t97 278.5q0 106 -50.5 192.5t-143.5 133t-209 46.5q-246 0 -461 -221l-106 101
q112 118 246 186t319 68q177 0 310.5 -67.5t208.5 -187.5t75 -253zM4350 1422zM4431 305zM4431 260zM4563 1422zM4173 1422zM4375 1504q-84 44 -131 124t-47 177q0 94 45 173.5t130 126.5t199 47q116 0 200 -46q73 -40 118 -109l-128 -89q-13 28 -33 53q-56 68 -155 68
q-100 0 -156.5 -64.5t-56.5 -162.5q0 -94 58 -157q40 -44 100 -57l-39 -121q-56 11 -104 37z" />
    <glyph glyph-name="uni102B" unicode="&#x102b;" horiz-adv-x="547" 
d="M186 305v1437q0 132 -60 210t-185 78q-111 0 -178.5 -68.5t-67.5 -205.5v-30h-174v26q0 184 114 293t306 109q198 0 308.5 -114.5t110.5 -322.5v-1412h-174zM343 2112zM259 305zM259 260z" />
    <glyph glyph-name="uni102C" unicode="&#x102c;" horiz-adv-x="993" 
d="M883 803q0 -147 -68 -265.5t-189 -184.5t-266 -66q-177 0 -282 48l65 121q76 -33 189 -33q168 0 265 103.5t97 278.5q0 106 -50.5 192.5t-143.5 133t-209 46.5q-246 0 -461 -221l-106 101q112 118 246 186t319 68q177 0 310.5 -67.5t208.5 -187.5t75 -253zM322 1422z
M403 305zM403 260z" />
    <glyph glyph-name="uni102D" unicode="&#x102d;" 
d="M-621 2029q-100 0 -156.5 -64.5t-56.5 -162.5q0 -94 57.5 -157t155.5 -63q94 0 152.5 60.5t58.5 152.5q0 98 -56 166t-155 68zM-623 2152q116 0 200 -46t130.5 -129.5t46.5 -178.5q0 -94 -46.5 -171.5t-133 -122.5t-201.5 -45q-109 0 -192.5 44.5t-130.5 124.5t-47 177
q0 94 45 173.5t130 126.5t199 47zM-627 1422zM-987 1422zM-197 1422zM-847 1422z" />
    <glyph glyph-name="uni102E" unicode="&#x102e;" 
d="M-623 2152q116 0 200 -46t130.5 -129.5t46.5 -178.5q0 -94 -46.5 -171.5t-133 -122.5t-201.5 -45q-109 0 -192.5 44.5t-130.5 124.5t-47 177q0 94 45 173.5t130 126.5t199 47zM-621 2029q-100 0 -156.5 -64.5t-56.5 -162.5l3 -25q90 72 210 72q122 0 211 -70v16
q0 98 -56 166t-155 68zM-621 1582q109 0 175 87q-88 61 -175 61q-85 0 -174 -63q63 -85 174 -85zM-627 1422zM-847 1422zM-1047 1422z" />
    <glyph glyph-name="uni102F" unicode="&#x102f;" 
d="M-724 215h183v-645h256v-125h-439v770zM-664 260z" />
    <glyph glyph-name="uni1030" unicode="&#x1030;" 
d="M-102 -555h-436v770h180v-645h256v-125zM-838 215h181v-770h-181v770zM-659 260zM-836 260z" />
    <glyph glyph-name="uni1031" unicode="&#x1031;" horiz-adv-x="1266" 
d="M299 803q0 -74 14 -127q163 125 394 125q110 0 217.5 -34t255.5 -126q-46 -165 -186 -259.5t-326 -94.5q-170 0 -295 67t-192.5 185t-67.5 262q0 143 67 259t192 183.5t296 67.5q175 0 308.5 -82t186.5 -218l-143 -66q-51 114 -143.5 172t-210.5 58q-168 0 -267.5 -102
t-99.5 -270zM705 666q-199 0 -330 -116q102 -127 291 -127q100 0 182 41.5t137 124.5q-145 77 -280 77z" />
    <glyph glyph-name="uni1032" unicode="&#x1032;" 
d="M-707 1887l405 -359l-100 -103l-408 360zM-627 1386z" />
    <glyph glyph-name="uni1033" unicode="&#x1033;" horiz-adv-x="534" 
d="M604 -555h-438v1828h180v-1703h258v-125z" />
    <glyph glyph-name="uni1034" unicode="&#x1034;" horiz-adv-x="944" 
d="M944 -555h-439v1850h181v-1725h258v-125zM166 1295h180v-1850h-180v1850z" />
    <glyph glyph-name="uni1036" unicode="&#x1036;" 
d="M-436 1659q0 -93 -64.5 -145t-163.5 -52q-100 0 -161.5 51t-61.5 145q0 92 61.5 143.5t161.5 51.5q99 0 163.5 -51.5t64.5 -142.5zM-553 1658q0 46 -30.5 72t-78.5 26q-47 0 -77.5 -26t-30.5 -72t27.5 -71.5t80.5 -25.5q48 0 78.5 25.5t30.5 71.5zM-627 1422z" />
    <glyph glyph-name="uni1037" unicode="&#x1037;" 
d="M-386 -91q0 -94 -64.5 -145.5t-163.5 -51.5q-100 0 -161.5 50.5t-61.5 144.5q0 92 61.5 144t161.5 52q99 0 163.5 -52t64.5 -142zM-503 -93q0 46 -30.5 71.5t-78.5 25.5q-47 0 -77.5 -25.5t-30.5 -71.5q0 -47 27.5 -72.5t80.5 -25.5q48 0 78.5 25.5t30.5 72.5zM-670 260z
" />
    <glyph glyph-name="uni1038" unicode="&#x1038;" horiz-adv-x="709" 
d="M580 482q0 -94 -64.5 -146t-163.5 -52q-100 0 -161.5 51t-61.5 146q0 91 61.5 143t161.5 52q99 0 163.5 -52t64.5 -142zM463 481q0 45 -31 71t-78 26t-77.5 -26t-30.5 -71q0 -47 27.5 -73t80.5 -26q47 0 78 26t31 73zM580 1100q0 -95 -64.5 -146t-163.5 -51
q-100 0 -161.5 50t-61.5 145q0 92 61.5 143.5t161.5 51.5q99 0 163.5 -51.5t64.5 -141.5zM463 1098q0 46 -31 71.5t-78 25.5t-77.5 -25.5t-30.5 -71.5q0 -47 27.5 -72.5t80.5 -25.5q47 0 78 25.5t31 72.5z" />
    <glyph glyph-name="uni1039" unicode="&#x1039;" 
d="M-819 1504q-84 44 -131 124t-47 177q0 94 45 173.5t130 126.5t199 47q116 0 200 -46q73 -40 118 -109l-128 -89q-13 28 -33 53q-56 68 -155 68q-100 0 -156.5 -64.5t-56.5 -162.5q0 -94 58 -157q40 -44 100 -57l-39 -121q-56 11 -104 37z" />
    <glyph glyph-name="uni103A" unicode="&#x103a;" horiz-adv-x="547" 
d="M360 1291v-1846l-718 230v556h174v-477l370 -122v1659h174zM260 1422z" />
    <glyph glyph-name="uni103B" unicode="&#x103b;" horiz-adv-x="469" 
d="M598 2021q-227 0 -227 -230v-1980q0 -232 227 -232h678q229 0 229 232v522h183v-492q0 -395 -422 -395h-660q-420 0 -420 395v1918q0 395 420 395h660q422 0 422 -395v-54h-183v86q0 109 -56 169.5t-173 60.5h-678z" />
    <glyph glyph-name="uni103C" unicode="&#x103c;" 
d="M-665 89q-128 0 -202 -81.5t-74 -209.5q0 -117 75 -196t201 -79q119 0 194.5 76t75.5 195q0 129 -71.5 212t-198.5 83zM-671 215q134 0 232 -53.5t153 -150t55 -210.5q0 -108 -55.5 -200t-154 -143.5t-235.5 -51.5q-128 0 -226.5 52.5t-152 146.5t-53.5 206
q0 111 52.5 203t151.5 146.5t233 54.5zM-666 260zM-486 260z" />
    <glyph glyph-name="uni103D" unicode="&#x103d;" 
d="M-987 -430h256v645h180v-770h-436v125zM-649 260z" />
    <glyph glyph-name="uni103E" unicode="&#x103e;" 
d="M-819 1504q-84 44 -131 124t-47 177q0 94 45 173.5t130 126.5t199 47q116 0 200 -46q73 -40 118 -109l-128 -89q-13 28 -33 53q-56 68 -155 68q-100 0 -156.5 -64.5t-56.5 -162.5q0 -94 58 -157q40 -44 100 -57l-39 -121q-56 11 -104 37z" />
    <glyph glyph-name="uni103F" unicode="&#x103f;" 
 />
    <glyph glyph-name="uni1040" unicode="&#x1040;" horiz-adv-x="1335" 
d="M670 1175q-171 0 -271 -103t-100 -277q0 -172 104 -272t265 -100q111 0 195.5 48t128.5 132.5t44 191.5q0 171 -98 275.5t-268 104.5zM668 1311q169 0 292.5 -66t193 -184t69.5 -262q0 -140 -68 -258t-194.5 -186t-298.5 -68q-165 0 -289 65t-192 182.5t-68 264.5
q0 145 68.5 262.5t192.5 183.5t294 66zM670 1422zM682 305zM685 260z" />
    <glyph glyph-name="uni1041" unicode="&#x1041;" horiz-adv-x="1266" 
d="M977 803q0 167 -99 269.5t-268 102.5q-118 0 -210.5 -58t-143.5 -172l-143 66q54 138 188 219t307 81q170 0 295 -67t192.5 -183.5t67.5 -259.5q0 -145 -67.5 -262.5t-193 -184.5t-294.5 -67q-174 0 -307.5 81t-187.5 219l143 66q51 -114 143.5 -172t210.5 -58
q171 0 269 102t98 278zM608 1422zM608 264zM608 305z" />
    <glyph glyph-name="uni1042" unicode="&#x1042;" horiz-adv-x="1382" 
d="M1196 1293v-1292q0 -257 -148 -406.5t-405 -149.5q-163 0 -290.5 64t-196 177.5t-68.5 253.5v4h174v-8q0 -158 109.5 -260.5t273.5 -102.5q174 0 275.5 108t101.5 314v1298h174z" />
    <glyph glyph-name="uni1043" unicode="&#x1043;" horiz-adv-x="1266" 
d="M967 803q0 169 -100.5 270.5t-266.5 101.5q-119 0 -211 -58t-143 -172l-144 66q56 139 189 219.5t307 80.5q169 0 295 -67.5t193 -183t67 -259.5q0 -145 -68 -262.5t-193 -184.5t-294 -67q-80 0 -154 25l-4 -2q78 -104 149 -219l388 -646h-199l-676 1142l144 66
q51 -114 143 -172t211 -58q169 0 268 101.5t99 278.5z" />
    <glyph glyph-name="uni1044" unicode="&#x1044;" horiz-adv-x="1266" 
d="M299 803q0 -176 97.5 -278t269.5 -102q118 0 210.5 58t143.5 172l143 -66l-676 -1142h-198l346 578q140 226 190 287l-4 2q-73 -25 -153 -25q-170 0 -295 67t-192.5 185t-67.5 262q0 143 67 259t192 183.5t296 67.5q175 0 308.5 -82t186.5 -218l-143 -66
q-51 114 -143.5 172t-210.5 58q-168 0 -267.5 -102t-99.5 -270z" />
    <glyph glyph-name="uni1045" unicode="&#x1045;" horiz-adv-x="1382" 
d="M113 825q0 144 71.5 255t198.5 171t281 60q244 0 388 -140.5t144 -371.5v-798q0 -257 -148 -406.5t-405 -149.5q-168 0 -294 64.5t-193.5 177.5t-67.5 253v4h174v-8q0 -158 106.5 -260.5t276.5 -102.5q174 0 275.5 108t101.5 314v806q0 174 -94 278t-266 104
q-115 0 -202 -44.5t-134 -124.5q31 26 127 26q116 0 198 -70t82 -180q0 -112 -88 -188t-219 -76q-142 0 -227.5 81.5t-85.5 217.5zM281 782q0 -53 43 -92t102 -39q61 0 104 39t43 92q0 56 -43 94.5t-104 38.5q-59 0 -102 -38.5t-43 -94.5z" />
    <glyph glyph-name="uni1046" unicode="&#x1046;" horiz-adv-x="1475" 
d="M1151 975q101 0 159 -54.5t58 -145.5q0 -140 -71.5 -252t-205 -174t-319.5 -62q-183 0 -314 64.5t-201.5 188t-70.5 285.5v772q0 269 155.5 413t430.5 144q170 0 284.5 -47t183.5 -119t98.5 -159.5t29.5 -169.5v-5h-174v9q0 161 -114 261.5t-302 100.5
q-192 0 -305 -103.5t-113 -324.5v-765q0 -203 110 -309.5t314 -106.5q183 0 296.5 97.5t113.5 257.5q0 26 -14.5 49t-49.5 23q-51 0 -124 -22q-41 -11 -84 -21t-97 -10q-137 0 -218 74.5t-81 192.5q0 112 81 184t220 72q157 0 238 -104l-125 -60q-16 21 -46 31t-56 10
q-66 0 -102 -40.5t-36 -92.5q0 -64 40 -104t98 -40q51 0 133 28q41 11 78.5 22.5t101.5 11.5z" />
    <glyph glyph-name="uni1047" unicode="&#x1047;" horiz-adv-x="1323" 
d="M983 -421q-101 -134 -280 -134q-131 0 -225 75.5t-94 228.5q0 97 61.5 214.5t267.5 325t264.5 322t58.5 239.5q0 144 -105 238.5t-272 94.5q-180 0 -281.5 -113t-101.5 -281q0 -125 49.5 -212.5t106.5 -122.5l-85 -117q-106 57 -175.5 175t-69.5 277q0 143 68 268.5
t193 189.5t294 64q241 0 397 -130t156 -340q0 -134 -66.5 -270t-252.5 -320.5t-258.5 -291t-72.5 -222.5q0 -76 38.5 -121t107.5 -45q87 0 152 94z" />
    <glyph glyph-name="uni1048" unicode="&#x1048;" horiz-adv-x="1335" 
d="M668 1175q-80 0 -156 -29q166 -146 166 -368q0 -250 -266 -489l-2 -5q-142 76 -219.5 210t-77.5 286q0 156 73 278t201.5 187.5t280.5 65.5q153 0 282 -66.5t201 -188t72 -276.5q0 -151 -75 -288t-190 -205l-104 118q182 132 182 372q0 185 -102 291.5t-266 106.5z
M512 777q0 79 -28.5 158t-94.5 135q-110 -106 -110 -293q0 -167 110 -289q49 60 86 131t37 158z" />
    <glyph glyph-name="uni1049" unicode="&#x1049;" horiz-adv-x="1475" 
d="M1151 622q-64 0 -101.5 12t-78.5 23q-29 9 -61.5 18.5t-71.5 9.5q-58 0 -98 -39.5t-40 -104.5q0 -52 36 -92t102 -40q26 0 56 9.5t46 30.5l125 -59q-81 -106 -238 -106q-139 0 -220 73t-81 184q0 120 81 193.5t218 73.5q54 0 97 -10t84 -21q77 -22 124 -22q35 0 49.5 23
t14.5 49q0 161 -116 258.5t-294 97.5q-205 0 -314.5 -107.5t-109.5 -309.5v-765q0 -222 113 -325t305 -103q128 0 222.5 47.5t144 130.5t49.5 183v10h174v-6q0 -81 -29.5 -168.5t-98.5 -159.5t-183.5 -118.5t-284.5 -46.5q-278 0 -432 145t-154 411v772q0 161 70.5 285
t201.5 188.5t314 64.5q185 0 319 -63t205.5 -175.5t71.5 -249.5q0 -90 -57.5 -145.5t-159.5 -55.5z" />
    <glyph glyph-name="uni104A" unicode="&#x104a;" horiz-adv-x="553" 
d="M367 1293v-988h-181v988h181z" />
    <glyph glyph-name="uni104B" unicode="&#x104b;" horiz-adv-x="946" 
d="M367 1293v-988h-181v988h181zM760 1293v-988h-181v988h181z" />
    <glyph glyph-name="uni104C" unicode="&#x104c;" horiz-adv-x="1364" 
d="M188 -320q0 98 72 162.5t189 64.5q86 0 144 -26t120 -84l-103 -95q-69 70 -139 70q-47 0 -78 -24.5t-31 -61.5q0 -53 46 -80t165 -27h197q229 0 229 230v245q-149 -51 -313 -51q-137 0 -267 41t-231 108v435l144 66q51 -114 143 -172t211 -58q169 0 268 101.5t99 278.5
q0 169 -100.5 270.5t-266.5 101.5q-119 0 -211 -58t-143 -172l-144 66q56 139 189 219.5t307 80.5q169 0 295 -67.5t193 -183t67 -259.5q0 -145 -68 -262.5t-193 -184.5t-294 -67q-182 0 -315 86v-158q145 -76 317 -76q252 0 494 166v-466q0 -394 -420 -394h-244
q-151 0 -239.5 65t-88.5 170zM1081 1921q-32 50 -83.5 79t-114.5 29q-101 0 -156 -63t-55 -152q0 -97 48 -157.5t114 -101.5l-91 -96q-104 51 -169.5 142.5t-65.5 212.5q0 152 103 245t270 93q104 0 187 -39t130 -111z" />
    <glyph glyph-name="uni104D" unicode="&#x104d;" horiz-adv-x="1827" 
d="M1460 718q0 168 -39.5 298.5t-112.5 222.5t-274 231q-99 67 -149.5 149t-50.5 188q0 94 52.5 175.5t145 127t205.5 45.5q147 0 247.5 -58t147.5 -163l-139 -66q-35 81 -98.5 122.5t-147.5 41.5q-105 0 -172 -63.5t-67 -161.5q0 -69 36.5 -123t127.5 -115
q256 -172 362 -365t106 -498v-867q0 -394 -417 -394h-699q-196 0 -303.5 70.5t-107.5 209.5q0 118 87.5 192.5t223.5 74.5q104 0 169.5 -31.5t125.5 -81.5l-113 -96q-37 32 -74.5 52t-97.5 20q-49 0 -93 -31t-44 -101t61 -107t162 -37h711q229 0 229 230v909zM1042 795
q0 171 -101 275.5t-271 104.5q-142 0 -232 -69t-123 -182q271 -21 420.5 -179t149.5 -424q-112 -34 -223 -34q-164 0 -288 65t-192.5 182t-68.5 265q0 145 68.5 262t193 183.5t293.5 66.5t293.5 -66.5t193 -184.5t68.5 -261v-986h-181v982zM715 425q-8 162 -124 258
t-292 111q0 -172 101.5 -271.5t267.5 -99.5z" />
    <glyph glyph-name="uni104E" unicode="&#x104e;" horiz-adv-x="3019" 
d="M668 1422zM1412 803q0 -107 47 -195t132 -136.5t188 -48.5q118 0 210.5 58t143.5 172l143 -66q-54 -136 -187 -218t-308 -82q-172 0 -296.5 65.5t-191.5 182.5t-67 266q0 144 67.5 260.5t192.5 183t295 66.5q174 0 307.5 -82t187.5 -218l-143 -66q-51 114 -143.5 172
t-210.5 58q-169 0 -268 -102.5t-99 -269.5zM873 -555v928q-133 -86 -315 -86q-170 0 -295.5 67.5t-192.5 185.5t-67 261q0 144 67.5 260.5t192.5 183t295 66.5q174 0 307.5 -82t187.5 -218l-143 -66q-51 114 -143.5 172t-210.5 58q-169 0 -268 -102.5t-99 -269.5
q0 -175 98 -277.5t269 -102.5q118 0 210.5 58t143.5 172l143 -66v-1142h-180zM1582 1489q-84 44 -131 124t-47 177q0 94 45 173.5t130 126.5t199 47q116 0 200 -46q73 -40 118 -109l-128 -89q-13 28 -33 53q-56 68 -155 68q-100 0 -156.5 -64.5t-56.5 -162.5q0 -94 58 -157
q40 -44 100 -57l-39 -121q-56 11 -104 37zM2893 1100q0 -95 -64.5 -146t-163.5 -51q-100 0 -161.5 50t-61.5 145q0 92 61.5 143.5t161.5 51.5q99 0 163.5 -51.5t64.5 -141.5zM2780 1098q0 46 -31 71.5t-78 25.5t-77.5 -25.5t-30.5 -71.5q0 -47 27.5 -72.5t80.5 -25.5
q47 0 78 25.5t31 72.5zM2893 494q0 -95 -64.5 -146t-163.5 -51q-100 0 -161.5 50t-61.5 145q0 92 61.5 143.5t161.5 51.5q99 0 163.5 -51.5t64.5 -141.5zM2784 488q0 46 -31 71.5t-78 25.5t-77.5 -25.5t-30.5 -71.5q0 -47 27.5 -72.5t80.5 -25.5q47 0 78 25.5t31 72.5z" />
    <glyph glyph-name="uni104F" unicode="&#x104f;" horiz-adv-x="2329" 
d="M698 861q-214 0 -370 102q-29 -61 -29 -168q0 -91 29 -160q155 101 370 101q238 0 482 -147q-60 -136 -191 -219t-321 -83q-170 0 -295 67t-192.5 182.5t-67.5 260.5q0 144 66 261t191.5 185t297.5 68q250 0 405 -151q41 70 115 110.5t176 40.5q170 0 265 -94t95 -245
v-667h-180v669q0 91 -46 146t-138 55q-60 0 -114 -37.5t-66 -128.5q-247 -148 -482 -148zM1962 912q0 223 -67 344t-226 194q-140 65 -204 118t-97 117t-33 150q0 133 112 226t279 93q154 0 254.5 -59t147.5 -165l-133 -62q-72 164 -252 164q-96 0 -165 -57.5t-69 -135.5
q0 -71 30 -113t76 -72.5t105 -56.5q153 -67 245 -161t134.5 -225.5t42.5 -346.5v-559h-180v607zM666 1175q-183 0 -269 -98q52 -37 121.5 -61.5t186.5 -24.5q147 0 272 70q-105 114 -311 114zM666 423q206 0 311 114q-125 70 -272 70q-117 0 -186.5 -24.5t-121.5 -61.5
q86 -98 269 -98z" />
    <glyph glyph-name="uni1050" unicode="&#x1050;" horiz-adv-x="1335" 
d="M668 1175q-163 0 -266 -105.5t-103 -292.5q0 -240 182 -372l-104 -118q-110 65 -187 199.5t-77 293.5q0 156 73 278t201.5 187.5t280.5 65.5q153 0 282 -66.5t201 -188t72 -276.5q0 -153 -76 -289.5t-189 -203.5l-104 118q182 132 182 372q0 186 -102 292t-266 106z
M670 1422zM672 305zM675 260zM544 787q0 67 36 95t89 28q54 0 91.5 -28t37.5 -95t-37.5 -96.5t-91.5 -29.5q-53 0 -89 29.5t-36 96.5z" />
    <glyph glyph-name="uni1051" unicode="&#x1051;" horiz-adv-x="1335" 
d="M668 423q167 0 267.5 108t100.5 290q0 240 -182 372l104 118q125 -80 195 -214.5t70 -279.5q0 -155 -73 -277t-200.5 -187.5t-281.5 -65.5q-155 0 -282 65t-200 188t-73 277q0 153 71 285t193 209l104 -118q-182 -132 -182 -372q0 -183 101.5 -290.5t267.5 -107.5z
M670 1422zM688 305zM685 260zM544 815q0 67 36 95t89 28q54 0 91.5 -28t37.5 -95t-37.5 -96.5t-91.5 -29.5q-53 0 -89 29.5t-36 96.5z" />
    <glyph glyph-name="uni105A" unicode="&#x105a;" horiz-adv-x="1253" 
d="M186 305v1451q0 119 -74.5 196.5t-226.5 77.5q-135 0 -218 -68.5t-83 -205.5v-30h-174v26q0 182 129 292t344 110q144 0 242 -47t151 -124q52 77 147 124t239 47q217 0 346 -110t129 -292v-26h-174v30q0 137 -84 205.5t-220 68.5q-151 0 -225 -76.5t-74 -197.5v-1451
h-174zM289 305zM287 260z" />
    <glyph glyph-name="uni105C" unicode="&#x105c;" horiz-adv-x="1335" 
d="M670 1175q-171 0 -271 -103t-100 -277q0 -172 104 -272t265 -100q111 0 195.5 48t128.5 132.5t44 191.5q0 171 -98 275.5t-268 104.5zM668 1311q169 0 292.5 -66t193 -184t69.5 -262q0 -140 -68 -258t-194.5 -186t-298.5 -68q-165 0 -289 65t-192 182.5t-68 264.5
q0 145 68.5 262.5t192.5 183.5t294 66zM893 810q0 -94 -64.5 -145.5t-162.5 -51.5q-101 0 -162.5 51t-61.5 144t61.5 144t162.5 51q98 0 162.5 -51t64.5 -142zM776 808q0 46 -30.5 72t-77.5 26t-78 -26t-31 -72t27.5 -71.5t81.5 -25.5q47 0 77.5 25.5t30.5 71.5zM670 1422z
M668 305zM675 260z" />
    <glyph glyph-name="uni1060" unicode="&#x1060;" 
d="M-746 -410q51 -22 127 -22q70 0 131 31.5t93 88t32 130.5q0 116 -66.5 193.5t-189.5 77.5q-84 0 -159 -46t-124 -120q12 -42 12 -107q0 -121 -54 -219t-148 -151l-90 103q145 113 145 267q0 124 -75 198.5t-195 74.5q-115 0 -186.5 -68t-71.5 -199q0 -169 127 -273
l-91 -103q-86 53 -142 151t-56 219q0 122 52.5 212t149 138.5t216.5 48.5q217 0 344 -163q125 163 344 163q128 0 223 -52.5t147 -143t52 -199.5q0 -164 -118.5 -269.5t-289.5 -105.5q-125 0 -201 32zM-655 305z" />
    <glyph glyph-name="uni1061" unicode="&#x1061;" 
d="M-412 -162q0 118 -71 185.5t-179 67.5q-81 0 -143.5 -40.5t-97.5 -119.5l-133 59q41 99 139 162t233 63q128 0 221.5 -50t144 -139.5t50.5 -188.5q0 -108 -51.5 -199t-144.5 -142t-220 -51q-145 0 -256.5 71t-150.5 201q109 67 198.5 97t180.5 30q165 0 272 -88
q8 34 8 82zM-690 -274q-91 0 -189 -48q76 -107 217 -107q125 0 189 79q-92 76 -217 76zM-655 305z" />
    <glyph glyph-name="uni1062" unicode="&#x1062;" 
d="M-668 89q-110 0 -181 -71.5t-71 -201.5q0 -161 125 -252l-94 -118q-86 53 -141 151t-55 219q0 118 52 208.5t148.5 140.5t214.5 50q186 0 305 -109t119 -290q0 -121 -59.5 -219t-145.5 -151l-92 118q131 94 131 251q0 125 -69.5 199.5t-186.5 74.5zM-655 305z" />
    <glyph glyph-name="uni1063" unicode="&#x1063;" 
d="M-508 182q84 35 213 35q112 0 201 -47t138.5 -134.5t49.5 -203.5q0 -102 -50 -191.5t-145 -142.5t-221 -53q-108 0 -200 43t-146 127q-71 -94 -160.5 -132t-195.5 -38q-114 0 -205.5 38t-139.5 106t-48 153q0 57 26.5 109.5t76.5 93.5l48 41q45 33 45 72q0 35 -45 35
q-39 0 -82 -41l-86 79q48 45 86.5 65.5t108.5 20.5q58 0 98 -21.5t61 -56t21 -75.5q0 -64 -33.5 -105t-92.5 -89q-66 -53 -66 -133q0 -65 60.5 -113t176.5 -48q73 0 137 35t99 96.5t35 138.5q0 159 -123 253l94 118q98 -69 145 -166.5t47 -206.5q0 -52 -12 -104
q99 -164 273 -164q118 0 182.5 75t64.5 184q0 124 -70.5 187t-174.5 63q-76 0 -127 -21zM-655 305z" />
    <glyph glyph-name="uni1064" unicode="&#x1064;" 
d="M-544 1999q-41 35 -94 35q-39 0 -62.5 -20.5t-23.5 -56.5q0 -52 55 -99h29q74 0 130 -28t83 -81l-117 -54q-12 20 -36.5 32t-53.5 12q-41 0 -65.5 -22t-24.5 -59t23.5 -57.5t64.5 -20.5q62 0 94 43l115 -54q-27 -53 -83 -81.5t-130 -28.5q-102 0 -165.5 52.5t-63.5 146.5
q0 91 67 149q-65 65 -65 150q0 93 62.5 145t164.5 52q125 0 193 -78zM-680 1422zM-417 1422z" />
    <glyph glyph-name="uni1065" unicode="&#x1065;" 
d="M-666 215q126 0 220.5 -50.5t147 -142.5t52.5 -202q0 -100 -53 -188.5t-148.5 -137.5t-224.5 -49q-121 0 -215 50.5t-145 140.5t-51 194q0 105 51 194t146 140t220 51zM-657 91q-52 0 -97 -15q109 -105 109 -250q0 -137 -107 -242q41 -13 95 -13q73 0 128 31.5t87 91
t32 122.5q0 119 -70.5 197t-176.5 78zM-922 -177q0 -101 64 -169q76 74 76 172q0 108 -76 180q-64 -72 -64 -183zM-655 305z" />
    <glyph glyph-name="uni1066" unicode="&#x1066;" 
d="M-1038 -162q0 70 -31.5 131.5t-87.5 92.5t-131 31q-86 0 -151.5 -40.5t-102.5 -118.5l-131 61q41 98 142.5 159t238.5 61q92 0 180.5 -32.5t147.5 -102.5q146 135 342 135q131 0 226.5 -51.5t145.5 -139t50 -189.5q0 -110 -51 -199.5t-144 -140t-217 -50.5
q-119 0 -202.5 38t-149.5 97q-59 -70 -148.5 -102.5t-187.5 -32.5q-141 0 -249.5 69.5t-143.5 194.5q159 168 383 168q153 0 270 -79l2 19v21zM-610 91q-86 0 -158.5 -41.5t-113.5 -100.5q18 -48 18 -109q0 -83 -18 -129q41 -59 113.5 -99.5t158.5 -40.5q129 0 192.5 74.5
t63.5 192.5q0 111 -67.5 182t-188.5 71zM-1302 -249q-114 0 -221 -66q78 -114 229 -114q78 0 132.5 28.5t82.5 76.5q-41 31 -100 53t-123 22zM-655 305z" />
    <glyph glyph-name="uni1067" unicode="&#x1067;" 
d="M-758 -162q0 70 -31.5 131.5t-87.5 92.5t-131 31q-86 0 -151.5 -40.5t-102.5 -118.5l-131 61q41 98 142.5 159t238.5 61q92 0 180.5 -32.5t147.5 -102.5q146 135 342 135q131 0 226.5 -51.5t145.5 -139t50 -189.5q0 -110 -51 -199.5t-144 -140t-217 -50.5
q-119 0 -202.5 38t-149.5 97q-59 -70 -148.5 -102.5t-187.5 -32.5q-141 0 -249.5 69.5t-143.5 194.5q159 168 383 168q153 0 270 -79l2 19v21zM-340 91q-86 0 -158.5 -41.5t-113.5 -100.5q18 -48 18 -109q0 -83 -18 -129q41 -59 113.5 -99.5t158.5 -40.5q129 0 192.5 74.5
t63.5 192.5q0 111 -67.5 182t-188.5 71zM-1022 -249q-114 0 -221 -66q78 -114 229 -114q78 0 132.5 28.5t82.5 76.5q-41 31 -100 53t-123 22zM-655 305z" />
    <glyph glyph-name="uni1068" unicode="&#x1068;" 
d="M-694 -36q0 85 61 123l-49 4q-111 0 -179.5 -71t-68.5 -187q0 -114 66.5 -188t189.5 -74q114 0 176 55l97 -95q-107 -86 -265 -86q-132 0 -227.5 50t-148 140.5t-52.5 194.5q0 108 53 198t149.5 138.5t223.5 48.5q119 0 197 -24.5t123 -59t62.5 -76.5t17.5 -74t-4 -60.5
t-4 -44.5q0 -44 25.5 -59t86.5 -15v-123h-29q-92 0 -150 37.5t-58 101.5q-38 -18 -97 -18q-90 0 -143 48.5t-53 115.5zM-557 -27q0 -25 20.5 -42.5t49.5 -17.5q28 0 47.5 17.5t19.5 42.5q0 26 -19.5 44.5t-47.5 18.5q-29 0 -49.5 -18.5t-20.5 -44.5zM-655 305z" />
    <glyph glyph-name="uni1069" unicode="&#x1069;" horiz-adv-x="547" 
d="M360 1293v-1848l-645 208q-115 -208 -387 -208q-181 0 -296 107.5t-115 280.5q0 100 50 189t144.5 141t220.5 52q129 0 225 -53t146.5 -144t50.5 -195l-3 -48l435 -142v1660h174zM-655 91q-52 0 -97 -15q107 -109 107 -245q0 -139 -105 -247q41 -13 93 -13q113 0 180 74
t67 176q0 113 -69.5 191.5t-175.5 78.5zM-920 -172q0 -104 62 -174q76 72 76 177q0 107 -76 175q-62 -72 -62 -178z" />
    <glyph glyph-name="uni106A" unicode="&#x106a;" horiz-adv-x="1354" 
d="M459 -555q-152 0 -212.5 58t-60.5 188v896l144 66q51 -114 143 -172t211 -58q171 0 269 103t98 277q0 108 -45.5 194t-129.5 132t-192 46q-119 0 -211 -58t-143 -172l-144 66q57 139 189.5 219.5t306.5 80.5q169 0 294.5 -67t193 -182.5t67.5 -260.5t-67.5 -262
t-193 -184.5t-294.5 -67.5q-178 0 -313 85v-679q0 -114 90 -114v-134zM670 1422zM1050 305zM1048 260z" />
    <glyph glyph-name="uni106B" unicode="&#x106b;" horiz-adv-x="2273" 
d="M1147 502q-170 -215 -465 -215q-180 0 -311 85v-562q0 -232 227 -232h28v-133h-20q-420 0 -420 395v747l144 66q51 -114 143 -172t211 -58q172 0 270.5 102.5t98.5 279.5q0 107 -45 193t-129.5 132.5t-194.5 46.5q-119 0 -211 -58t-143 -174l-144 66q57 139 189.5 219.5
t306.5 80.5q169 0 295 -66.5t194 -181t68 -255.5q0 -43 -18 -142q67 -105 158 -173t229 -68q170 0 268 104t98 274q0 169 -97.5 270.5t-264.5 101.5q-113 0 -189 -33l-65 121q57 27 123.5 37.5t158.5 10.5q150 0 269 -63t185.5 -179t66.5 -270q0 -143 -68.5 -261
t-194 -184.5t-292.5 -66.5q-298 0 -459 215zM1630 1422zM1445 305zM1608 260z" />
    <glyph glyph-name="uni106C" unicode="&#x106c;" 
d="M-989 -304q-29 38 -47.5 76t-18.5 99q0 80 56 147t154.5 104t217.5 37q120 0 220.5 -40t156 -113t55.5 -173q0 -99 -65.5 -176.5t-182.5 -113.5l-63 119q90 24 132 70t42 105q0 83 -84 129.5t-213 46.5q-134 0 -211.5 -49.5t-77.5 -121.5q0 -58 43 -105t133 -70l-65 -119
h-379q-55 56 -91 129t-36 148q0 92 37 152h-133q-27 -56 -27 -152q0 -71 26.5 -143t74.5 -134h-295v-103h-127v251h215q-29 70 -29 159q0 142 82 266h451q-84 -75 -112 -144.5t-28 -121.5q0 -79 54 -159h135zM-655 305z" />
    <glyph glyph-name="uni106D" unicode="&#x106d;" 
d="M-1693 -267q0 -72 46 -106t126 -34l525 -2q-35 44 -50.5 90.5t-15.5 106.5q0 112 55.5 195.5t155 129.5t217.5 46q120 0 220 -46.5t156 -132t56 -199.5q0 -111 -65.5 -202.5t-182.5 -133.5l-63 119q90 32 132 92t42 132q0 104 -84 164.5t-213 60.5q-125 0 -207 -60.5
t-82 -158.5q0 -77 43 -138.5t131 -91.5l-65 -119h-701q-166 0 -247.5 79t-81.5 222v137q0 134 75 205t199 71q107 0 176.5 -56t69.5 -152q0 -127 -94 -219l-111 75q23 26 37 52t14 64q0 36 -22.5 66.5t-71.5 30.5q-68 0 -93.5 -47.5t-25.5 -107.5v-132zM-655 305z" />
    <glyph glyph-name="uni1070" unicode="&#x1070;" 
d="M-1106 -555q-119 0 -188.5 53t-69.5 152q0 32 15 86q14 50 14 110q0 111 -71.5 174.5t-178.5 63.5q-121 0 -185.5 -73t-64.5 -178q0 -112 66.5 -182.5t177.5 -70.5q45 0 78 7l41 -127q-55 -15 -139 -15q-173 0 -282.5 113.5t-109.5 274.5q0 101 50.5 190t146 140.5
t221.5 51.5q166 0 279 -86q39 37 84 61.5t127 24.5q63 0 108 -24.5t84 -61.5q111 86 281 86q126 0 220.5 -51.5t144.5 -140.5t50 -190q0 -163 -109.5 -275.5t-281.5 -112.5q-85 0 -137 15l39 127q33 -7 78 -7q102 0 173 65.5t71 187.5q0 105 -66 178t-184 73
q-107 0 -178.5 -62.5t-71.5 -175.5q0 -60 14 -110q14 -51 14 -86q0 -60 -28 -105t-84.5 -72.5t-147.5 -27.5zM-1030 -149q0 104 55 187q-24 26 -50 41.5t-67 15.5q-45 0 -70.5 -15.5t-49.5 -41.5q55 -91 55 -185q0 -59 -17.5 -106t-17.5 -89q0 -36 24.5 -61.5t71.5 -25.5
q50 0 74.5 25.5t24.5 61.5q0 42 -16.5 88t-16.5 105zM-655 305z" />
    <glyph glyph-name="uni1071" unicode="&#x1071;" 
d="M-1319 215q217 0 344 -163q61 82 150 122.5t194 40.5q128 0 223 -52.5t147 -143t52 -201.5q0 -102 -53 -187t-147.5 -134t-207.5 -49q-125 0 -201 32l62 113q51 -22 127 -22q70 0 131 31.5t93 88t32 125.5q0 118 -66.5 195.5t-189.5 77.5q-84 0 -158 -45t-123 -119
q12 -42 12 -105q0 -97 -53 -186.5t-147.5 -139t-225.5 -49.5q-123 0 -216 50.5t-144 140t-51 192.5q0 106 50.5 195t144.5 140.5t221 51.5zM-1317 91q-114 0 -185 -72t-71 -196q0 -68 32.5 -128t90 -92t133.5 -32q108 0 182 70t74 175q0 124 -72 199.5t-184 75.5zM-655 305z
" />
    <glyph glyph-name="uni1072" unicode="&#x1072;" 
d="M-999 215q217 0 344 -163q61 82 150 122.5t194 40.5q128 0 223 -52.5t147 -143t52 -201.5q0 -102 -53 -187t-147.5 -134t-207.5 -49q-125 0 -201 32l62 113q51 -22 127 -22q70 0 131 31.5t93 88t32 125.5q0 118 -66.5 195.5t-189.5 77.5q-84 0 -158 -45t-123 -119
q12 -42 12 -105q0 -97 -53 -186.5t-147.5 -139t-225.5 -49.5q-123 0 -216 50.5t-144 140t-51 192.5q0 106 50.5 195t144.5 140.5t221 51.5zM-997 91q-114 0 -185 -72t-71 -196q0 -68 32.5 -128t90 -92t133.5 -32q108 0 182 70t74 175q0 124 -72 199.5t-184 75.5zM-655 305z
" />
    <glyph glyph-name="uni1073" unicode="&#x1073;" 
d="M-970 80q146 135 346 135q127 0 222 -51t145.5 -140.5t50.5 -195.5q0 -104 -50.5 -191.5t-144.5 -139.5t-219 -52q-116 0 -200 38t-150 97q-59 -70 -147 -102.5t-177 -32.5q-123 0 -216 50.5t-144 140t-51 192.5q0 106 50.5 195t144.5 140.5t221 51.5q86 0 173 -32.5
t146 -102.5zM-1287 91q-114 0 -185 -72t-71 -196q0 -68 32.5 -128t90 -92t133.5 -32q108 0 182 70t74 175q0 124 -72 199.5t-184 75.5zM-616 91q-86 0 -158.5 -41.5t-113.5 -100.5q18 -48 18 -114q0 -78 -18 -124q41 -59 113.5 -99.5t158.5 -40.5q129 0 192.5 74.5
t63.5 187.5q0 116 -67.5 187t-188.5 71zM-655 305z" />
    <glyph glyph-name="uni1074" unicode="&#x1074;" 
d="M-680 80q146 135 346 135q127 0 222 -51t145.5 -140.5t50.5 -195.5q0 -104 -50.5 -191.5t-144.5 -139.5t-219 -52q-116 0 -200 38t-150 97q-59 -70 -147 -102.5t-177 -32.5q-123 0 -216 50.5t-144 140t-51 192.5q0 106 50.5 195t144.5 140.5t221 51.5q86 0 173 -32.5
t146 -102.5zM-997 91q-114 0 -185 -72t-71 -196q0 -68 32.5 -128t90 -92t133.5 -32q108 0 182 70t74 175q0 124 -72 199.5t-184 75.5zM-336 91q-86 0 -158.5 -41.5t-113.5 -100.5q18 -48 18 -114q0 -78 -18 -124q41 -59 113.5 -99.5t158.5 -40.5q129 0 192.5 74.5
t63.5 187.5q0 116 -67.5 187t-188.5 71zM-655 305z" />
    <glyph glyph-name="uni1075" unicode="&#x1075;" 
d="M-659 87q-115 0 -162 -28t-47 -60q0 -24 16 -39l-117 -56q-47 54 -47 116q0 85 94.5 140t255.5 55q177 0 266 -57t89 -152q0 -62 -35 -98t-94 -57v-7q63 -18 110 -55t47 -113q0 -108 -99.5 -169.5t-289.5 -61.5q-148 0 -252.5 56t-140.5 153l133 60q69 -139 266 -139
q102 0 161 32t59 84q0 30 -45.5 57.5t-143.5 27.5h-16v128h8q70 0 122 23.5t52 71.5q0 35 -42 61.5t-148 26.5zM-655 305z" />
    <glyph glyph-name="uni1076" unicode="&#x1076;" 
d="M-668 215q130 0 225 -52t146 -142.5t51 -195.5q0 -102 -53 -191.5t-147.5 -139t-225.5 -49.5q-120 0 -213.5 49.5t-145.5 139t-52 199.5q0 101 50 190t144.5 140.5t220.5 51.5zM-666 91q-110 0 -183 -72.5t-73 -190.5l2 -32q117 79 254 79q145 0 254 -79l2 12v12
q0 122 -72 196.5t-184 74.5zM-666 -431q141 0 211 105q-90 77 -211 77q-112 0 -208 -79q32 -48 85.5 -75.5t122.5 -27.5zM-655 305z" />
    <glyph glyph-name="uni1077" unicode="&#x1077;" 
d="M-741 -492q-146 0 -227 47.5t-81 139.5q0 80 63.5 131t157.5 51q76 0 140 -30.5t102 -86t43 -112.5q115 9 115 76q0 31 -34.5 57.5t-136.5 60t-115 36.5q-152 42 -152 160q0 75 69.5 126t173.5 51q74 0 132.5 -16t100.5 -43.5t48 -31.5l-90 -102q-91 60 -186 60
q-37 0 -68 -12t-31 -33q0 -23 21 -35t89 -29l103 -31q103 -31 164 -81t61 -141t-70 -144q-57 -43 -148 -58l-226 -10h-18zM-897 -293q0 -36 44 -56.5t126 -20.5h37q-5 77 -40.5 110t-84.5 33q-82 0 -82 -66z" />
    <glyph glyph-name="uni1078" unicode="&#x1078;" 
d="M-668 -427q117 0 186.5 73.5t69.5 195.5q0 159 -131 257l92 116q86 -54 145.5 -154.5t59.5 -219.5q0 -112 -52 -202.5t-149.5 -142t-222.5 -51.5q-183 0 -299 111t-116 285q0 119 55 219.5t141 154.5l94 -116q-125 -95 -125 -258q0 -124 71 -196t181 -72zM-655 305z" />
    <glyph glyph-name="uni1079" unicode="&#x1079;" 
d="M-668 -424q37 0 84 13q-98 116 -98 262q0 236 201 364q102 -54 168.5 -151.5t66.5 -219.5q0 -111 -53 -202.5t-153 -144t-216 -52.5t-213.5 52t-150.5 143.5t-53 203.5q0 122 55 219.5t141 151.5l94 -116q-125 -95 -125 -255q0 -125 71 -196.5t181 -71.5zM-541 -143
q0 -48 20.5 -99t59.5 -88q58 63 58 181q0 106 -66 190q-39 -37 -55.5 -79t-16.5 -105zM-655 305z" />
    <glyph glyph-name="uni107A" unicode="&#x107a;" 
d="M-784 129q-13 -26 -13 -51q0 -49 40.5 -81.5t94.5 -32.5q46 0 89 30.5t43 85.5q0 24 -13 51l92 84q89 -54 147 -154.5t58 -219.5q0 -113 -54 -204t-151.5 -141.5t-218.5 -50.5q-179 0 -297 112t-118 284q0 121 55 220.5t141 153.5zM-897 -31q-23 -55 -23 -128
q0 -129 71 -198.5t181 -69.5q113 0 184.5 70.5t71.5 198.5q0 63 -20 117q-69 -129 -234 -129q-88 0 -146 40.5t-85 98.5zM-655 305z" />
    <glyph glyph-name="uni107B" unicode="&#x107b;" 
d="M-1051 -167q0 115 -70 186.5t-182 71.5q-84 0 -151.5 -39t-102.5 -120l-131 62q47 105 147.5 163t233.5 58q214 0 342 -163q61 82 151 122.5t193 40.5q128 0 223 -52.5t147 -143t52 -201.5q0 -102 -53 -187t-147.5 -134t-207.5 -49q-125 0 -201 32l62 113q51 -22 127 -22
q70 0 131 31.5t93 88t32 125.5q0 118 -66.5 195.5t-189.5 77.5q-84 0 -159 -46t-124 -120q12 -42 12 -93q0 -104 -52 -193.5t-147.5 -140.5t-226.5 -51q-129 0 -230 60.5t-148 164.5l133 58q64 -157 252 -157q122 0 190 74.5t68 187.5zM-655 305z" />
    <glyph glyph-name="uni107C" unicode="&#x107c;" 
d="M-920 -154q0 -41 5 -69q109 79 253 79q134 0 246 -77l4 68q0 78 -35.5 142.5t-95.5 109.5l92 116q86 -54 145.5 -154.5t59.5 -214.5q0 -182 -119 -291.5t-305 -109.5q-183 0 -299 111t-116 290q0 114 55 214.5t141 154.5l94 -116q-59 -45 -92 -110.5t-33 -142.5z
M-668 -438q145 0 209 103q-86 73 -203 73q-119 0 -210 -75q30 -48 82.5 -74.5t121.5 -26.5zM-655 305z" />
    <glyph glyph-name="uni107D" unicode="&#x107d;" horiz-adv-x="547" 
d="M360 1293v-1848l-753 241l47 121l532 -175v1661h174zM260 1422z" />
    <glyph glyph-name="uni107E" unicode="&#x107e;" horiz-adv-x="469" 
d="M598 2021q-227 0 -227 -230v-1980q0 -232 227 -232h1608q227 0 227 232v522h182v-492q0 -395 -420 -395h-1589q-420 0 -420 395v1918q0 395 420 395h1589q420 0 420 -395v-54h-182v86q0 109 -55.5 169.5t-171.5 60.5h-1608z" />
    <glyph glyph-name="uni107F" unicode="&#x107f;" horiz-adv-x="469" 
d="M598 2021q-227 0 -227 -230v-1980q0 -232 227 -232h680q227 0 227 232v522h183v-492q0 -395 -420 -395h-662q-420 0 -420 395v1918q0 395 420 395h170v-133h-178z" />
    <glyph glyph-name="uni1080" unicode="&#x1080;" horiz-adv-x="469" 
d="M598 2021q-227 0 -227 -230v-1980q0 -232 227 -232h1608q227 0 227 232v522h182v-492q0 -395 -420 -395h-1589q-420 0 -420 395v1918q0 395 420 395h793v-133h-801z" />
    <glyph glyph-name="uni1081" unicode="&#x1081;" horiz-adv-x="469" 
d="M598 2021q-227 0 -227 -230v-1982q0 -232 227 -232h338v-132h-330q-420 0 -420 394v1920q0 395 420 395h660q422 0 422 -395v-54h-183v86q0 109 -56 169.5t-173 60.5h-678z" />
    <glyph glyph-name="uni1082" unicode="&#x1082;" horiz-adv-x="469" 
d="M598 2021q-227 0 -227 -230v-1982q0 -232 227 -232h1171v-132h-1163q-420 0 -420 394v1920q0 395 420 395h1587q422 0 422 -395v-54h-182v86q0 109 -56.5 169.5t-172.5 60.5h-1606z" />
    <glyph glyph-name="uni1083" unicode="&#x1083;" horiz-adv-x="469" 
d="M598 2021q-227 0 -227 -230v-1982q0 -232 227 -232h338v-132h-330q-420 0 -420 394v1920q0 395 420 395h170v-133h-178z" />
    <glyph glyph-name="uni1084" unicode="&#x1084;" horiz-adv-x="469" 
d="M598 2021q-227 0 -227 -230v-1982q0 -232 227 -232h1171v-132h-1163q-420 0 -420 394v1920q0 395 420 395h793v-133h-801z" />
    <glyph glyph-name="uni1085" unicode="&#x1085;" 
d="M-1354 85q-111 0 -177.5 -71t-66.5 -179q0 -120 69.5 -187.5t176.5 -67.5q74 0 127 23l61 -117q-82 -41 -208 -41q-110 0 -201 48.5t-142 137t-51 204.5q0 100 51 188.5t145.5 140t221.5 51.5q153 0 266 -90t174 -275q48 -143 118.5 -207.5t178.5 -64.5q102 0 170 73
t68 184q0 113 -67.5 181.5t-182.5 68.5q-69 0 -127 -23l-59 118q80 35 211 35q173 0 282 -106t109 -279q0 -104 -51.5 -194t-143.5 -140.5t-209 -50.5q-176 0 -283.5 101t-168.5 276q-88 263 -291 263zM-655 305z" />
    <glyph glyph-name="uni1087" unicode="&#x1087;" 
d="M-551 200v-535h-436v125h256v410h180z" />
    <glyph glyph-name="uni1088" unicode="&#x1088;" 
d="M-1109 -430h256v645h180v-770h-436v125zM-127 -555h-439v770h180v-645h259v-125zM-659 260z" />
    <glyph glyph-name="uni1089" unicode="&#x1089;" 
d="M-43 -555h-434v770h178v-645h256v-125zM-1283 -430h256v645h181v-770h-437v125zM-747 215h180v-770h-180v770zM-725 260z" />
    <glyph glyph-name="uni108E" unicode="&#x108e;" 
d="M64 1659q0 -93 -64.5 -145t-163.5 -52q-100 0 -161.5 51t-61.5 145q0 92 61.5 143.5t161.5 51.5q99 0 163.5 -51.5t64.5 -142.5zM-53 1658q0 46 -30.5 72t-78.5 26q-47 0 -77.5 -26t-30.5 -72t27.5 -71.5t80.5 -25.5q48 0 78.5 25.5t30.5 71.5zM-127 1422zM-765 2039
q-81 0 -126.5 -67.5t-45.5 -164.5q0 -94 46.5 -159t125.5 -65t125.5 64t46.5 154q0 100 -45 169t-127 69zM-767 2163q103 0 179.5 -47t117.5 -128.5t41 -184.5q0 -93 -41.5 -172.5t-119 -125.5t-179.5 -46q-152 0 -240.5 100t-88.5 252q0 99 39.5 179t115.5 126.5t176 46.5z
M-766 1422zM-1016 1422z" />
    <glyph glyph-name="uni108F" unicode="&#x108f;" horiz-adv-x="1167" 
d="M913 275l-47 41q-87 -29 -209 -29h-141q-211 0 -328.5 64.5t-117.5 189.5q0 69 37 117.5t103 75t142 26.5q85 0 182 -37t193 -101t164 -134q33 40 33 95q0 59 -55 101t-207 93q-154 51 -222 89.5t-98.5 84.5t-30.5 112q0 71 43.5 127.5t119.5 88.5t163 32q83 0 142.5 -13
t107.5 -36.5t125 -88.5l-109 -103l-54 43q-86 68 -206 68q-64 0 -112 -31t-48 -80q0 -44 38 -73.5t117 -56.5q207 -70 270.5 -97t105 -62.5t63 -82.5t21.5 -111q0 -70 -28 -121.5t-64 -79.5l53 -48zM670 421q43 0 78 6q-240 197 -398 197q-121 0 -121 -87q0 -54 68.5 -85
t185.5 -31h187zM608 1422zM576 305zM578 260z" />
    <glyph glyph-name="uni1090" unicode="&#x1090;" horiz-adv-x="1391" 
d="M1042 795q0 171 -102 276.5t-268 105.5q-146 0 -235 -70t-122 -183q275 -22 423.5 -181.5t148.5 -421.5q-114 -34 -225 -34q-165 0 -289.5 65.5t-192 183.5t-67.5 265q0 142 67 259t192 184t298 67q170 0 295 -67t192.5 -185t67.5 -258v-1056h-183v1050zM717 425
q-8 161 -123.5 258t-294.5 111q0 -172 100 -271.5t271 -99.5zM670 1422zM370 260zM540 260z" />
    <glyph glyph-name="uni1093" unicode="&#x1093;" 
d="M-741 -167q0 115 -70 186.5t-182 71.5q-84 0 -151.5 -39t-102.5 -120l-131 62q47 105 147.5 163t233.5 58q214 0 342 -163q61 82 151 122.5t193 40.5q128 0 223 -52.5t147 -143t52 -201.5q0 -102 -53 -187t-147.5 -134t-207.5 -49q-125 0 -201 32l62 113q51 -22 127 -22
q70 0 131 31.5t93 88t32 125.5q0 118 -66.5 195.5t-189.5 77.5q-84 0 -159 -46t-124 -120q12 -42 12 -93q0 -104 -52 -193.5t-147.5 -140.5t-226.5 -51q-129 0 -230 60.5t-148 164.5l133 58q64 -157 252 -157q122 0 190 74.5t68 187.5zM-655 305z" />
    <glyph glyph-name="uni1094" unicode="&#x1094;" horiz-adv-x="5" 
d="M94 -91q0 -94 -64.5 -145.5t-163.5 -51.5q-100 0 -161.5 50.5t-61.5 144.5q0 92 61.5 144t161.5 52q99 0 163.5 -52t64.5 -142zM-23 -93q0 46 -30.5 71.5t-78.5 25.5q-47 0 -77.5 -25.5t-30.5 -71.5q0 -47 27.5 -72.5t80.5 -25.5q48 0 78.5 25.5t30.5 72.5zM130 260z" />
    <glyph glyph-name="uni1095" unicode="&#x1095;" horiz-adv-x="704" 
d="M654 -91q0 -94 -64.5 -145.5t-163.5 -51.5q-100 0 -161.5 50.5t-61.5 144.5q0 92 61.5 144t161.5 52q99 0 163.5 -52t64.5 -142zM537 -93q0 46 -30.5 71.5t-78.5 25.5q-47 0 -77.5 -25.5t-30.5 -71.5q0 -47 27.5 -72.5t80.5 -25.5q48 0 78.5 25.5t30.5 72.5zM280 260z
" />
    <glyph glyph-name="uni1700" unicode="&#x1700;" 
 />
    <glyph glyph-name="uni1E00" unicode="&#x1e00;" horiz-adv-x="1336" 
d="M973 380h-610l-137 -380h-198l556 1456h168l557 -1456h-197zM421 538h495l-248 681zM509 -242q0 70 50 118.5t124 48.5q71 0 120 -48t49 -119q0 -70 -48 -116.5t-121 -46.5q-76 0 -125 47t-49 116zM596 -242q0 -35 26 -59t61 -24t59 24t24 59q0 36 -24 61t-59 25
q-37 0 -62 -26t-25 -60z" />
    <glyph glyph-name="uni1E01" unicode="&#x1e01;" horiz-adv-x="1114" 
d="M808 0q-16 32 -26 114q-129 -134 -308 -134q-160 0 -262.5 90.5t-102.5 229.5q0 169 128.5 262.5t361.5 93.5h180v85q0 97 -58 154.5t-171 57.5q-99 0 -166 -50t-67 -121h-186q0 81 57.5 156.5t156 119.5t216.5 44q187 0 293 -93.5t110 -257.5v-498q0 -149 38 -237v-16
h-194zM501 141q87 0 165 45t113 117v222h-145q-340 0 -340 -199q0 -87 58 -136t149 -49zM325 -242q0 70 50 118.5t124 48.5q71 0 120 -48t49 -119q0 -70 -48 -116.5t-121 -46.5q-76 0 -125 47t-49 116zM412 -242q0 -35 26 -59t61 -24t59 24t24 59q0 36 -24 61t-59 25
q-37 0 -62 -26t-25 -60z" />
    <glyph glyph-name="uni1E02" unicode="&#x1e02;" horiz-adv-x="1275" 
d="M169 0v1456h476q237 0 356.5 -98t119.5 -290q0 -102 -58 -180.5t-158 -121.5q118 -33 186.5 -125.5t68.5 -220.5q0 -196 -127 -308t-359 -112h-505zM361 681v-524h317q134 0 211.5 69.5t77.5 191.5q0 263 -286 263h-320zM361 835h290q126 0 201.5 63t75.5 171
q0 120 -70 174.5t-213 54.5h-284v-463zM524.5 1765q27.5 31 81.5 31t82 -31t28 -76t-28 -75t-82 -30t-81.5 30t-27.5 75t27.5 76z" />
    <glyph glyph-name="uni1E03" unicode="&#x1e03;" horiz-adv-x="1149" 
d="M1056 529q0 -248 -114 -398.5t-306 -150.5q-205 0 -317 145l-9 -125h-170v1536h185v-573q112 139 309 139t309.5 -149t112.5 -408v-16zM871 550q0 189 -73 292t-210 103q-183 0 -263 -170v-468q85 -170 265 -170q133 0 207 103t74 310zM552.5 1764q27.5 31 81.5 31
t82 -31t28 -76t-28 -75t-82 -30t-81.5 30t-27.5 75t27.5 76z" />
    <glyph glyph-name="uni1E04" unicode="&#x1e04;" horiz-adv-x="1275" 
d="M169 0v1456h476q237 0 356.5 -98t119.5 -290q0 -102 -58 -180.5t-158 -121.5q118 -33 186.5 -125.5t68.5 -220.5q0 -196 -127 -308t-359 -112h-505zM361 681v-524h317q134 0 211.5 69.5t77.5 191.5q0 263 -286 263h-320zM361 835h290q126 0 201.5 63t75.5 171
q0 120 -70 174.5t-213 54.5h-284v-463zM525.5 -159q27.5 31 81.5 31t82 -31t28 -76t-28 -75t-82 -30t-81.5 30t-27.5 75t27.5 76z" />
    <glyph glyph-name="uni1E05" unicode="&#x1e05;" horiz-adv-x="1149" 
d="M1056 529q0 -248 -114 -398.5t-306 -150.5q-205 0 -317 145l-9 -125h-170v1536h185v-573q112 139 309 139t309.5 -149t112.5 -408v-16zM871 550q0 189 -73 292t-210 103q-183 0 -263 -170v-468q85 -170 265 -170q133 0 207 103t74 310zM510.5 -178q27.5 31 81.5 31
t82 -31t28 -76t-28 -75t-82 -30t-81.5 30t-27.5 75t27.5 76z" />
    <glyph glyph-name="uni1E06" unicode="&#x1e06;" horiz-adv-x="1275" 
d="M169 0v1456h476q237 0 356.5 -98t119.5 -290q0 -102 -58 -180.5t-158 -121.5q118 -33 186.5 -125.5t68.5 -220.5q0 -196 -127 -308t-359 -112h-505zM361 681v-524h317q134 0 211.5 69.5t77.5 191.5q0 263 -286 263h-320zM361 835h290q126 0 201.5 63t75.5 171
q0 120 -70 174.5t-213 54.5h-284v-463zM970 -281h-714v143h714v-143z" />
    <glyph glyph-name="uni1E07" unicode="&#x1e07;" horiz-adv-x="1149" 
d="M1056 529q0 -248 -114 -398.5t-306 -150.5q-205 0 -317 145l-9 -125h-170v1536h185v-573q112 139 309 139t309.5 -149t112.5 -408v-16zM871 550q0 189 -73 292t-210 103q-183 0 -263 -170v-468q85 -170 265 -170q133 0 207 103t74 310zM955 -300h-714v143h714v-143z" />
    <glyph glyph-name="uni1E08" unicode="&#x1e08;" horiz-adv-x="1333" 
d="M1240 462q-27 -231 -170.5 -356.5t-381.5 -125.5q-258 0 -413.5 185t-155.5 495v140q0 203 72.5 357t205.5 236.5t308 82.5q232 0 372 -129.5t163 -358.5h-193q-25 174 -108.5 252t-233.5 78q-184 0 -288.5 -136t-104.5 -387v-141q0 -237 99 -377t277 -140
q160 0 245.5 72.5t113.5 252.5h193zM751 -9l-12 -52q153 -27 153 -173q0 -97 -80 -153.5t-223 -56.5l-7 107q79 0 122.5 26t43.5 73q0 44 -32 65t-130 30l32 134h133zM770 1877h224l-268 -294h-149z" />
    <glyph glyph-name="uni1E09" unicode="&#x1e09;" horiz-adv-x="1072" 
d="M574 131q99 0 173 60t82 150h175q-5 -93 -64 -177t-157.5 -134t-208.5 -50q-221 0 -351.5 147.5t-130.5 403.5v31q0 158 58 281t166.5 191t256.5 68q182 0 302.5 -109t128.5 -283h-175q-8 105 -79.5 172.5t-176.5 67.5q-141 0 -218.5 -101.5t-77.5 -293.5v-35
q0 -187 77 -288t220 -101zM604 -9l-12 -52q153 -27 153 -173q0 -97 -80 -153.5t-223 -56.5l-7 107q79 0 122.5 26t43.5 73q0 44 -32 65t-130 30l32 134h133zM623 1534h224l-268 -294h-149z" />
    <glyph glyph-name="uni1E0A" unicode="&#x1e0a;" horiz-adv-x="1343" 
d="M169 0v1456h411q190 0 336 -84t225.5 -239t80.5 -356v-93q0 -206 -79.5 -361t-227 -238t-343.5 -85h-403zM361 1298v-1141h202q222 0 345.5 138t123.5 393v85q0 248 -116.5 385.5t-330.5 139.5h-224zM527.5 1765q27.5 31 81.5 31t82 -31t28 -76t-28 -75t-82 -30t-81.5 30
t-27.5 75t27.5 76z" />
    <glyph glyph-name="uni1E0B" unicode="&#x1e0b;" horiz-adv-x="1155" 
d="M95 550q0 249 118 400.5t309 151.5q190 0 301 -130v564h185v-1536h-170l-9 116q-111 -136 -309 -136q-188 0 -306.5 154t-118.5 402v14zM280 529q0 -184 76 -288t210 -104q176 0 257 158v497q-83 153 -255 153q-136 0 -212 -105t-76 -311zM467.5 1764q27.5 31 81.5 31
t82 -31t28 -76t-28 -75t-82 -30t-81.5 30t-27.5 75t27.5 76z" />
    <glyph glyph-name="uni1E0C" unicode="&#x1e0c;" horiz-adv-x="1343" 
d="M169 0v1456h411q190 0 336 -84t225.5 -239t80.5 -356v-93q0 -206 -79.5 -361t-227 -238t-343.5 -85h-403zM361 1298v-1141h202q222 0 345.5 138t123.5 393v85q0 248 -116.5 385.5t-330.5 139.5h-224zM524.5 -159q27.5 31 81.5 31t82 -31t28 -76t-28 -75t-82 -30t-81.5 30
t-27.5 75t27.5 76z" />
    <glyph glyph-name="uni1E0D" unicode="&#x1e0d;" horiz-adv-x="1155" 
d="M95 550q0 249 118 400.5t309 151.5q190 0 301 -130v564h185v-1536h-170l-9 116q-111 -136 -309 -136q-188 0 -306.5 154t-118.5 402v14zM280 529q0 -184 76 -288t210 -104q176 0 257 158v497q-83 153 -255 153q-136 0 -212 -105t-76 -311zM528.5 -169q27.5 31 81.5 31
t82 -31t28 -76t-28 -75t-82 -30t-81.5 30t-27.5 75t27.5 76z" />
    <glyph glyph-name="uni1E0E" unicode="&#x1e0e;" horiz-adv-x="1343" 
d="M169 0v1456h411q190 0 336 -84t225.5 -239t80.5 -356v-93q0 -206 -79.5 -361t-227 -238t-343.5 -85h-403zM361 1298v-1141h202q222 0 345.5 138t123.5 393v85q0 248 -116.5 385.5t-330.5 139.5h-224zM969 -281h-714v143h714v-143z" />
    <glyph glyph-name="uni1E0F" unicode="&#x1e0f;" horiz-adv-x="1155" 
d="M95 550q0 249 118 400.5t309 151.5q190 0 301 -130v564h185v-1536h-170l-9 116q-111 -136 -309 -136q-188 0 -306.5 154t-118.5 402v14zM280 529q0 -184 76 -288t210 -104q176 0 257 158v497q-83 153 -255 153q-136 0 -212 -105t-76 -311zM973 -291h-714v143h714v-143z
" />
    <glyph glyph-name="uni1E10" unicode="&#x1e10;" horiz-adv-x="1448" 
d="M641 168q117 0 210 42t157.5 115.5t98.5 175t34 222.5t-34 223.5t-98.5 176t-157.5 115.5t-210 42h-262v-1112h262zM186 0v1448h467q156 0 283 -53.5t216 -148.5t137 -229t48 -294t-48 -293t-137 -228.5t-216 -148.5t-283 -53h-467zM489 -473q21 43 35.5 80t23.5 75.5
t13 80.5t4 96l191 -19q0 -100 -31 -195.5t-109 -181.5z" />
    <glyph glyph-name="uni1E11" unicode="&#x1e11;" horiz-adv-x="1192" 
d="M864 0q-10 41 -16 94q-66 -49 -153 -81.5t-179 -32.5q-102 0 -181 44t-133.5 117.5t-82 171t-27.5 205.5q0 117 32 218.5t93.5 178t150.5 120.5t205 44q66 0 135.5 -18.5t135.5 -65.5v531l182 16v-1290q0 -59 3 -126t18 -126h-183zM844 846q-60 39 -126.5 57.5
t-125.5 18.5q-84 0 -143.5 -33t-98.5 -88.5t-56.5 -130t-17.5 -158.5q0 -78 15.5 -146.5t50.5 -118.5t89 -80t132 -30q60 0 135.5 19.5t145.5 64.5v625zM434 -473q21 43 35 80t23.5 75.5t13.5 80.5t4 96l182 -19q0 -100 -30.5 -195.5t-108.5 -181.5z" />
    <glyph glyph-name="uni1E12" unicode="&#x1e12;" horiz-adv-x="1343" 
d="M169 0v1456h411q190 0 336 -84t225.5 -239t80.5 -356v-93q0 -206 -79.5 -361t-227 -238t-343.5 -85h-403zM361 1298v-1141h202q222 0 345.5 138t123.5 393v85q0 248 -116.5 385.5t-330.5 139.5h-224zM913 -395v-10h-153l-150 170l-149 -170h-153v12l246 272h112z" />
    <glyph glyph-name="uni1E13" unicode="&#x1e13;" horiz-adv-x="1155" 
d="M95 550q0 249 118 400.5t309 151.5q190 0 301 -130v564h185v-1536h-170l-9 116q-111 -136 -309 -136q-188 0 -306.5 154t-118.5 402v14zM280 529q0 -184 76 -288t210 -104q176 0 257 158v497q-83 153 -255 153q-136 0 -212 -105t-76 -311zM917 -405v-10h-153l-150 170
l-149 -170h-153v12l246 272h112z" />
    <glyph glyph-name="uni1E14" unicode="&#x1e14;" horiz-adv-x="1164" 
d="M992 673h-631v-516h733v-157h-925v1456h915v-158h-723v-468h631v-157zM686 1845h-114l-210 198h179zM955 1631h-671v142h671v-142z" />
    <glyph glyph-name="uni1E15" unicode="&#x1e15;" horiz-adv-x="1085" 
d="M589 -20q-220 0 -358 144.5t-138 386.5v34q0 161 61.5 287.5t172 198t239.5 71.5q211 0 328 -139t117 -398v-77h-733q4 -160 93.5 -258.5t227.5 -98.5q98 0 166 40t119 106l113 -88q-136 -209 -408 -209zM566 950q-112 0 -188 -81.5t-94 -228.5h542v14q-8 141 -76 218.5
t-184 77.5zM632 1523h-114l-210 198h179zM901 1309h-671v142h671v-142z" />
    <glyph glyph-name="uni1E16" unicode="&#x1e16;" horiz-adv-x="1164" 
d="M992 673h-631v-516h733v-157h-925v1456h915v-158h-723v-468h631v-157zM955 1631h-671v142h671v-142zM672 2043h171l-182 -198h-120z" />
    <glyph glyph-name="uni1E17" unicode="&#x1e17;" horiz-adv-x="1085" 
d="M589 -20q-220 0 -358 144.5t-138 386.5v34q0 161 61.5 287.5t172 198t239.5 71.5q211 0 328 -139t117 -398v-77h-733q4 -160 93.5 -258.5t227.5 -98.5q98 0 166 40t119 106l113 -88q-136 -209 -408 -209zM566 950q-112 0 -188 -81.5t-94 -228.5h542v14q-8 141 -76 218.5
t-184 77.5zM901 1309h-671v142h671v-142zM618 1721h171l-182 -198h-120z" />
    <glyph glyph-name="uni1E18" unicode="&#x1e18;" horiz-adv-x="1164" 
d="M992 673h-631v-516h733v-157h-925v1456h915v-158h-723v-468h631v-157zM920 -395v-10h-153l-150 170l-149 -170h-153v12l246 272h112z" />
    <glyph glyph-name="uni1E19" unicode="&#x1e19;" horiz-adv-x="1085" 
d="M589 -20q-220 0 -358 144.5t-138 386.5v34q0 161 61.5 287.5t172 198t239.5 71.5q211 0 328 -139t117 -398v-77h-733q4 -160 93.5 -258.5t227.5 -98.5q98 0 166 40t119 106l113 -88q-136 -209 -408 -209zM566 950q-112 0 -188 -81.5t-94 -228.5h542v14q-8 141 -76 218.5
t-184 77.5zM868 -405v-10h-153l-150 170l-149 -170h-153v12l246 272h112z" />
    <glyph glyph-name="uni1E1A" unicode="&#x1e1a;" horiz-adv-x="1164" 
d="M992 673h-631v-516h733v-157h-925v1456h915v-158h-723v-468h631v-157zM974 -168q0 -108 -61.5 -175t-153.5 -67q-41 0 -71 10t-78.5 41t-70 37.5t-49.5 6.5q-41 0 -70 -31.5t-29 -80.5l-124 7q0 107 60.5 177t153.5 70q35 0 63 -10t76 -39t73.5 -38t56.5 -9q43 0 71.5 34
t28.5 79z" />
    <glyph glyph-name="uni1E1B" unicode="&#x1e1b;" horiz-adv-x="1085" 
d="M589 -20q-220 0 -358 144.5t-138 386.5v34q0 161 61.5 287.5t172 198t239.5 71.5q211 0 328 -139t117 -398v-77h-733q4 -160 93.5 -258.5t227.5 -98.5q98 0 166 40t119 106l113 -88q-136 -209 -408 -209zM566 950q-112 0 -188 -81.5t-94 -228.5h542v14q-8 141 -76 218.5
t-184 77.5zM922 -178q0 -108 -61.5 -175t-153.5 -67q-41 0 -71 10t-78.5 41t-70 37.5t-49.5 6.5q-41 0 -70 -31.5t-29 -80.5l-124 7q0 107 60.5 177t153.5 70q35 0 63 -10t76 -39t73.5 -38t56.5 -9q43 0 71.5 34t28.5 79z" />
    <glyph glyph-name="uni1E1C" unicode="&#x1e1c;" horiz-adv-x="1164" 
d="M992 673h-631v-516h733v-157h-925v1456h915v-158h-723v-468h631v-157zM691 10l-12 -52q153 -27 153 -173q0 -97 -80 -153.5t-223 -56.5l-7 107q79 0 122.5 26t43.5 73q0 44 -32 65t-130 30l32 134h133zM919 1818q0 -121 -82.5 -194.5t-216.5 -73.5t-217 74t-83 194h151
q0 -70 38 -109.5t111 -39.5q70 0 109.5 39t39.5 110h150z" />
    <glyph glyph-name="uni1E1D" unicode="&#x1e1d;" horiz-adv-x="1085" 
d="M589 -20q-220 0 -358 144.5t-138 386.5v34q0 161 61.5 287.5t172 198t239.5 71.5q211 0 328 -139t117 -398v-77h-733q4 -160 93.5 -258.5t227.5 -98.5q98 0 166 40t119 106l113 -88q-136 -209 -408 -209zM566 950q-112 0 -188 -81.5t-94 -228.5h542v14q-8 141 -76 218.5
t-184 77.5zM639 0l-12 -52q153 -27 153 -173q0 -97 -80 -153.5t-223 -56.5l-7 107q79 0 122.5 26t43.5 73q0 44 -32 65t-130 30l32 134h133zM865 1496q0 -121 -82.5 -194.5t-216.5 -73.5t-217 74t-83 194h151q0 -70 38 -109.5t111 -39.5q70 0 109.5 39t39.5 110h150z" />
    <glyph glyph-name="uni1E1E" unicode="&#x1e1e;" horiz-adv-x="1132" 
d="M972 643h-611v-643h-192v1456h902v-158h-710v-498h611v-157zM538.5 1765q27.5 31 81.5 31t82 -31t28 -76t-28 -75t-82 -30t-81.5 30t-27.5 75t27.5 76z" />
    <glyph glyph-name="uni1E1F" unicode="&#x1e1f;" horiz-adv-x="711" 
d="M231 0v939h-171v143h171v111q0 174 93 269t263 95q64 0 127 -17l-10 -150q-47 9 -100 9q-90 0 -139 -52.5t-49 -150.5v-114h231v-143h-231v-939h-185zM420.5 1906q27.5 31 81.5 31t82 -31t28 -76t-28 -75t-82 -30t-81.5 30t-27.5 75t27.5 76z" />
    <glyph glyph-name="uni1E20" unicode="&#x1e20;" horiz-adv-x="1395" 
d="M1244 191q-74 -106 -206.5 -158.5t-308.5 -52.5q-178 0 -316 83.5t-213.5 237.5t-77.5 357v127q0 329 153.5 510t431.5 181q228 0 367 -116.5t170 -330.5h-192q-54 289 -344 289q-193 0 -292.5 -135.5t-100.5 -392.5v-119q0 -245 112 -389.5t303 -144.5q108 0 189 24
t134 81v327h-337v156h528v-534zM1032 1664h-714v143h714v-143z" />
    </font>
</defs>
</svg>
